<?xml version="1.0" encoding="utf-8"?>
<!-- Generator: Adobe Illustrator 16.0.3, SVG Export Plug-In . SVG Version: 6.00 Build 0)  -->
<!DOCTYPE svg PUBLIC "-//W3C//DTD SVG 1.1//EN" "http://www.w3.org/Graphics/SVG/1.1/DTD/svg11.dtd">
<svg version="1.1" id="Layer_3" xmlns="http://www.w3.org/2000/svg" xmlns:xlink="http://www.w3.org/1999/xlink" x="0px" y="0px"
	 width="16px" height="16px" viewBox="0 0 16 16" enable-background="new 0 0 16 16" xml:space="preserve">
<rect x="1" y="1" opacity="0.6" fill="#FFFFFF" width="14" height="14"/>
<polygon fill="#006699" points="3.5,4 12.5,4 8.5,8.5 8.5,13 7.5,13 7.5,8.5 "/>
<g>
	<path fill="#006699" d="M11,13.5c0,0.275-0.225,0.5-0.5,0.5h-5C5.225,14,5,13.775,5,13.5l0,0C5,13.225,5.225,13,5.5,13h5
		C10.775,13,11,13.225,11,13.5L11,13.5z"/>
</g>
<g>
	<path fill="#006699" d="M9.525,5.146c-0.194,0.194-0.513,0.194-0.707,0s-0.194-0.513,0-0.707l2.121-2.121
		c0.194-0.194,0.513-0.194,0.707,0s0.194,0.513,0,0.707L9.525,5.146z"/>
</g>
<polygon fill="#006699" points="0,0 4,0 4,1 1,1 1,4 0,4 "/>
<polygon fill="#006699" points="0,16 0,12 1,12 1,15 4,15 4,16 "/>
<polygon fill="#006699" points="16,16 12,16 12,15 15,15 15,12 16,12 "/>
<polygon fill="#006699" points="16,0 16,4 15,4 15,1 12,1 12,0 "/>
</svg>
