<?xml version="1.0" encoding="utf-8"?>
<!-- Generator: Adobe Illustrator 20.1.0, SVG Export Plug-In . SVG Version: 6.00 Build 0)  -->
<svg version="1.1" id="Layer_3" xmlns="http://www.w3.org/2000/svg" xmlns:xlink="http://www.w3.org/1999/xlink" x="0px" y="0px"
	 viewBox="0 0 16 16" style="enable-background:new 0 0 16 16;" xml:space="preserve">
<style type="text/css">
	.st0{fill:url(#SVGID_1_);}
	.st1{fill:url(#SVGID_2_);}
	.st2{fill:#4D4D4D;}
	.st3{fill:url(#SVGID_3_);}
	.st4{fill:#666666;}
</style>
<text transform="matrix(1 0 0 1 26 5)"><tspan x="0" y="0" style="font-family:'MyriadPro-Regular'; font-size:1px;">light color: 50%</tspan><tspan x="0" y="1.2" style="font-family:'MyriadPro-Regular'; font-size:1px;">dark color: 30%</tspan><tspan x="0" y="2.4" style="font-family:'MyriadPro-Regular'; font-size:1px;">contour: 1px</tspan><tspan x="0" y="3.6" style="font-family:'MyriadPro-Regular'; font-size:1px;">corner radius: 0,5px</tspan></text>
<linearGradient id="SVGID_1_" gradientUnits="userSpaceOnUse" x1="8" y1="36.5" x2="-6.8133" y2="36.5" gradientTransform="matrix(0 -1 1 0 -1 24)">
	<stop  offset="0" style="stop-color:#808080"/>
	<stop  offset="1" style="stop-color:#4D4D4D"/>
</linearGradient>
<polygon class="st0" points="34,9 36,9 36,11 37,11 37,9 37,8 36,8 34,8 "/>
<linearGradient id="SVGID_2_" gradientUnits="userSpaceOnUse" x1="7.6364" y1="28" x2="-8.5236" y2="28" gradientTransform="matrix(0 -1 1 0 -1 24)">
	<stop  offset="0" style="stop-color:#808080"/>
	<stop  offset="1" style="stop-color:#4D4D4D"/>
</linearGradient>
<path class="st1" d="M29.7,16H29v-0.7l3.3-3.3H21.5c-0.3,0-0.5,0.2-0.5,0.5v11c0,0.3,0.2,0.5,0.5,0.5h11c0.3,0,0.5-0.2,0.5-0.5V12.7
	L29.7,16z M30,17v1h-2h-1v-1v-2h1v2H30z"/>
<path class="st2" d="M32.3,12h0.2c0.3,0,0.5,0.2,0.5,0.5v0.2l2-2V10h-0.7L32.3,12z"/>
<linearGradient id="SVGID_3_" gradientUnits="userSpaceOnUse" x1="6" y1="4.2499" x2="6" y2="15.7673">
	<stop  offset="0" style="stop-color:#808080"/>
	<stop  offset="1" style="stop-color:#4D4D4D"/>
</linearGradient>
<path class="st3" d="M11,4H1C0.4,4,0,4.4,0,5V15c0,0.5,0.4,1,1,1H11c0.5,0,1-0.4,1-1V5C12,4.4,11.6,4,11,4z"/>
<polygon class="st4" points="15.3,7.2 13.9,8.6 12.5,7.2 11.8,7.9 13.2,9.3 13.9,10 14.6,9.3 16,7.9 "/>
<polygon class="st4" points="8.8,3.5 7.4,2.1 8.8,0.7 8.1,0 6.7,1.4 6,2.1 6.7,2.8 8.1,4.2 "/>
<path class="st4" d="M9.4,1.6L9.4,1.6L9.4,1.6C9.4,1.6,9.4,1.6,9.4,1.6L9.4,1.6l-0.5,0L8.4,2.1l0.5,0.5l0.5,0v0c2.2,0,4,1.8,4,4l0,0
	v0.5l0.5,0.5l0.5-0.5V6.6C14.4,3.8,12.1,1.6,9.4,1.6z"/>
</svg>
