<?xml version="1.0" encoding="utf-8"?>
<!-- Generator: Adobe Illustrator 20.1.0, SVG Export Plug-In . SVG Version: 6.00 Build 0)  -->
<svg version="1.1" id="Layer_3" xmlns="http://www.w3.org/2000/svg" xmlns:xlink="http://www.w3.org/1999/xlink" x="0px" y="0px"
	 viewBox="0 0 16 16" style="enable-background:new 0 0 16 16;" xml:space="preserve">
<style type="text/css">
	.st0{fill:#666666;}
</style>
<g>
	<polygon class="st0" points="10.2,0.7 11.6,2.1 10.2,3.5 10.9,4.2 12.3,2.8 13,2.1 12.3,1.4 10.9,0 	"/>
	<polygon class="st0" points="2.9,3.5 1.5,2.1 2.9,0.7 2.2,0 0.8,1.4 0.1,2.1 0.8,2.8 2.2,4.2 	"/>
	<polygon class="st0" points="9.7,1.6 8,1.6 5,1.6 3.4,1.6 2.9,2.1 3.4,2.6 5,2.6 8,2.6 9.7,2.6 10.2,2.1 	"/>
</g>
<path class="st0" d="M9.9,16h-9c-0.7,0-1.1-0.7-0.8-1.3l5-9.3C5.3,5.2,5.6,5,5.9,5h9c0.7,0,1.1,0.7,0.8,1.3l-5,9.3
	C10.5,15.8,10.2,16,9.9,16z"/>
</svg>
