<?xml version="1.0" encoding="utf-8"?>
<!-- Generator: Adobe Illustrator 20.1.0, SVG Export Plug-In . SVG Version: 6.00 Build 0)  -->
<svg version="1.1" id="Layer_3" xmlns="http://www.w3.org/2000/svg" xmlns:xlink="http://www.w3.org/1999/xlink" x="0px" y="0px"
	 viewBox="0 0 16 16" style="enable-background:new 0 0 16 16;" xml:space="preserve">
<style type="text/css">
	.st0{fill:#666666;}
</style>
<polygon class="st0" points="13,1 15,1 15,3 16,3 16,1 16,0 15,0 13,0 "/>
<path class="st0" d="M8.7,8H8V7.3L11.3,4H0.5C0.2,4,0,4.2,0,4.5v11C0,15.8,0.2,16,0.5,16h11c0.3,0,0.5-0.2,0.5-0.5V4.7L8.7,8z M9,9
	v1H7H6V9V7h1v2H9z"/>
<path class="st0" d="M11.3,4h0.2C11.8,4,12,4.2,12,4.5v0.2l2-2V2h-0.7L11.3,4z"/>
</svg>
