<?xml version="1.0" encoding="utf-8"?>
<!-- Generator: Adobe Illustrator 21.0.0, SVG Export Plug-In . SVG Version: 6.00 Build 0)  -->
<svg version="1.1" id="Layer_1" xmlns="http://www.w3.org/2000/svg" xmlns:xlink="http://www.w3.org/1999/xlink" x="0px" y="0px"
	 viewBox="0 0 160 160" style="enable-background:new 0 0 160 160;" xml:space="preserve">
<style type="text/css">
	.st0{fill:#231F20;}
	.st1{fill:none;stroke:#231F20;stroke-width:10;stroke-linecap:round;stroke-miterlimit:10;}
</style>
<g>
	<path class="st0" d="M80,55c13.8,0,25,11.2,25,25s-11.2,25-25,25S55,93.8,55,80S66.2,55,80,55 M80,45c-19.3,0-35,15.7-35,35
		s15.7,35,35,35s35-15.7,35-35S99.3,45,80,45L80,45z"/>
</g>
<path class="st0" d="M158.7,65.8c-1.3-7.3-3.6-14.3-6.7-20.8h-0.1c-6.4-1.4-12.9-2.8-15.3-6.1c-2.4-3.4-1.7-10.1-1.1-16.5
	c-5.3-5.1-11.2-9.5-17.8-12.9c-4.9,2-9.9,4.2-13.7,4.2c-0.9,0-1.6-0.1-2.4-0.3c-3.8-1.2-7.1-7.1-10.5-12.6C87.5,0.3,83.8,0,80,0
	s-7.5,0.3-11.1,0.8c-3.4,5.5-6.7,11.4-10.5,12.6c-0.8,0.2-1.5,0.3-2.4,0.3c-3.8,0-8.8-2.2-13.7-4.2c-6.6,3.4-12.5,7.8-17.8,12.9
	c0.6,6.4,1.3,13.1-1.1,16.5C21,42.2,14.5,43.6,8.1,45H8c-3.1,6.5-5.4,13.5-6.7,20.8C5.4,70.7,10,75.7,10,80s-4.6,9.3-8.7,14.2
	c1.3,7.3,3.6,14.3,6.7,20.8h0.1c6.4,1.4,12.9,2.8,15.3,6.1c2.4,3.4,1.7,10.1,1.1,16.5c5.3,5.1,11.2,9.5,17.8,12.9
	c4.9-2,9.9-4.2,13.7-4.2c0.9,0,1.6,0.1,2.4,0.3c3.8,1.2,7.1,7.1,10.5,12.6c3.6,0.5,7.3,0.8,11.1,0.8s7.5-0.3,11.1-0.8
	c3.4-5.5,6.7-11.4,10.5-12.6c0.8-0.2,1.5-0.3,2.4-0.3c3.8,0,8.8,2.2,13.7,4.2c6.6-3.4,12.5-7.8,17.8-12.9
	c-0.6-6.4-1.3-13.1,1.1-16.5c2.4-3.3,8.9-4.7,15.3-6.1h0.1c3.1-6.5,5.4-13.5,6.7-20.8c-4.1-4.9-8.7-9.9-8.7-14.2
	S154.6,70.7,158.7,65.8z M147.9,96.9c-0.8,3.3-1.8,6.5-3.1,9.6c-6.4,1.5-12.5,3.6-16.2,8.8c-3.8,5.1-4,11.6-3.5,18.1
	c-2.6,2.3-5.3,4.3-8.2,6c-4.2-1.7-8.5-3.1-12.9-3.1c-1.9,0-3.8,0.2-5.4,0.8c-6.1,1.9-9.9,7.1-13.3,12.6c-1.7,0.2-3.5,0.3-5.3,0.3
	s-3.6-0.1-5.3-0.3c-3.4-5.5-7.2-10.7-13.3-12.6c-1.6-0.6-3.5-0.8-5.4-0.8c-4.4,0-8.7,1.4-12.9,3.1c-2.9-1.7-5.6-3.7-8.2-6
	c0.5-6.5,0.3-13-3.5-18.1c-3.7-5.2-9.8-7.3-16.2-8.8c-1.3-3.1-2.3-6.3-3.1-9.6C16.2,92,20,86.4,20,80s-3.8-12-7.9-16.9
	c0.8-3.3,1.8-6.5,3.1-9.6c6.4-1.5,12.5-3.6,16.2-8.8c3.8-5.1,4-11.6,3.5-18.1c2.6-2.3,5.3-4.3,8.2-6c4.2,1.7,8.5,3.1,12.9,3.1
	c1.9,0,3.8-0.2,5.4-0.8c6.1-1.9,9.9-7.1,13.3-12.6c1.7-0.2,3.5-0.3,5.3-0.3s3.6,0.1,5.3,0.3c3.4,5.5,7.2,10.7,13.3,12.6
	c1.6,0.6,3.5,0.8,5.4,0.8c4.4,0,8.7-1.4,12.9-3.1c2.9,1.7,5.6,3.7,8.2,6c-0.5,6.5-0.3,13,3.5,18.1c3.7,5.2,9.8,7.3,16.2,8.8
	c1.3,3.1,2.3,6.3,3.1,9.6C143.8,68,140,73.6,140,80S143.8,92,147.9,96.9z"/>
<line class="st1" x1="80" y1="70" x2="80" y2="90"/>
<line class="st1" x1="70" y1="80" x2="90" y2="80"/>
</svg>
