<?xml version="1.0" encoding="utf-8"?>
<!-- Generator: Adobe Illustrator 24.1.1, SVG Export Plug-In . SVG Version: 6.00 Build 0)  -->
<svg version="1.1" id="Layer_3" xmlns="http://www.w3.org/2000/svg" xmlns:xlink="http://www.w3.org/1999/xlink" x="0px" y="0px"
	 viewBox="0 0 80.1 80.1" style="enable-background:new 0 0 80.1 80.1;" xml:space="preserve">
<style type="text/css">
	.st0{fill:#231F20;}
</style>
<path class="st0" d="M75,18v45H5V18H75 M76.2,13H3.8C1.7,13,0,14.7,0,16.8v47.5c0,2.1,1.7,3.8,3.8,3.8h72.4c2.1,0,3.8-1.7,3.8-3.8
	V16.8C80,14.7,78.3,13,76.2,13L76.2,13z"/>
<rect x="20" y="33" class="st0" width="5" height="5"/>
<rect x="10" y="33" class="st0" width="5" height="5"/>
<rect x="30" y="33" class="st0" width="5" height="5"/>
<rect x="40" y="33" class="st0" width="5" height="5"/>
<rect x="50" y="33" class="st0" width="5" height="5"/>
<rect x="60" y="33" class="st0" width="5" height="5"/>
<rect x="60" y="43" class="st0" width="5" height="5"/>
<rect x="60" y="53" class="st0" width="5" height="5"/>
</svg>
