<?xml version="1.0" encoding="utf-8"?>
<!-- Generator: Adobe Illustrator 21.0.0, SVG Export Plug-In . SVG Version: 6.00 Build 0)  -->
<svg version="1.1" id="Layer_1" xmlns="http://www.w3.org/2000/svg" xmlns:xlink="http://www.w3.org/1999/xlink" x="0px" y="0px"
	 viewBox="0 0 160 160" style="enable-background:new 0 0 160 160;" xml:space="preserve">
<style type="text/css">
	.st0{fill:#231F20;}
</style>
<g>
	<path class="st0" d="M85,0v30.3c-1.6-0.2-3.3-0.3-5-0.3s-3.4,0.1-5,0.3V0c0-2.8,2.2-5,5-5S85-2.8,85,0z"/>
	<path class="st0" d="M85,129.7V160c0,2.8-2.2,5-5,5s-5-2.2-5-5v-30.3c1.6,0.2,3.3,0.3,5,0.3S83.4,129.9,85,129.7z"/>
</g>
<g>
	<path class="st0" d="M48.4,118.7L27,140.1c-1,1-2.3,1.5-3.6,1.5c-1.2,0-2.5-0.5-3.5-1.5c-2-1.9-2-5.1,0-7.1l21.4-21.4
		C43.4,114.2,45.8,116.6,48.4,118.7z"/>
	<path class="st0" d="M140.1,27l-21.4,21.4c-2.1-2.6-4.5-5-7.1-7.1L133,19.9c2-2,5.2-2,7.1,0C142.1,21.9,142.1,25,140.1,27z"/>
</g>
<g>
	<path class="st0" d="M30,80c0,1.7,0.1,3.4,0.3,5H0c-2.8,0-5-2.2-5-5c0-2.8,2.2-5,5-5h30.3C30.1,76.6,30,78.3,30,80z"/>
	<path class="st0" d="M165,80c0,2.8-2.2,5-5,5h-30.3c0.2-1.6,0.3-3.3,0.3-5c0-1.7-0.1-3.4-0.3-5H160C162.8,75,165,77.2,165,80z"/>
</g>
<g>
	<path class="st0" d="M48.4,41.3c-2.6,2.1-5,4.5-7.1,7.1L19.9,27c-2-2-2-5.1,0-7.1s5.1-2,7.1,0L48.4,41.3z"/>
	<path class="st0" d="M140.1,140.1c-1,1-2.2,1.5-3.5,1.5c-1.3,0-2.6-0.5-3.6-1.5l-21.4-21.4c2.6-2.1,5-4.5,7.1-7.1l21.4,21.4
		C142.1,135,142.1,138.2,140.1,140.1z"/>
</g>
<g>
	<g>
		<path d="M129.7,75c-0.9-10-4.9-19.2-11-26.6c-2.1-2.6-4.5-5-7.1-7.1c-7.4-6.1-16.6-10.1-26.6-11c-1.6-0.2-3.3-0.3-5-0.3
			s-3.4,0.1-5,0.3c-10,0.9-19.2,4.9-26.6,11c-2.6,2.1-5,4.5-7.1,7.1C35.2,55.8,31.2,65,30.3,75c-0.2,1.6-0.3,3.3-0.3,5
			c0,1.7,0.1,3.4,0.3,5c0.9,10,4.9,19.2,11,26.6c2.1,2.6,4.5,5,7.1,7.1c7.4,6.1,16.6,10.1,26.6,11c1.6,0.2,3.3,0.3,5,0.3
			s3.4-0.1,5-0.3c10-0.9,19.2-4.9,26.6-11c2.6-2.1,5-4.5,7.1-7.1c6.1-7.4,10.1-16.6,11-26.6c0.2-1.6,0.3-3.3,0.3-5
			C130,78.3,129.9,76.6,129.7,75z M75,40.3c1.6-0.2,3.3-0.3,5-0.3s3.4,0.1,5,0.3c7.3,0.9,13.9,3.8,19.5,8.1c2.7,2,5.1,4.4,7.1,7.1
			c4.3,5.6,7.2,12.2,8.1,19.5c0.2,1.6,0.3,3.3,0.3,5c0,1.7-0.1,3.4-0.3,5c-0.9,7.3-3.8,13.9-8.1,19.5c-2,2.7-4.4,5.1-7.1,7.1
			c-5.6,4.3-12.2,7.2-19.5,8.1c-1.6,0.2-3.3,0.3-5,0.3s-3.4-0.1-5-0.3c-7.3-0.9-13.9-3.8-19.5-8.1c-2.7-2-5.1-4.4-7.1-7.1
			c-4.3-5.6-7.2-12.2-8.1-19.5c-0.2-1.6-0.3-3.3-0.3-5c0-1.7,0.1-3.4,0.3-5c0.9-7.3,3.8-13.9,8.1-19.5c2-2.7,4.4-5.1,7.1-7.1
			C61.1,44.1,67.7,41.2,75,40.3z"/>
	</g>
</g>
</svg>
