<?xml version="1.0" encoding="utf-8"?>
<!-- Generator: Adobe Illustrator 20.1.0, SVG Export Plug-In . SVG Version: 6.00 Build 0)  -->
<svg version="1.1" id="Layer_3" xmlns="http://www.w3.org/2000/svg" xmlns:xlink="http://www.w3.org/1999/xlink" x="0px" y="0px"
	 viewBox="0 0 16 16" style="enable-background:new 0 0 16 16;" xml:space="preserve">
<style type="text/css">
	.st0{fill:#4C4C4C;}
</style>
<path class="st0" d="M9,0v3.1C8.7,3,8.3,3,8,3S7.3,3,7,3.1V0H9z"/>
<path class="st0" d="M8,13c0.3,0,0.7,0,1-0.1V16H7v-3.1C7.3,13,7.7,13,8,13z"/>
<path class="st0" d="M5.2,3.8c-0.6,0.4-1,0.9-1.4,1.4L1.6,3L3,1.6L5.2,3.8z"/>
<path class="st0" d="M14.4,13L13,14.4l-2.2-2.2c0.6-0.4,1-0.8,1.4-1.4L14.4,13z"/>
<path class="st0" d="M3.1,7C3,7.3,3,7.7,3,8c0,0.3,0,0.7,0.1,1H0V7H3.1z"/>
<path class="st0" d="M16,7v2h-3.1C13,8.7,13,8.3,13,8c0-0.3,0-0.7-0.1-1H16z"/>
<path class="st0" d="M5.2,12.2L3,14.4L1.6,13l2.2-2.2C4.2,11.3,4.7,11.8,5.2,12.2z"/>
<path class="st0" d="M14.4,3l-2.2,2.2c-0.4-0.6-0.8-1-1.4-1.4L13,1.6L14.4,3z"/>
<circle class="st0" cx="8" cy="8" r="4"/>
</svg>
