<?xml version="1.0" encoding="utf-8"?>
<!-- Generator: Adobe Illustrator 21.0.0, SVG Export Plug-In . SVG Version: 6.00 Build 0)  -->
<svg version="1.1" id="Layer_1" xmlns="http://www.w3.org/2000/svg" xmlns:xlink="http://www.w3.org/1999/xlink" x="0px" y="0px"
	 viewBox="0 0 160 160" style="enable-background:new 0 0 160 160;" xml:space="preserve">
<style type="text/css">
	.st0{fill:#231F20;}
</style>
<g>
	<path class="st0" d="M160,89.4c-0.9-5.5-2.6-10.8-5-15.6h-0.1c-4.7-1.2-9.6-2.2-11.4-4.7c-1.8-2.5-1.3-7.4-0.9-12.2
		c-3.7-3.7-8-6.8-12.6-9.4c-0.2-0.1-0.5-0.3-0.7-0.4c-3.3,1.3-6.6,2.8-9.3,3.1c-0.4,0.1-0.7,0.1-1,0.1c-0.7,0-1.2-0.1-1.8-0.3
		c-2.7-0.9-4.9-4.7-7.2-8.5c-0.2-0.3-0.3-0.5-0.5-0.8c-2.5-0.4-4.9-0.6-7.5-0.7h-2c-2.6,0.1-5,0.3-7.5,0.7c-0.2,0.3-0.3,0.5-0.5,0.8
		c-2.3,3.8-4.5,7.6-7.2,8.5c-0.6,0.2-1.2,0.3-1.8,0.3c-2.9,0-6.6-1.7-10.3-3.2c-4.9,2.7-9.4,5.9-13.3,9.8c0.4,4.8,0.9,9.7-0.9,12.2
		c-1.8,2.5-6.7,3.5-11.4,4.7H47c-2.4,4.8-4.1,10.1-5,15.6c3.1,3.6,6.5,7.4,6.5,10.6c0,3.1-3,6.6-6.1,10c-0.1,0.2-0.3,0.3-0.4,0.5
		c0.5,3.3,1.3,6.5,2.4,9.5c0.7,2.1,1.6,4.2,2.6,6.2h0.1c4.2,1,8.5,1.9,10.7,3.8c0.3,0.3,0.5,0.5,0.7,0.8c1.8,2.5,1.3,7.5,0.9,12.3
		c3.9,3.9,8.4,7.1,13.3,9.8c3.7-1.5,7.4-3.2,10.3-3.2c0.6,0,1.2,0,1.8,0.2c2.9,0.9,5.3,5.3,7.8,9.5c2.2,0.3,4.5,0.5,6.8,0.5
		c0.5,0.1,1.1,0.1,1.6,0.1c2.9,0,5.7-0.2,8.4-0.6c2.4-4.1,4.8-8.4,7.6-9.4c0.1-0.1,0.1-0.1,0.2-0.1c0.6-0.2,1.1-0.2,1.8-0.2
		c0.7,0,1.5,0.1,2.3,0.3c2.5,0.5,5.2,1.8,8,2.9c1.6-0.9,3.2-1.8,4.7-2.9c3.1-2,6-4.3,8.6-6.9c-0.4-4.8-0.9-9.8,0.9-12.3
		c1.8-2.5,6.7-3.5,11.4-4.6h0.1c2.4-4.9,4.1-10.1,5-15.7c-3.2-3.6-6.5-7.3-6.5-10.5S156.9,93,160,89.4z M149.1,113.2
		c-0.3,1.6-0.8,3.1-1.4,4.5c-4.7,1.3-9.3,3.1-12.3,7.2c-3,4.2-3.4,9.2-3.1,14c-1.2,1-2.5,2-3.9,2.8c-3.1-1.1-6.2-2-9.4-2
		c-1.7,0-3.4,0.2-4.9,0.7c-4.8,1.6-8,5.4-10.6,9.5c-0.5,0.1-1,0.1-1.5,0.1h-1c-0.8,0-1.7,0-2.5-0.1c-1.8-2.7-3.8-5.4-6.5-7.3
		c-1.3-1-2.6-1.7-4.2-2.2c-1.5-0.5-3.1-0.7-4.8-0.7c-3.2,0-6.3,0.9-9.4,2c-1.4-0.8-2.7-1.8-3.9-2.8c0.1-3,0.1-6-0.8-8.9
		c-0.4-1.8-1.2-3.5-2.3-5.1c-1.6-2.2-3.7-3.8-6-4.9c-2-1-4.1-1.7-6.3-2.3c-0.6-1.4-1.1-2.9-1.4-4.5c0.8-1,1.6-2.1,2.3-3.2
		c1.9-2.9,3.3-6.2,3.3-10c0-5.2-2.6-9.5-5.7-13.2c0.4-1.6,0.9-3.1,1.5-4.6c4.7-1.2,9.3-3,12.3-7.2c3-4.2,3.3-9.2,3.1-14
		c1.2-1,2.5-1.9,3.9-2.8c3.1,1.2,6.2,2.1,9.4,2.1c1.7,0,3.3-0.3,4.8-0.8c1.6-0.5,2.9-1.2,4.2-2.1c2.7-1.9,4.7-4.6,6.5-7.3
		C99,50,99.5,50,100,50h2c0.5,0,1,0,1.5,0.1c1.8,2.7,3.8,5.4,6.5,7.3c1.2,0.9,2.6,1.6,4.1,2.1c1.5,0.5,3.2,0.8,4.9,0.8
		c0.3,0,0.7,0,1-0.1c2.8-0.1,5.6-0.9,8.4-2c0.5,0.4,1.1,0.7,1.6,1.1c0.8,0.5,1.6,1.1,2.3,1.7c-0.3,4.8,0.1,9.8,3.1,14
		c3,4.2,7.6,6,12.3,7.2c0.6,1.5,1.1,3,1.5,4.6c-3.1,3.7-5.7,8-5.7,13.2C143.5,105.2,146.1,109.5,149.1,113.2z"/>
</g>
<path class="st0" d="M101.1,0H8.9C4,0,0,4,0,8.9v92.2c0,4.9,4,8.9,8.9,8.9H20v-10H10V10h90v10h10V8.9C110,4,106,0,101.1,0z"/>
<path class="st0" d="M120,81.9c-2.7-2.9-6.1-5.2-10-6.6c-2.5-0.9-5.2-1.5-8-1.6h-2c-2.8,0.1-5.5,0.7-8,1.7
	C81.9,79,74.7,88.7,74.7,100c0,3.6,0.7,6.9,2.1,10c1.5,3.9,4.1,7.3,7.3,10c2.3,2,5,3.5,7.9,4.6c2.8,1,5.8,1.6,9,1.6h1
	c6.1-0.2,11.6-2.5,15.9-6.2c0.8-0.6,1.5-1.3,2.1-2c4.5-4.7,7.2-11,7.2-18S124.5,86.6,120,81.9z M84.7,100c0-5.7,2.9-10.7,7.3-13.6
	c2.3-1.5,5.1-2.5,8-2.6c0.3-0.1,0.7-0.1,1-0.1c0.3,0,0.7,0,1,0.1c3,0.2,5.7,1.1,8,2.8c4.3,2.8,7.2,7.7,7.2,13.4
	c0,8.6-6.7,15.6-15.2,16.1c-0.3,0.1-0.7,0.1-1,0.1c-3.3,0-6.4-1-9-2.7c-1.4-1-2.7-2.1-3.7-3.5C86,107.3,84.7,103.8,84.7,100z"/>
<path class="st0" d="M130,28.9v18.6c-0.2-0.1-0.5-0.3-0.7-0.4c-3.3,1.3-6.6,2.8-9.3,3.1V30H30v90h14.4c0.7,2.1,1.6,4.2,2.6,6.2h0.1
	c4.2,1,8.5,1.9,10.7,3.8H28.9c-4.9,0-8.9-4-8.9-8.9V28.9c0-4.9,4-8.9,8.9-8.9h92.2C126,20,130,24,130,28.9z"/>
</svg>
