<?xml version="1.0" encoding="utf-8"?>
<!-- Generator: Adobe Illustrator 16.0.3, SVG Export Plug-In . SVG Version: 6.00 Build 0)  -->
<!DOCTYPE svg PUBLIC "-//W3C//DTD SVG 1.1//EN" "http://www.w3.org/Graphics/SVG/1.1/DTD/svg11.dtd">
<svg version="1.1" id="Layer_3" xmlns="http://www.w3.org/2000/svg" xmlns:xlink="http://www.w3.org/1999/xlink" x="0px" y="0px"
	 width="16px" height="16px" viewBox="0 0 16 16" enable-background="new 0 0 16 16" xml:space="preserve">
<linearGradient id="SVGID_1_" gradientUnits="userSpaceOnUse" x1="3" y1="2.021" x2="3" y2="13.2038">
	<stop  offset="0" style="stop-color:#808080"/>
	<stop  offset="1" style="stop-color:#4D4D4D"/>
</linearGradient>
<rect x="2" y="2" fill="url(#SVGID_1_)" width="2" height="2"/>
<linearGradient id="SVGID_2_" gradientUnits="userSpaceOnUse" x1="9.5" y1="2.021" x2="9.5" y2="13.2038">
	<stop  offset="0" style="stop-color:#808080"/>
	<stop  offset="1" style="stop-color:#4D4D4D"/>
</linearGradient>
<rect x="5" y="2" fill="url(#SVGID_2_)" width="9" height="2"/>
<linearGradient id="SVGID_3_" gradientUnits="userSpaceOnUse" x1="3" y1="2.021" x2="3" y2="13.2038">
	<stop  offset="0" style="stop-color:#808080"/>
	<stop  offset="1" style="stop-color:#4D4D4D"/>
</linearGradient>
<rect x="2" y="5" fill="url(#SVGID_3_)" width="2" height="2"/>
<linearGradient id="SVGID_4_" gradientUnits="userSpaceOnUse" x1="9.5" y1="2.021" x2="9.5" y2="13.2038">
	<stop  offset="0" style="stop-color:#808080"/>
	<stop  offset="1" style="stop-color:#4D4D4D"/>
</linearGradient>
<rect x="5" y="5" fill="url(#SVGID_4_)" width="9" height="2"/>
<linearGradient id="SVGID_5_" gradientUnits="userSpaceOnUse" x1="3" y1="2.021" x2="3" y2="13.2038">
	<stop  offset="0" style="stop-color:#808080"/>
	<stop  offset="1" style="stop-color:#4D4D4D"/>
</linearGradient>
<rect x="2" y="8" fill="url(#SVGID_5_)" width="2" height="2"/>
<linearGradient id="SVGID_6_" gradientUnits="userSpaceOnUse" x1="9.5" y1="2.021" x2="9.5" y2="13.2038">
	<stop  offset="0" style="stop-color:#808080"/>
	<stop  offset="1" style="stop-color:#4D4D4D"/>
</linearGradient>
<rect x="5" y="8" fill="url(#SVGID_6_)" width="9" height="2"/>
<linearGradient id="SVGID_7_" gradientUnits="userSpaceOnUse" x1="3" y1="2.021" x2="3" y2="13.2038">
	<stop  offset="0" style="stop-color:#808080"/>
	<stop  offset="1" style="stop-color:#4D4D4D"/>
</linearGradient>
<rect x="2" y="11" fill="url(#SVGID_7_)" width="2" height="2"/>
<linearGradient id="SVGID_8_" gradientUnits="userSpaceOnUse" x1="8.4995" y1="2.021" x2="8.4995" y2="13.2038">
	<stop  offset="0" style="stop-color:#808080"/>
	<stop  offset="1" style="stop-color:#4D4D4D"/>
</linearGradient>
<rect x="5" y="11" fill="url(#SVGID_8_)" width="7" height="2"/>
</svg>
