<?xml version="1.0" encoding="utf-8"?>
<!-- Generator: Adobe Illustrator 23.0.6, SVG Export Plug-In . SVG Version: 6.00 Build 0)  -->
<svg version="1.1" id="Layer_1" xmlns="http://www.w3.org/2000/svg" xmlns:xlink="http://www.w3.org/1999/xlink" x="0px" y="0px"
	 viewBox="0 0 160 160" style="enable-background:new 0 0 160 160;" xml:space="preserve">
<style type="text/css">
	.st0{fill:#231F20;}
</style>
<path class="st0" d="M129.3,65.6c0-0.1-0.1-0.1-0.1-0.2L84.7,2.7c-0.4-0.7-0.9-1.3-1.6-1.8c0,0-0.1,0-0.1-0.1
	c-0.4-0.2-0.8-0.4-1.2-0.6h-0.1c-0.5-0.1-1-0.2-1.5-0.2c-0.1,0-0.1,0-0.2,0c-0.5,0-1,0.1-1.5,0.2h-0.1c-0.4,0.2-0.8,0.4-1.2,0.6
	c0,0.1-0.1,0.1-0.1,0.1c-0.7,0.5-1.2,1.1-1.6,1.8L31,65.4c0,0.1-0.1,0.1-0.1,0.2C24,75.3,20,87.2,20,100c0,33.1,26.9,60,60,60
	c0.1,0,0.1,0,0.2,0c33.1,0,60-26.9,60-60C140.2,87.2,136.2,75.3,129.3,65.6z M80.2,150c-0.1,0-0.1,0-0.2,0c-27.6,0-50-22.4-50-50
	c0-10.7,3.4-20.6,9.1-28.8L58.4,44L80,13.7V14l0.1-0.2l0.1,0.2v-0.3L101.8,44l19.3,27.2c5.7,8.2,9.1,18.1,9.1,28.8
	C130.2,127.6,107.8,150,80.2,150z"/>
</svg>
