<?xml version="1.0" encoding="utf-8"?>
<!-- Generator: Adobe Illustrator 21.0.0, SVG Export Plug-In . SVG Version: 6.00 Build 0)  -->
<svg version="1.1" id="Layer_1" xmlns="http://www.w3.org/2000/svg" xmlns:xlink="http://www.w3.org/1999/xlink" x="0px" y="0px"
	 viewBox="0 0 160 160" style="enable-background:new 0 0 160 160;" xml:space="preserve">
<style type="text/css">
	.st0{fill:#231F20;}
</style>
<g>
	<path class="st0" d="M160,87.5c0,9.7-7.8,17.5-17.5,17.5c-5.2,0-9.9-2.3-13-5.9l11.4-12.2c4.5-4.7,4.6-11.8,0.8-16.8
		c0.2-0.1,0.5-0.1,0.8-0.1C152.2,70,160,77.8,160,87.5z"/>
	<g>
		<path class="st0" d="M137.3,83.4l-10.7,11.3l-58.9,62.8c-1.5,1.7-3.6,2.5-5.7,2.5c-1.9,0-3.8-0.7-5.3-2.1L2.5,107
			c-3.2-3-3.3-7.9-0.4-11.1l24.2-25.8c3.1,1.5,6.5,2.7,10.3,3.7l-25.7,27.4l51,47.9l64.8-69l1.8-1.9l-0.5-0.5l-23-21.6L77.5,30.3
			l-6.6,7l-25.3,27c-4.2-0.7-7.9-1.7-11.1-2.9l23.7-25.2l10-10.6l3.5-3.8c1.5-1.6,3.6-2.4,5.7-2.4c1.9,0,3.8,0.7,5.3,2.1l53.1,49.9
			l1.1,1C140.1,75.3,140.3,80.3,137.3,83.4z"/>
	</g>
	<path class="st0" d="M96.7,66v0.1c0,5.5-4.5,10-10,10c-2.6,0-4.9-0.9-6.6-2.5C73.5,75.5,66,76.5,58,76.5c-7.7,0-15-1-21.4-2.7
		c-3.8-1-7.2-2.2-10.3-3.7c-1.6-0.7-3.1-1.5-4.5-2.4c-7.5-4.6-12-10.5-12-17C9.8,36.5,31.4,25,58,25c1.3,0,2.5,0,3.7,0.1L51,36.5
		c-18.8,1.6-30,9.6-30,14.2c0,2.3,3.1,5.7,8.7,8.6c1.4,0.8,3,1.5,4.8,2.1c3.2,1.2,6.9,2.2,11.1,2.9c3.8,0.6,7.9,1,12.4,1
		c7.4,0,13.9-1,19.3-2.6c1.4-3.8,5-6.6,9.4-6.6c1.2,0,2.4,0.2,3.5,0.7C94,58.2,96.7,61.8,96.7,66z"/>
</g>
</svg>
