<?xml version="1.0" encoding="utf-8"?>
<!-- Generator: Adobe Illustrator 21.0.0, SVG Export Plug-In . SVG Version: 6.00 Build 0)  -->
<svg version="1.1" id="Layer_1" xmlns="http://www.w3.org/2000/svg" xmlns:xlink="http://www.w3.org/1999/xlink" x="0px" y="0px"
	 viewBox="0 0 56.7 56.7" style="enable-background:new 0 0 56.7 56.7;" xml:space="preserve">
<style type="text/css">
	.st0{display:none;}
	.st1{display:inline;}
	.st2{fill:#4D4D4D;}
	.st3{fill:#FFFFFF;}
</style>
<g id="Layer_3" class="st0">
	<g class="st1">
		<path class="st2" d="M28.4,23.7l4.5,4.5l-6.7,6.7l-4.5-4.5L28.4,23.7 M28.4,22.6c-0.2,0-0.5,0.1-0.7,0.3l-6.8,6.8
			c-0.4,0.4-0.4,1,0,1.4l4.6,4.6c0.2,0.2,0.4,0.3,0.7,0.3s0.5-0.1,0.7-0.3l6.7-6.7c0.4-0.4,0.4-1,0-1.4L29,22.9
			C28.8,22.7,28.6,22.6,28.4,22.6L28.4,22.6z"/>
	</g>
	<g class="st1">
		<path class="st2" d="M34.3,26.3c-0.3,0-0.6,0.1-0.9,0.3l0.6,0.6c0.6,0.6,0.6,1.5,0,2.1l-1.2,1.2c0.4,0.5,0.9,0.9,1.5,0.9
			c1.1,0,2-1.1,2-2.5C36.3,27.4,35.4,26.3,34.3,26.3z"/>
	</g>
	<g class="st1">
		<path class="st2" d="M29.1,28c-0.7,0.1-1.5,0.2-2.3,0.2c-1.5,0-2.8-0.3-3.7-0.7c-0.1-0.1-0.3-0.2-0.4-0.3
			c-0.6-0.4-0.9-0.9-0.9-1.5c0-1.4,2.1-2.4,4.8-2.5l-1,1.1c-1.8,0.3-2.8,0.9-2.8,1.4c0,0.2,0.2,0.5,0.6,0.7l0,0
			c0.1,0.1,0.3,0.2,0.5,0.2c0.7,0.3,1.7,0.5,2.9,0.5c0.7,0,1.4-0.1,2.1-0.2c0.3-0.1,0.5,0.1,0.6,0.4C29.5,27.6,29.4,27.9,29.1,28z"
			/>
	</g>
</g>
<g id="Layer_2" class="st0">
	<g class="st1">
		<path d="M27.1,21.6L27.1,21.6l6.3,3.4L28,34.8l-6.3-3.4L27.1,21.6L27.1,21.6 M27.1,20.6c-0.4,0-0.7,0.2-0.9,0.5l-5.4,9.8
			c-0.3,0.5-0.1,1.1,0.4,1.4l6.3,3.4c0.2,0.1,0.3,0.1,0.5,0.1c0.4,0,0.7-0.2,0.9-0.5l5.4-9.8c0.3-0.5,0.1-1.1-0.4-1.4l-6.3-3.4
			C27.4,20.6,27.2,20.6,27.1,20.6L27.1,20.6z"/>
	</g>
	<g class="st1">
		<path d="M26,22.2c2.2,0,3.7,1,3.7,1.6c0,0.6-1.5,1.6-3.7,1.6s-3.7-0.9-3.7-1.6C22.3,23.1,23.7,22.2,26,22.2 M26,21.2
			c-2.6,0-4.7,1.2-4.7,2.6c0,1.4,2.1,2.6,4.7,2.6s4.7-1.2,4.7-2.6S28.6,21.2,26,21.2L26,21.2z"/>
	</g>
	<g class="st1">
		<circle cx="34.1" cy="25.8" r="2.2"/>
	</g>
	<g class="st1">
		<path class="st3" d="M27.1,20.6c0.2,0,0.3,0,0.5,0.1l6.3,3.4c0.5,0.3,0.7,0.9,0.4,1.4l-5.4,9.8c-0.2,0.3-0.5,0.5-0.9,0.5
			c-0.2,0-0.3,0-0.5-0.1l-6.3-3.4c-0.5-0.3-0.7-0.9-0.4-1.4l5.4-9.8C26.4,20.8,26.7,20.6,27.1,20.6 M27.1,20.1
			c-0.5,0-1.1,0.3-1.3,0.8l-5.4,9.8c-0.2,0.4-0.2,0.8-0.1,1.1c0.1,0.4,0.4,0.7,0.7,0.9l6.3,3.5c0.2,0.1,0.5,0.2,0.7,0.2
			c0.5,0,1.1-0.3,1.3-0.8l5.4-9.8c0.4-0.7,0.1-1.6-0.6-2l-6.3-3.5C27.6,20.2,27.3,20.1,27.1,20.1L27.1,20.1z"/>
	</g>
</g>
<g>
	<path d="M48.2,21.1l-2.7,4.5l-1.1,1.8L28.9,52.8c-0.5,0.9-1.5,1.4-2.5,1.4c-0.5,0-1.1-0.1-1.5-0.4l-23-14.1c-1.4-0.9-1.8-2.7-1-4.1
		l8.6-14c1.1,0.4,2.3,0.7,3.6,1L4.2,36.9l22,13.4l16-26.2l1-1.6l1.7-2.8l-2.1-1.3l-0.1-0.1l-0.1-0.1l-3.2-2L27.2,8.9l-4.3-2.6
		l-1.5,2.5l-6.4,10.5c-1.4-0.2-2.6-0.5-3.7-0.8L17,9.1l2.2-3.7l1-1.5c0.5-0.9,1.5-1.4,2.5-1.4c0.5,0,1.1,0.1,1.5,0.4l4.4,2.7
		l15.6,9.6h0l0.9,0.5l2,1.2C48.7,17.9,49.1,19.7,48.2,21.1z"/>
	<path d="M56.3,21.9c0,4-3.2,7.3-7.3,7.3c-1,0-2-0.2-2.9-0.6c-0.1,0-0.2-0.1-0.3-0.1l1.2-1.9l2.7-4.5c0.6-1.1,0.9-2.3,0.6-3.6
		c-0.3-1.2-1.1-2.3-2.1-3l-1-0.6c0.6-0.2,1.2-0.3,1.8-0.3C53.1,14.6,56.3,17.9,56.3,21.9z"/>
	<g>
		<path d="M31.5,21.6c0,0.5-0.1,0.9-0.2,1.3c-0.5,1.4-1.9,2.4-3.4,2.4c-1.3,0-2.5-0.7-3.1-1.8c-0.6,0-1.2,0-1.8,0
			c-3.4,0-6.9-0.3-10-1c-1.2-0.3-2.5-0.6-3.6-1c-0.6-0.2-1.2-0.4-1.7-0.6c-3.8-1.5-6.3-3.8-6.3-6.6c0-4.9,7.2-7.8,15.6-8.7l-2.3,3.8
			c-6.1,1.1-9.8,3.3-9.8,4.9c0,1.1,1.6,2.5,4.6,3.6c0.5,0.2,1.1,0.4,1.7,0.6c1.1,0.3,2.3,0.6,3.7,0.8c2.3,0.4,5,0.7,8,0.7
			c0.5,0,1.1,0,1.6,0c0.6-1.2,1.8-2,3.3-2c1.2,0,2.2,0.6,2.9,1.4C31.2,20,31.5,20.7,31.5,21.6z"/>
	</g>
</g>
</svg>
