<?xml version="1.0" encoding="utf-8"?>
<!-- Generator: Adobe Illustrator 21.0.0, SVG Export Plug-In . SVG Version: 6.00 Build 0)  -->
<svg version="1.1" xmlns="http://www.w3.org/2000/svg" xmlns:xlink="http://www.w3.org/1999/xlink" x="0px" y="0px"
	 viewBox="0 0 16 16" style="enable-background:new 0 0 16 16;" xml:space="preserve">
<style type="text/css">
	.st0{display:none;}
	.st1{display:inline;}
	.st2{fill:#4D4D4D;}
	.st3{fill:#FFFFFF;}
</style>
<g id="Layer_3" class="st0">
	<g class="st1">
		<path class="st2" d="M8.1,3.4l4.5,4.5l-6.7,6.7l-4.5-4.5L8.1,3.4 M8.1,2.3c-0.2,0-0.5,0.1-0.7,0.3L0.6,9.4c-0.4,0.4-0.4,1,0,1.4
			l4.6,4.6c0.2,0.2,0.4,0.3,0.7,0.3s0.5-0.1,0.7-0.3l6.7-6.7c0.4-0.4,0.4-1,0-1.4L8.7,2.6C8.5,2.4,8.3,2.3,8.1,2.3L8.1,2.3z"/>
	</g>
	<g class="st1">
		<path class="st2" d="M14,6c-0.3,0-0.6,0.1-0.9,0.3l0.6,0.6c0.6,0.6,0.6,1.5,0,2.1l-1.2,1.2c0.4,0.5,0.9,0.9,1.5,0.9
			c1.1,0,2-1.1,2-2.5C16,7.1,15.1,6,14,6z"/>
	</g>
	<g class="st1">
		<path class="st2" d="M8.8,7.7C8.1,7.8,7.3,7.9,6.5,7.9C5,7.9,3.7,7.6,2.8,7.2C2.7,7.1,2.5,7,2.4,6.9C1.8,6.5,1.5,6,1.5,5.4
			C1.5,4,3.6,3,6.3,2.9L5.3,4C3.5,4.3,2.5,4.9,2.5,5.4c0,0.2,0.2,0.5,0.6,0.7h0c0.1,0.1,0.3,0.2,0.5,0.2c0.7,0.3,1.7,0.5,2.9,0.5
			c0.7,0,1.4-0.1,2.1-0.2c0.3-0.1,0.5,0.1,0.6,0.4C9.2,7.3,9.1,7.6,8.8,7.7z"/>
	</g>
</g>
<g id="Layer_2" class="st0">
	<g class="st1">
		<path d="M6.8,1.3L6.8,1.3l6.3,3.4l-5.4,9.8l-6.3-3.4L6.8,1.3C6.8,1.3,6.8,1.3,6.8,1.3 M6.8,0.3c-0.4,0-0.7,0.2-0.9,0.5l-5.4,9.8
			c-0.3,0.5-0.1,1.1,0.4,1.4l6.3,3.4c0.2,0.1,0.3,0.1,0.5,0.1c0.4,0,0.7-0.2,0.9-0.5l5.4-9.8c0.3-0.5,0.1-1.1-0.4-1.4L7.3,0.4
			C7.1,0.3,6.9,0.3,6.8,0.3L6.8,0.3z"/>
	</g>
	<g class="st1">
		<path d="M5.7,1.9c2.2,0,3.7,1,3.7,1.6S7.9,5.1,5.7,5.1S2,4.2,2,3.5S3.4,1.9,5.7,1.9 M5.7,0.9C3.1,0.9,1,2.1,1,3.5s2.1,2.6,4.7,2.6
			s4.7-1.2,4.7-2.6S8.3,0.9,5.7,0.9L5.7,0.9z"/>
	</g>
	<g class="st1">
		<circle cx="13.8" cy="5.5" r="2.2"/>
	</g>
	<g class="st1">
		<path class="st3" d="M6.8,0.3c0.2,0,0.3,0,0.5,0.1l6.3,3.4c0.5,0.3,0.7,0.9,0.4,1.4l-5.4,9.8c-0.2,0.3-0.5,0.5-0.9,0.5
			c-0.2,0-0.3,0-0.5-0.1L0.9,12c-0.5-0.3-0.7-0.9-0.4-1.4l5.4-9.8C6.1,0.5,6.4,0.3,6.8,0.3 M6.8-0.2c-0.5,0-1.1,0.3-1.3,0.8
			l-5.4,9.8c-0.2,0.4-0.2,0.8-0.1,1.1c0.1,0.4,0.4,0.7,0.7,0.9L7,15.9c0.2,0.1,0.5,0.2,0.7,0.2c0.5,0,1.1-0.3,1.3-0.8l5.4-9.8
			c0.4-0.7,0.1-1.6-0.6-2L7.5,0C7.3-0.1,7-0.2,6.8-0.2L6.8-0.2z"/>
	</g>
</g>
<g id="Layer_2_copy">
	<path d="M13.9,5.2l-1.2,2.1L8.6,15c-0.2,0.3-0.5,0.5-0.9,0.5c-0.2,0-0.3,0-0.5-0.1L0.9,12c-0.5-0.3-0.7-0.9-0.4-1.4l2.7-4.9
		c0.3,0.1,0.6,0.2,1,0.3l-2.8,5.1l6.3,3.5L12,6.7l1-1.9l-1-0.6l-1.7-0.9l-3.6-2L6.4,2L4.7,5C4.3,5,4,4.9,3.7,4.8l1.6-2.9l0.5-1
		l0.1-0.1c0.2-0.3,0.5-0.5,0.9-0.5c0.2,0,0.3,0,0.5,0.1l5.6,3.1l0.7,0.4C14,4.1,14.2,4.8,13.9,5.2z"/>
	<g>
		<path d="M16,5.5c0,1.2-1,2.2-2.2,2.2c-0.2,0-0.4,0-0.6-0.1l1.1-2.1c0.4-0.7,0.1-1.6-0.6-2l-0.3-0.1c0.1,0,0.2,0,0.3,0
			C15,3.3,16,4.3,16,5.5z"/>
	</g>
	<path d="M9.4,5.2c0,0.5-0.4,0.9-0.9,0.9C8.2,6.1,8,6,7.8,5.8C7.2,6,6.5,6.1,5.7,6.1c-0.5,0-1,0-1.5-0.1c-0.4-0.1-0.7-0.2-1-0.3
		C3,5.7,2.9,5.6,2.7,5.5C1.7,5.1,1,4.3,1,3.5C1,2.2,2.8,1,5.3,0.9L4.7,2C3,2.2,2,3,2,3.5c0,0.4,0.5,0.8,1.3,1.2
		c0.1,0.1,0.3,0.1,0.5,0.2C4,4.9,4.3,5,4.7,5c0.3,0,0.6,0.1,1,0.1c0.8,0,1.4-0.1,2-0.3c0.1-0.3,0.4-0.6,0.8-0.6c0.1,0,0.2,0,0.3,0.1
		C9.1,4.4,9.4,4.8,9.4,5.2C9.4,5.1,9.4,5.1,9.4,5.2z"/>
</g>
</svg>
