<?xml version="1.0" encoding="utf-8"?>
<!-- Generator: Adobe Illustrator 16.0.3, SVG Export Plug-In . SVG Version: 6.00 Build 0)  -->
<!DOCTYPE svg PUBLIC "-//W3C//DTD SVG 1.1//EN" "http://www.w3.org/Graphics/SVG/1.1/DTD/svg11.dtd">
<svg version="1.1" id="Layer_3" xmlns="http://www.w3.org/2000/svg" xmlns:xlink="http://www.w3.org/1999/xlink" x="0px" y="0px"
	 width="16px" height="16px" viewBox="0 0 16 16" enable-background="new 0 0 16 16" xml:space="preserve">
<linearGradient id="SVGID_1_" gradientUnits="userSpaceOnUse" x1="7.9995" y1="1.2915" x2="7.9995" y2="14.7289">
	<stop  offset="0" style="stop-color:#808080"/>
	<stop  offset="1" style="stop-color:#4D4D4D"/>
</linearGradient>
<path fill="url(#SVGID_1_)" d="M14.5,1h-13C1.224,1,1,1.224,1,1.5v13C1,14.775,1.224,15,1.5,15h13c0.275,0,0.5-0.225,0.5-0.5v-13
	C15,1.224,14.775,1,14.5,1z M12.242,10.121l-2.123,2.121L8,10.122l-2.12,2.12l-2.122-2.121L5.878,8L3.758,5.879l2.121-2.122L8,5.879
	l2.121-2.121l2.121,2.122L10.121,8L12.242,10.121z"/>
</svg>
