<?xml version="1.0" encoding="utf-8"?>
<!-- Generator: Adobe Illustrator 16.0.3, SVG Export Plug-In . SVG Version: 6.00 Build 0)  -->
<!DOCTYPE svg PUBLIC "-//W3C//DTD SVG 1.1//EN" "http://www.w3.org/Graphics/SVG/1.1/DTD/svg11.dtd">
<svg version="1.1" id="Layer_3" xmlns="http://www.w3.org/2000/svg" xmlns:xlink="http://www.w3.org/1999/xlink" x="0px" y="0px"
	 width="16px" height="16px" viewBox="0 0 16 16" enable-background="new 0 0 16 16" xml:space="preserve">
<linearGradient id="SVGID_1_" gradientUnits="userSpaceOnUse" x1="7.9995" y1="1.2915" x2="7.9995" y2="14.7289">
	<stop  offset="0" style="stop-color:#808080"/>
	<stop  offset="1" style="stop-color:#4D4D4D"/>
</linearGradient>
<path fill="url(#SVGID_1_)" d="M14.5,1h-13C1.224,1,1,1.224,1,1.5v13C1,14.775,1.224,15,1.5,15h13c0.276,0,0.5-0.225,0.5-0.5v-13
	C15,1.224,14.776,1,14.5,1z M13,4.497L9.516,7.982L13,11.468v1.114c0,0.197-0.16,0.357-0.357,0.357h-1.201L8,9.498l-3.441,3.441
	H3.357C3.16,12.939,3,12.779,3,12.582v-1.114l3.485-3.485L3,4.498V3.297C3,3.1,3.16,2.94,3.357,2.94h1.116L8,6.467l3.527-3.527
	h1.115C12.84,2.94,13,3.1,13,3.297V4.497z"/>
</svg>
