<?xml version="1.0" encoding="utf-8"?>
<!-- Generator: Adobe Illustrator 21.0.0, SVG Export Plug-In . SVG Version: 6.00 Build 0)  -->
<svg version="1.1" id="Layer_3" xmlns="http://www.w3.org/2000/svg" xmlns:xlink="http://www.w3.org/1999/xlink" x="0px" y="0px"
	 viewBox="0 0 16 16" style="enable-background:new 0 0 16 16;" xml:space="preserve">
<style type="text/css">
	.st0{opacity:0.5;}
	.st1{fill:#666666;}
</style>
<g class="st0">
	<path class="st1" d="M2.4,2C3.7,3.1,5.7,5,8,7.3C10.3,5,12.3,3.1,13.6,2H2.4z"/>
	<path class="st1" d="M13.6,14c-1.3-1.1-3.3-3-5.6-5.3C5.7,11,3.7,12.9,2.4,14H13.6z"/>
	<path class="st1" d="M2,13.6c1.1-1.3,3-3.3,5.3-5.6C5,5.7,3.1,3.7,2,2.4V13.6z"/>
	<path class="st1" d="M8.7,8c2.3,2.3,4.2,4.3,5.3,5.6V2.4C12.9,3.7,11,5.7,8.7,8z"/>
</g>
</svg>
