<?xml version="1.0" encoding="utf-8"?>
<!-- Generator: Adobe Illustrator 16.0.3, SVG Export Plug-In . SVG Version: 6.00 Build 0)  -->
<!DOCTYPE svg PUBLIC "-//W3C//DTD SVG 1.1//EN" "http://www.w3.org/Graphics/SVG/1.1/DTD/svg11.dtd">
<svg version="1.1" id="Layer_3" xmlns="http://www.w3.org/2000/svg" xmlns:xlink="http://www.w3.org/1999/xlink" x="0px" y="0px"
	 width="16px" height="16px" viewBox="0 0 16 16" enable-background="new 0 0 16 16" xml:space="preserve">
<linearGradient id="SVGID_1_" gradientUnits="userSpaceOnUse" x1="5.4995" y1="0.229" x2="5.4995" y2="10.7871">
	<stop  offset="0" style="stop-color:#808080"/>
	<stop  offset="1" style="stop-color:#4D4D4D"/>
</linearGradient>
<path opacity="0.6" fill="url(#SVGID_1_)" d="M4,4.539C4,4.241,4.241,4,4.539,4H11V0.5C11,0.224,10.775,0,10.5,0h-10
	C0.224,0,0,0.224,0,0.5v10C0,10.775,0.224,11,0.5,11H4V4.539z"/>
<linearGradient id="SVGID_2_" gradientUnits="userSpaceOnUse" x1="10.5" y1="5.229" x2="10.5" y2="15.7871">
	<stop  offset="0" style="stop-color:#808080"/>
	<stop  offset="1" style="stop-color:#4D4D4D"/>
</linearGradient>
<path fill="url(#SVGID_2_)" d="M15.5,5h-10C5.224,5,5,5.224,5,5.5v10C5,15.775,5.224,16,5.5,16h10c0.275,0,0.5-0.225,0.5-0.5v-10
	C16,5.224,15.775,5,15.5,5z"/>
</svg>
