<?xml version="1.0" encoding="utf-8"?>
<!-- Generator: Adobe Illustrator 16.0.3, SVG Export Plug-In . SVG Version: 6.00 Build 0)  -->
<!DOCTYPE svg PUBLIC "-//W3C//DTD SVG 1.1//EN" "http://www.w3.org/Graphics/SVG/1.1/DTD/svg11.dtd">
<svg version="1.1" id="Layer_3" xmlns="http://www.w3.org/2000/svg" xmlns:xlink="http://www.w3.org/1999/xlink" x="0px" y="0px"
	 width="16px" height="16px" viewBox="0 0 16 16" enable-background="new 0 0 16 16" xml:space="preserve">
<g>
	<g>
		<linearGradient id="SVGID_1_" gradientUnits="userSpaceOnUse" x1="7.9995" y1="3.146" x2="7.9995" y2="9.865">
			<stop  offset="0" style="stop-color:#808080"/>
			<stop  offset="1" style="stop-color:#4D4D4D"/>
		</linearGradient>
		<rect x="3" y="3" fill="url(#SVGID_1_)" width="10" height="7"/>
		<linearGradient id="SVGID_2_" gradientUnits="userSpaceOnUse" x1="7.9683" y1="1.229" x2="7.9683" y2="11.7871">
			<stop  offset="0" style="stop-color:#808080"/>
			<stop  offset="1" style="stop-color:#4D4D4D"/>
		</linearGradient>
		<path fill="url(#SVGID_2_)" d="M14.469,1h-13c-0.276,0-0.5,0.224-0.5,0.5v10c0,0.276,0.224,0.5,0.5,0.5h13
			c0.276,0,0.5-0.224,0.5-0.5v-10C14.969,1.224,14.745,1,14.469,1z M14,10.591C14,10.817,13.816,11,13.591,11H2.409
			C2.183,11,2,10.817,2,10.591V2.409C2,2.183,2.183,2,2.409,2h11.182C13.816,2,14,2.183,14,2.409V10.591z"/>
	</g>
	<g>
		<linearGradient id="SVGID_3_" gradientUnits="userSpaceOnUse" x1="7.9995" y1="13.042" x2="7.9995" y2="14.9616">
			<stop  offset="0" style="stop-color:#808080"/>
			<stop  offset="1" style="stop-color:#4D4D4D"/>
		</linearGradient>
		<path fill="url(#SVGID_3_)" d="M13,14.5c0,0.275-0.225,0.5-0.5,0.5h-9C3.225,15,3,14.775,3,14.5v-1C3,13.225,3.225,13,3.5,13h9
			c0.275,0,0.5,0.225,0.5,0.5V14.5z"/>
	</g>
</g>
</svg>
