<?xml version="1.0" encoding="utf-8"?>
<!-- Generator: Adobe Illustrator 16.0.3, SVG Export Plug-In . SVG Version: 6.00 Build 0)  -->
<!DOCTYPE svg PUBLIC "-//W3C//DTD SVG 1.1//EN" "http://www.w3.org/Graphics/SVG/1.1/DTD/svg11.dtd">
<svg version="1.1" id="Layer_3" xmlns="http://www.w3.org/2000/svg" xmlns:xlink="http://www.w3.org/1999/xlink" x="0px" y="0px"
	 width="16px" height="16px" viewBox="0 0 16 16" enable-background="new 0 0 16 16" xml:space="preserve">
<g>
	<linearGradient id="SVGID_1_" gradientUnits="userSpaceOnUse" x1="8.4321" y1="6.7871" x2="9.8672" y2="6.7871">
		<stop  offset="0" style="stop-color:#808080"/>
		<stop  offset="1" style="stop-color:#4D4D4D"/>
	</linearGradient>
	<path fill="url(#SVGID_1_)" d="M9.738,7.063C9.449,6.826,8.479,7.376,8.436,6.958c-0.05-0.481,0.463-0.414,0.543-0.503
		c-0.04,0.019-0.07,0.047-0.091,0.085C8.913,6.547,10.287,6.938,9.738,7.063C9.717,7.045,9.889,7.028,9.738,7.063z"/>
	<linearGradient id="SVGID_2_" gradientUnits="userSpaceOnUse" x1="10.373" y1="6.7627" x2="11.2061" y2="6.7627">
		<stop  offset="0" style="stop-color:#808080"/>
		<stop  offset="1" style="stop-color:#4D4D4D"/>
	</linearGradient>
	<path fill="url(#SVGID_2_)" d="M10.859,7.322c-0.186,0.018-0.229-0.389-0.071-0.411c-0.045-0.387-0.624-0.137-0.335-0.758
		c-0.031,0.073,0.753,0.823,0.753,1.106C11.111,7.364,10.995,7.385,10.859,7.322C10.738,7.334,10.977,7.426,10.859,7.322z"/>
	<linearGradient id="SVGID_3_" gradientUnits="userSpaceOnUse" x1="8.0063" y1="0.0625" x2="8.0063" y2="16.1582">
		<stop  offset="0" style="stop-color:#808080"/>
		<stop  offset="1" style="stop-color:#4D4D4D"/>
	</linearGradient>
	<path fill="url(#SVGID_3_)" d="M8.007,0C3.648,0,0.013,3.643,0.013,8s3.635,8,7.994,8S16,12.357,16,8C16,3.644,12.365,0,8.007,0z
		 M7.229,1.886C7.17,1.902,7.113,1.898,7.059,1.874c0.316,0.206-0.64,0.979-0.972,1.017C6.184,2.88,5.895,2.8,5.904,2.803
		C5.948,2.84,5.992,2.878,6.036,2.916c-0.622,0.029-1.138-0.072-1.7,0.295C3.993,3.237,4.745,2.499,4.73,2.509
		c0.276-0.197,0.617-0.393,0.903-0.544c0.227-0.121,0.495-0.512,0.748-0.512C6.485,1.557,7.342,1.577,7.229,1.886z M6.016,5.601
		C5.901,5.533,5.625,5.533,5.494,5.568c0.054,0.061,0.464-0.662,0.291-0.582c-0.319,0,0.377-0.63,0.335-0.427
		C6.077,4.585,6.04,4.617,6.007,4.655c0.056-0.011,0.104,0.001,0.146,0.038c-0.039,0.081-0.099,0.142-0.18,0.184
		C6.158,4.976,6.126,5.669,6.016,5.601C5.952,5.563,6.041,5.617,6.016,5.601z M5.335,5.005c0.092-0.024,0.082-0.318,0.246-0.202
		c0.178,0.125-0.049,0.686-0.177,0.543C5.395,5.336,5.381,4.976,5.335,5.005C5.398,4.989,5.285,5.037,5.335,5.005z M5.486,3.389
		c0.032-0.093,0.113,0.083,0.035-0.088c0.048-0.027,0.1-0.044,0.155-0.052c0.015,0.05,0.007,0.097-0.023,0.142
		c0-0.201,0.72,0.258,0.17,0.253C5.625,3.642,5.405,3.601,5.486,3.389C5.494,3.366,5.478,3.412,5.486,3.389z M6.217,1.241
		C6.391,1.194,7.136,1.02,7.021,1.417C6.959,1.626,6.125,1.511,6.217,1.241C6.264,1.229,6.196,1.303,6.217,1.241z M5.938,1.313
		C6.006,1.295,6.074,1.278,6.142,1.26C6.116,1.306,5.871,1.488,5.938,1.313C6.005,1.292,5.925,1.346,5.938,1.313z M4.423,2
		C4.86,1.737,5.399,1.486,5.894,1.328c0.058,0.247-1.207,0.723-1.215,0.777c0.052-0.047,0.098-0.099,0.138-0.157
		c-0.035-0.036-0.33,0.257-0.407,0.257c0.01-0.064,0.037-0.121,0.081-0.169c-0.066,0.062-0.135,0.12-0.207,0.176
		C4.317,2.134,4.364,2.063,4.423,2C4.575,1.908,4.353,2.085,4.423,2z M3.876,2.364c0.081,0.03,0.158,0.024,0.231-0.02
		c-0.347,0.28-0.498,0.56-0.765,0.885C3.248,3.344,2.966,3.394,2.935,3.194C3.223,2.89,3.539,2.612,3.876,2.364
		C3.897,2.436,3.538,2.613,3.876,2.364z M11.461,13.823c0.077,0.249-0.704,0.61-0.941,0.702c0.148-0.261,0.536-1.038,0.897-1.038
		C11.56,13.487,11.479,13.781,11.461,13.823C11.444,13.77,11.479,13.779,11.461,13.823z M11.07,12.022
		c-0.408,0.433-1.087,0.793-0.872,1.458c0.279,0.866-0.671,0.528-0.724,1.109c0.472,0.313-0.918,0.388-0.96,0.391
		c-0.556,0.042-1.109,0.009-1.658-0.083C6.819,14.789,6.6,14.384,6.438,14.4c-0.202-0.21,0.289-0.484,0.192-0.687
		c-0.13-0.271-0.667-0.905-0.707-1.141c0.091,0.036,0.277-0.6-0.091-0.633c-0.33-0.029-0.344-0.361-0.654-0.362
		c-0.727-0.003-1.26,0.075-1.745-0.565C2.89,10.295,2.983,10.18,3.11,9.358C3.154,9.074,3.07,8.891,3.292,8.67
		c0.212-0.211,0.842-0.485,0.913-0.737C4.431,7.124,4.985,7.77,5.321,7.6c0.228-0.114,1.62-0.155,1.214,0.37
		C6.362,8.192,7.116,8.481,7.286,8.565c0.428,0.212,0.194-0.373,0.782-0.13c0.382,0.158,0.604-0.01,0.917,0.05
		C9.063,8.5,9.233,9.044,9.287,9.121c0.222,0.316,0.525,1.269,0.827,1.399c0.236,0.101,0.512,0.532,0.685,0.571
		c0.296,0.069,0.555-0.408,0.847-0.408C11.601,11.188,11.425,11.649,11.07,12.022C10.938,12.162,11.608,11.456,11.07,12.022z
		 M14.601,8.467c-0.113,0.124,0.086,1.336-0.185,1.348c-0.169,0.006-0.654-1.042-0.713-1.19c-0.269,0.066-0.552-0.187-0.728-0.348
		c-0.287,0.083-0.535,0.274-0.829,0.344c-0.041,0.01-0.786-0.032-0.864-0.113c-0.649-0.673,0.027,0.415,0.027,0.478
		c-0.053-0.13-0.028-0.189,0.072-0.179c0.128,0.076-0.079,0.289,0.126,0.244c0.165-0.031,0.383-0.448,0.404-0.445
		c0.054,0.302,0.57,0.244,0.467,0.504c-0.046,0.115-0.108,0.557-0.244,0.594c-0.346,0.095-0.953,1.294-1.468,1.118
		c-0.3-0.1-0.924-2.097-1.293-2.097C9.353,8.807,9.33,8.89,9.309,8.973c-0.588,0,0.377-1.291,0.091-1.291
		c-0.549,0-0.741,0.339-1.087-0.276C7.974,6.806,7.985,7.598,7.938,7.789C7.738,7.681,7.681,7.709,7.894,7.6
		C7.9,7.435,6.958,6.583,7.037,6.495C6.626,6.323,7.423,7.394,7.441,7.343C7.398,7.297,7.35,7.26,7.294,7.23
		C7.289,7.238,7.248,7.678,7.141,7.588c0.015,0.013-0.498-0.863-0.508-0.93c-0.26-0.216-0.701,0.208-0.841,0.239
		C5.758,6.904,5.231,7.359,5.227,7.412C4.896,7.334,4.832,7.218,4.556,7.16c0-0.262,0.34-0.546,0.257-0.82
		c0.237,0.048,0.441,0.083,0.69,0.193c0.26-0.166-0.036-0.749-0.025-0.754c0.075-0.038,0.232,0.1,0.271,0.063
		c0-0.049,0.006-0.097,0.019-0.145c0.251-0.149,1.261-0.346,1.261-0.829c-0.46,0.658,0.408,0.308,0.549,0.417
		C7.668,5.532,8.118,4.652,8.01,4.727c-0.008,0.005,0.421-0.113,0.436-0.11c-0.01-0.054-0.668-0.01-0.614-0.05
		C7.89,4.521,7.986,3.908,8.044,3.912C7.906,3.903,7.241,5.313,7.172,5.183C7.14,5.119,7.068,4.697,7.091,4.63
		c-0.22,0.406-0.527-0.038-0.314-0.339c0.068-0.096,1.064-0.634,0.713-0.706c0.285-0.342,1.293-0.378,1.474,0.078
		C8.878,3.834,8.74,3.869,8.549,3.767c0.061,0.15,0.166,0.257,0.314,0.32c-0.021-0.052-0.048-0.1-0.082-0.145
		C8.84,3.958,8.899,3.967,8.96,3.971C8.999,3.93,9.098,3.784,9.136,3.745c0.007-0.007-0.102-0.261-0.132-0.268
		c0.12-0.038,0.599-0.281,0.747-0.247C9.687,3.179,9.624,3.127,9.563,3.073c0.177,0.034,0.355,0.047,0.536,0.041
		c0.008-0.084-0.44-0.281-0.411-0.5C9.78,2.606,9.854,2.642,9.908,2.721c0.028-0.063,0.005-0.108-0.069-0.135
		c0.098-0.049,0.202-0.068,0.313-0.06c-0.071,0.141-0.458-0.762-0.445-0.772c0.187-0.165,0.296-0.064,0.57-0.041
		c0.122-0.186-0.108-0.219-0.071-0.295c0.118-0.257,1.929,0.937,2.115,1.084c0.718,0.564,1.323,1.269,1.773,2.063
		c0.46,0.814,0.754,1.719,0.858,2.648C14.932,7.196,14.518,8.266,14.601,8.467C14.541,8.532,14.551,8.347,14.601,8.467z"/>
</g>
</svg>
