<?xml version="1.0" encoding="utf-8"?>
<!-- Generator: Adobe Illustrator 16.0.3, SVG Export Plug-In . SVG Version: 6.00 Build 0)  -->
<!DOCTYPE svg PUBLIC "-//W3C//DTD SVG 1.1//EN" "http://www.w3.org/Graphics/SVG/1.1/DTD/svg11.dtd">
<svg version="1.1" id="Layer_3" xmlns="http://www.w3.org/2000/svg" xmlns:xlink="http://www.w3.org/1999/xlink" x="0px" y="0px"
	 width="16px" height="16px" viewBox="0 0 16 16" enable-background="new 0 0 16 16" xml:space="preserve">
<g>
	<linearGradient id="SVGID_1_" gradientUnits="userSpaceOnUse" x1="1.6133" y1="4.5" x2="14.3284" y2="4.5">
		<stop  offset="0" style="stop-color:#000000;stop-opacity:0.7"/>
		<stop  offset="1" style="stop-color:#000000;stop-opacity:0"/>
	</linearGradient>
	<rect x="0.5" y="1.5" fill="url(#SVGID_1_)" width="15" height="6"/>
	<path fill="#4C4C4C" d="M15,2v5H1V2H15 M15.5,1h-15C0.224,1,0,1.224,0,1.5v6C0,7.776,0.224,8,0.5,8h15C15.776,8,16,7.776,16,7.5v-6
		C16,1.224,15.776,1,15.5,1L15.5,1z"/>
</g>
<linearGradient id="SVGID_2_" gradientUnits="userSpaceOnUse" x1="2.5" y1="9.1426" x2="2.5" y2="15.8639">
	<stop  offset="0" style="stop-color:#000000"/>
	<stop  offset="1" style="stop-color:#000000"/>
</linearGradient>
<path opacity="0.7" fill="url(#SVGID_2_)" d="M5,15.5C5,15.776,4.776,16,4.5,16h-4C0.224,16,0,15.776,0,15.5v-3.506
	c0-0.138,2.5-2.997,2.5-2.997S5,11.855,5,11.994V15.5z"/>
<g opacity="0.7">
	<path d="M13.5,10.522c0.644,0.745,1.232,1.443,1.5,1.781V15h-3v-2.695C12.268,11.966,12.857,11.269,13.5,10.522 M13.5,8.998
		c0,0-2.5,2.859-2.5,2.997V15.5c0,0.276,0.224,0.5,0.5,0.5h4c0.276,0,0.5-0.224,0.5-0.5v-3.506C16,11.855,13.5,8.998,13.5,8.998
		L13.5,8.998z"/>
</g>
</svg>
