<?xml version="1.0" encoding="utf-8"?>
<!-- Generator: Adobe Illustrator 21.0.0, SVG Export Plug-In . SVG Version: 6.00 Build 0)  -->
<svg version="1.1" id="Layer_1" xmlns="http://www.w3.org/2000/svg" xmlns:xlink="http://www.w3.org/1999/xlink" x="0px" y="0px"
	 viewBox="0 0 160 160" style="enable-background:new 0 0 160 160;" xml:space="preserve">
<style type="text/css">
	.st0{fill:none;stroke:#231F20;stroke-width:10;stroke-linecap:round;stroke-linejoin:round;stroke-miterlimit:10;}
	.st1{fill:#231F20;}
</style>
<polygon class="st0" points="155,119.5 130,85 105,119.5 105,155 155,155 "/>
<polygon class="st0" points="55,119.5 30,85 5,119.5 5,155 55,155 "/>
<g>
	<path class="st1" d="M150,20v50H10V20H150 M153.1,10H6.9C3.1,10,0,13.1,0,16.9v56.1C0,76.9,3.1,80,6.9,80h146.1
		c3.8,0,6.9-3.1,6.9-6.9V16.9C160,13.1,156.9,10,153.1,10L153.1,10z"/>
</g>
</svg>
