<?xml version="1.0" encoding="utf-8"?>
<!-- Generator: Adobe Illustrator 20.1.0, SVG Export Plug-In . SVG Version: 6.00 Build 0)  -->
<svg version="1.1" id="Layer_3" xmlns="http://www.w3.org/2000/svg" xmlns:xlink="http://www.w3.org/1999/xlink" x="0px" y="0px"
	 viewBox="0 0 16 16" style="enable-background:new 0 0 16 16;" xml:space="preserve">
<style type="text/css">
	.st0{fill:#4C4C4C;}
</style>
<rect x="3" y="9" transform="matrix(6.123234e-17 -1 1 6.123234e-17 -8 18)" class="st0" width="4" height="8"/>
<rect x="3" y="4" transform="matrix(6.123234e-17 -1 1 6.123234e-17 -3 13)" class="st0" width="4" height="8"/>
<rect x="3" y="-1" transform="matrix(6.123234e-17 -1 1 6.123234e-17 2 8)" class="st0" width="4" height="8"/>
<rect x="3.5" y="7.5" transform="matrix(6.123234e-17 -1 1 6.123234e-17 2.5 18.5)" class="st0" width="14" height="1"/>
<rect x="11.5" y="6.5" transform="matrix(6.123234e-17 -1 1 6.123234e-17 5.5 21.5)" class="st0" width="4" height="3"/>
</svg>
