<?xml version="1.0" encoding="utf-8"?>
<!-- Generator: Adobe Illustrator 21.0.0, SVG Export Plug-In . SVG Version: 6.00 Build 0)  -->
<svg version="1.1" id="Layer_1" xmlns="http://www.w3.org/2000/svg" xmlns:xlink="http://www.w3.org/1999/xlink" x="0px" y="0px"
	 viewBox="0 0 160 160" style="enable-background:new 0 0 160 160;" xml:space="preserve">
<style type="text/css">
	.st0{fill:#231F20;}
	.st1{fill:none;stroke:#231F20;stroke-width:10;stroke-linecap:round;stroke-linejoin:round;stroke-miterlimit:10;}
</style>
<g>
	<path class="st0" d="M60,20v20H10V20H60 M61.4,10H8.6C3.8,10,0,13.8,0,18.6v22.9C0,46.2,3.8,50,8.6,50h52.9c4.7,0,8.6-3.8,8.6-8.6
		V18.6C70,13.8,66.2,10,61.4,10L61.4,10z"/>
</g>
<g>
	<path class="st0" d="M60,70v20H10V70H60 M61.4,60H8.6C3.8,60,0,63.8,0,68.6v22.9c0,4.7,3.8,8.6,8.6,8.6h52.9c4.7,0,8.6-3.8,8.6-8.6
		V68.6C70,63.8,66.2,60,61.4,60L61.4,60z"/>
</g>
<g>
	<path class="st0" d="M150,70v20h-40V70H150 M151.4,60h-42.9c-4.7,0-8.6,3.8-8.6,8.6v22.9c0,4.7,3.8,8.6,8.6,8.6h42.9
		c4.7,0,8.6-3.8,8.6-8.6V68.6C160,63.8,156.2,60,151.4,60L151.4,60z"/>
</g>
<g>
	<path class="st0" d="M60,120v20H10v-20H60 M61.4,110H8.6c-4.7,0-8.6,3.8-8.6,8.6v22.9c0,4.7,3.8,8.6,8.6,8.6h52.9
		c4.7,0,8.6-3.8,8.6-8.6v-22.9C70,113.8,66.2,110,61.4,110L61.4,110z"/>
</g>
<line class="st1" x1="85" y1="5" x2="85" y2="155"/>
</svg>
