<?xml version="1.0" encoding="utf-8"?>
<!-- Generator: Adobe Illustrator 16.0.3, SVG Export Plug-In . SVG Version: 6.00 Build 0)  -->
<!DOCTYPE svg PUBLIC "-//W3C//DTD SVG 1.1//EN" "http://www.w3.org/Graphics/SVG/1.1/DTD/svg11.dtd">
<svg version="1.1" id="Layer_2" xmlns="http://www.w3.org/2000/svg" xmlns:xlink="http://www.w3.org/1999/xlink" x="0px" y="0px"
	 width="16px" height="16px" viewBox="0 0 16 16" enable-background="new 0 0 16 16" xml:space="preserve">
<g opacity="0.5">
	<animateTransform attributeType="xml"
	                  attributeName="transform"
	                  type="rotate"
	                  values="0 8 8; 360 8 8"
	                  dur="1.5s"
	                  repeatCount="indefinite"/>
	<g>
		<circle cx="9.734" cy="3.219" r="1.875"/>
		<path fill="#FFFFFF" d="M9.734,1.469c0.965,0,1.75,0.785,1.75,1.75s-0.785,1.75-1.75,1.75c-0.965,0-1.75-0.785-1.75-1.75
			S8.769,1.469,9.734,1.469 M9.734,1.219c-1.105,0-2,0.896-2,2s0.896,2,2,2c1.104,0,2-0.896,2-2S10.839,1.219,9.734,1.219
			L9.734,1.219z"/>
	</g>
	<g>
		<circle cx="4.686" cy="3.5" r="1.375"/>
		<path fill="#FFFFFF" d="M4.686,2.25c0.689,0,1.25,0.561,1.25,1.25s-0.561,1.25-1.25,1.25s-1.25-0.561-1.25-1.25
			S3.997,2.25,4.686,2.25 M4.686,2c-0.828,0-1.5,0.672-1.5,1.5S3.858,5,4.686,5c0.829,0,1.5-0.672,1.5-1.5S5.515,2,4.686,2L4.686,2z
			"/>
	</g>
	<g>
		<circle cx="2.17" cy="6.228" r="0.875"/>
		<path fill="#FFFFFF" d="M2.17,5.478c0.414,0,0.75,0.336,0.75,0.75s-0.336,0.75-0.75,0.75c-0.414,0-0.75-0.336-0.75-0.75
			S1.756,5.478,2.17,5.478 M2.17,5.228c-0.552,0-1,0.448-1,1s0.448,1,1,1s1-0.448,1-1S2.722,5.228,2.17,5.228L2.17,5.228z"/>
	</g>
	<g>
		<circle cx="1.444" cy="8.653" r="0.375"/>
		<path fill="#FFFFFF" d="M1.444,8.403c0.138,0,0.25,0.112,0.25,0.25s-0.112,0.25-0.25,0.25c-0.138,0-0.25-0.112-0.25-0.25
			S1.307,8.403,1.444,8.403 M1.444,8.153c-0.276,0-0.5,0.224-0.5,0.5s0.224,0.5,0.5,0.5s0.5-0.224,0.5-0.5S1.72,8.153,1.444,8.153
			L1.444,8.153z"/>
	</g>
</g>
</svg>
