<?xml version="1.0" encoding="utf-8"?>
<!-- Generator: Adobe Illustrator 21.0.0, SVG Export Plug-In . SVG Version: 6.00 Build 0)  -->
<svg version="1.1" id="Layer_1" xmlns="http://www.w3.org/2000/svg" xmlns:xlink="http://www.w3.org/1999/xlink" x="0px" y="0px"
	 viewBox="0 0 160 160" style="enable-background:new 0 0 160 160;" xml:space="preserve">
<style type="text/css">
	.st0{fill:#231F20;}
</style>
<g>
	<path class="st0" d="M80,0C46.9,0,20,26.9,20,60c0,12.8,4,24.7,10.9,34.4c0,0.1,0.1,0.1,0.1,0.2l44.5,62.7l0.4,0.6
		c0.4,0.5,0.8,1,1.3,1.3c0.4,0.2,0.8,0.4,1.2,0.6h0.1c0.5,0.1,1,0.2,1.5,0.2s1-0.1,1.5-0.2h0.1c0.4-0.2,0.8-0.4,1.2-0.6
		c0-0.1,0.1-0.1,0.1-0.1c0.7-0.5,1.2-1.1,1.6-1.8L129,94.6c0-0.1,0.1-0.1,0.1-0.2C136,84.7,140,72.8,140,60C140,26.9,113.1,0,80,0z
		 M120.9,88.8L101.6,116L80,146.3L58.4,116L39.1,88.8C33.4,80.6,30,70.7,30,60c0-27.6,22.4-50,50-50s50,22.4,50,50
		C130,70.7,126.6,80.6,120.9,88.8z"/>
</g>
<g>
	<path class="st0" d="M80,40c11,0,20,9,20,20s-9,20-20,20s-20-9-20-20S69,40,80,40 M80,30c-16.6,0-30,13.4-30,30s13.4,30,30,30
		s30-13.4,30-30S96.6,30,80,30L80,30z"/>
</g>
</svg>
