<?xml version="1.0" encoding="utf-8"?>
<!-- Generator: Adobe Illustrator 21.0.0, SVG Export Plug-In . SVG Version: 6.00 Build 0)  -->
<svg version="1.1" id="Layer_1" xmlns="http://www.w3.org/2000/svg" xmlns:xlink="http://www.w3.org/1999/xlink" x="0px" y="0px"
	 viewBox="0 0 160 160" style="enable-background:new 0 0 160 160;" xml:space="preserve">
<style type="text/css">
	.st0{fill:#231F20;}
</style>
<g>
	<path class="st0" d="M150,80v70H10V80H150 M152.3,70H7.7C3.4,70,0,73.4,0,77.7v74.7c0,4.2,3.4,7.7,7.7,7.7h144.7
		c4.2,0,7.7-3.4,7.7-7.7V77.7C160,73.4,156.6,70,152.3,70L152.3,70z"/>
</g>
<path class="st0" d="M140,60h-10c0-3.4-0.3-6.8-1-10c-4.6-22.8-24.8-40-49-40c-13.8,0-26.3,5.6-35.4,14.6l-7-7.1
	C48.4,6.7,63.4,0,80,0c29.7,0,54.4,21.6,59.1,50L140,60z"/>
</svg>
