<?xml version="1.0" encoding="utf-8"?>
<!-- Generator: Adobe Illustrator 16.0.3, SVG Export Plug-In . SVG Version: 6.00 Build 0)  -->
<!DOCTYPE svg PUBLIC "-//W3C//DTD SVG 1.1//EN" "http://www.w3.org/Graphics/SVG/1.1/DTD/svg11.dtd">
<svg version="1.1" id="Layer_3" xmlns="http://www.w3.org/2000/svg" xmlns:xlink="http://www.w3.org/1999/xlink" x="0px" y="0px"
	 width="16px" height="16px" viewBox="0 0 16 16" enable-background="new 0 0 16 16" xml:space="preserve">
<g>
	<linearGradient id="SVGID_1_" gradientUnits="userSpaceOnUse" x1="7.9995" y1="8.146" x2="7.9995" y2="14.865">
		<stop  offset="0" style="stop-color:#000000;stop-opacity:0.5"/>
		<stop  offset="1" style="stop-color:#000000;stop-opacity:0.7"/>
	</linearGradient>
	<path fill="url(#SVGID_1_)" d="M15,14.5c0,0.276-0.224,0.5-0.5,0.5h-13C1.224,15,1,14.776,1,14.5v-6C1,8.224,1.224,8,1.5,8h13
		C14.776,8,15,8.224,15,8.5V14.5z"/>
	<g>
		<linearGradient id="SVGID_2_" gradientUnits="userSpaceOnUse" x1="7.9995" y1="-0.0313" x2="7.9995" y2="7.4068">
			<stop  offset="0" style="stop-color:#000000;stop-opacity:0.5"/>
			<stop  offset="1" style="stop-color:#000000;stop-opacity:0.7"/>
		</linearGradient>
		<path fill="url(#SVGID_2_)" d="M4.998,7L4.995,3.041C5.096,2.754,6.174,2,8,2c1.826,0,2.904,0.754,3,1v4h2V3c0-1.657-2.238-3-5-3
			S3,1.343,3,3v4H4.998z"/>
	</g>
</g>
</svg>
