<?xml version="1.0" encoding="utf-8"?>
<!-- Generator: Adobe Illustrator 16.0.3, SVG Export Plug-In . SVG Version: 6.00 Build 0)  -->
<!DOCTYPE svg PUBLIC "-//W3C//DTD SVG 1.1//EN" "http://www.w3.org/Graphics/SVG/1.1/DTD/svg11.dtd">
<svg version="1.1" id="Layer_3" xmlns="http://www.w3.org/2000/svg" xmlns:xlink="http://www.w3.org/1999/xlink" x="0px" y="0px"
	 width="16px" height="16px" viewBox="0 0 16 16" enable-background="new 0 0 16 16" xml:space="preserve">
<g opacity="0.7">
	<linearGradient id="SVGID_1_" gradientUnits="userSpaceOnUse" x1="7.9995" y1="8.146" x2="7.9995" y2="14.865">
		<stop  offset="0" style="stop-color:#000000;stop-opacity:0.5"/>
		<stop  offset="1" style="stop-color:#000000;stop-opacity:0.7"/>
	</linearGradient>
	<path fill="url(#SVGID_1_)" d="M15,14.5c0,0.276-0.224,0.5-0.5,0.5h-13C1.224,15,1,14.776,1,14.5v-6C1,8.224,1.224,8,1.5,8h13
		C14.776,8,15,8.224,15,8.5V14.5z"/>
	<g>
		<linearGradient id="SVGID_2_" gradientUnits="userSpaceOnUse" x1="10.2568" y1="-1.0352" x2="10.2568" y2="7.465">
			<stop  offset="0" style="stop-color:#000000;stop-opacity:0.5"/>
			<stop  offset="1" style="stop-color:#000000;stop-opacity:0.7"/>
		</linearGradient>
		<path fill="url(#SVGID_2_)" d="M9.723,1.028c0.274-0.131,1.57,0.098,2.86,1.389c1.291,1.291,1.521,2.587,1.414,2.828L12.243,7
			h2.828l0.34-0.34c1.172-1.172,0.539-3.704-1.414-5.657C12.046-0.95,9.513-1.583,8.341-0.412L4.513,3.417L5.925,4.83L9.723,1.028z"
			/>
	</g>
</g>
</svg>
