<?xml version="1.0" encoding="utf-8"?>
<!-- Generator: Adobe Illustrator 16.0.3, SVG Export Plug-In . SVG Version: 6.00 Build 0)  -->
<!DOCTYPE svg PUBLIC "-//W3C//DTD SVG 1.1//EN" "http://www.w3.org/Graphics/SVG/1.1/DTD/svg11.dtd">
<svg version="1.1" id="Layer_3" xmlns="http://www.w3.org/2000/svg" xmlns:xlink="http://www.w3.org/1999/xlink" x="0px" y="0px"
	 width="16px" height="16px" viewBox="0 0 16 16" enable-background="new 0 0 16 16" xml:space="preserve">
<linearGradient id="SVGID_1_" gradientUnits="userSpaceOnUse" x1="7.9995" y1="1.0835" x2="7.9995" y2="4.9226">
	<stop  offset="0" style="stop-color:#808080"/>
	<stop  offset="1" style="stop-color:#4D4D4D"/>
</linearGradient>
<polygon fill="url(#SVGID_1_)" points="15,2 5,2 5,1 3,1 3,2 1,2 1,4 3,4 3,5 5,5 5,4 15,4 "/>
<linearGradient id="SVGID_2_" gradientUnits="userSpaceOnUse" x1="7.9995" y1="6.0835" x2="7.9995" y2="9.9231">
	<stop  offset="0" style="stop-color:#808080"/>
	<stop  offset="1" style="stop-color:#4D4D4D"/>
</linearGradient>
<polygon fill="url(#SVGID_2_)" points="15,7 12,7 12,6 10,6 10,7 1,7 1,9 10,9 10,10 12,10 12,9 15,9 "/>
<linearGradient id="SVGID_3_" gradientUnits="userSpaceOnUse" x1="7.9995" y1="11.083" x2="7.9995" y2="14.9221">
	<stop  offset="0" style="stop-color:#808080"/>
	<stop  offset="1" style="stop-color:#4D4D4D"/>
</linearGradient>
<polygon fill="url(#SVGID_3_)" points="15,12 8,12 8,11 6,11 6,12 1,12 1,14 6,14 6,15 8,15 8,14 15,14 "/>
</svg>
