<?xml version="1.0" encoding="utf-8"?>
<!-- Generator: Adobe Illustrator 16.0.3, SVG Export Plug-In . SVG Version: 6.00 Build 0)  -->
<!DOCTYPE svg PUBLIC "-//W3C//DTD SVG 1.1//EN" "http://www.w3.org/Graphics/SVG/1.1/DTD/svg11.dtd">
<svg version="1.1" id="Layer_3" xmlns="http://www.w3.org/2000/svg" xmlns:xlink="http://www.w3.org/1999/xlink" x="0px" y="0px"
	 width="16px" height="16px" viewBox="0 0 16 16" enable-background="new 0 0 16 16" xml:space="preserve">
<linearGradient id="SVGID_1_" gradientUnits="userSpaceOnUse" x1="4" y1="1.2085" x2="4" y2="14.876">
	<stop  offset="0" style="stop-color:#808080"/>
	<stop  offset="1" style="stop-color:#4D4D4D"/>
</linearGradient>
<path fill="url(#SVGID_1_)" d="M1.5,15C1.224,15,1,14.776,1,14.5v-13C1,1.224,1.224,1,1.5,1h5C6.777,1,7,1.224,7,1.5v13
	C7,14.776,6.777,15,6.5,15H1.5z"/>
<linearGradient id="SVGID_2_" gradientUnits="userSpaceOnUse" x1="12" y1="1.2085" x2="12" y2="14.876">
	<stop  offset="0" style="stop-color:#808080"/>
	<stop  offset="1" style="stop-color:#4D4D4D"/>
</linearGradient>
<path fill="url(#SVGID_2_)" d="M9.5,15C9.224,15,9,14.776,9,14.5v-13C9,1.224,9.224,1,9.5,1h5C14.777,1,15,1.224,15,1.5v13
	c0,0.276-0.223,0.5-0.5,0.5H9.5z"/>
</svg>
