<?xml version="1.0" encoding="utf-8"?>
<!-- Generator: Adobe Illustrator 16.0.3, SVG Export Plug-In . SVG Version: 6.00 Build 0)  -->
<!DOCTYPE svg PUBLIC "-//W3C//DTD SVG 1.1//EN" "http://www.w3.org/Graphics/SVG/1.1/DTD/svg11.dtd">
<svg version="1.1" id="Layer_3" xmlns="http://www.w3.org/2000/svg" xmlns:xlink="http://www.w3.org/1999/xlink" x="0px" y="0px"
	 width="128.001px" height="128px" viewBox="-959.495 540.506 128.001 128" enable-background="new -959.495 540.506 128.001 128"
	 xml:space="preserve">
<g>
	<path opacity="0.3" fill="#4D4D4D" enable-background="new    " d="M-875.494,644.506h-16v-36l32.001-36h-14.626l7.797-7.805
		c1.547-1.551,1.547-4.102,0-5.652c-1.547-1.553-4.109-1.555-5.656,0l-13.453,13.457h-46.063l32.001,36v36h-16c-2.199,0-4,1.797-4,4
		s1.802,4,4,4h40c2.202,0,3.999-1.797,3.999-4S-873.291,644.506-875.494,644.506z"/>
	<polygon opacity="0.3" fill="#4D4D4D" enable-background="new    " points="-959.495,540.506 -927.495,540.506 -927.495,548.506 
		-951.495,548.506 -951.495,572.506 -959.495,572.506 	"/>
	<polygon opacity="0.3" fill="#4D4D4D" enable-background="new    " points="-959.495,668.506 -959.495,636.506 -951.495,636.506 
		-951.495,660.506 -927.495,660.506 -927.495,668.506 	"/>
	<polygon opacity="0.3" fill="#4D4D4D" enable-background="new    " points="-831.494,668.506 -863.493,668.506 -863.493,660.506 
		-839.494,660.506 -839.494,636.506 -831.494,636.506 	"/>
	<polygon opacity="0.3" fill="#4D4D4D" enable-background="new    " points="-831.494,540.506 -831.494,572.506 -839.494,572.506 
		-839.494,548.506 -863.493,548.506 -863.493,540.506 	"/>
</g>
</svg>
