<?xml version="1.0" encoding="utf-8"?>
<!-- Generator: Adobe Illustrator 21.0.0, SVG Export Plug-In . SVG Version: 6.00 Build 0)  -->
<svg version="1.1" id="Layer_1" xmlns="http://www.w3.org/2000/svg" xmlns:xlink="http://www.w3.org/1999/xlink" x="0px" y="0px"
	 viewBox="0 0 160 160" style="enable-background:new 0 0 160 160;" xml:space="preserve">
<style type="text/css">
	.st0{fill:#231F20;}
</style>
<g>
	<path class="st0" d="M112.9,21.7c-1.3,0-2.6,0.5-3.5,1.5L92.6,40H35l40,45v45H55c-2.8,0-5,2.2-5,5s2.2,5,5,5h50c2.8,0,5-2.2,5-5
		s-2.2-5-5-5H85V85l40-45h-18.2l9.7-9.7c1.9-2,1.9-5.2,0-7.1C115.5,22.2,114.2,21.7,112.9,21.7L112.9,21.7z"/>
</g>
<g>
	<polygon class="st0" points="40,0 0,0 0,40 10,40 10,10 40,10 	"/>
</g>
<g>
	<polygon class="st0" points="10,120 0,120 0,160 40,160 40,150 10,150 	"/>
</g>
<g>
	<polygon class="st0" points="160,120 150,120 150,150 120,150 120,160 160,160 	"/>
</g>
<g>
	<polygon class="st0" points="160,0 120,0 120,10 150,10 150,40 160,40 	"/>
</g>
</svg>
