<?xml version="1.0" encoding="utf-8"?>
<!-- Generator: Adobe Illustrator 16.0.3, SVG Export Plug-In . SVG Version: 6.00 Build 0)  -->
<!DOCTYPE svg PUBLIC "-//W3C//DTD SVG 1.1//EN" "http://www.w3.org/Graphics/SVG/1.1/DTD/svg11.dtd">
<svg version="1.1" id="Layer_3" xmlns="http://www.w3.org/2000/svg" xmlns:xlink="http://www.w3.org/1999/xlink" x="0px" y="0px"
	 width="16px" height="16px" viewBox="0 0 16 16" enable-background="new 0 0 16 16" xml:space="preserve">
<path opacity="0.3" fill="#4D4D4D" d="M10.5,13h-2V8.5l4-4.5h-1.828l0.975-0.975c0.193-0.194,0.193-0.513,0-0.707
	c-0.194-0.194-0.514-0.194-0.707,0L9.258,4H3.5l4,4.5V13h-2C5.225,13,5,13.225,5,13.5S5.225,14,5.5,14h5c0.275,0,0.5-0.225,0.5-0.5
	S10.775,13,10.5,13z"/>
<polygon opacity="0.3" fill="#4D4D4D" points="0,0 4,0 4,1 1,1 1,4 0,4 "/>
<polygon opacity="0.3" fill="#4D4D4D" points="0,16 0,12 1,12 1,15 4,15 4,16 "/>
<polygon opacity="0.3" fill="#4D4D4D" points="16,16 12,16 12,15 15,15 15,12 16,12 "/>
<polygon opacity="0.3" fill="#4D4D4D" points="16,0 16,4 15,4 15,1 12,1 12,0 "/>
</svg>
