<?xml version="1.0" encoding="utf-8"?>
<!-- Generator: Adobe Illustrator 16.0.3, SVG Export Plug-In . SVG Version: 6.00 Build 0)  -->
<!DOCTYPE svg PUBLIC "-//W3C//DTD SVG 1.1//EN" "http://www.w3.org/Graphics/SVG/1.1/DTD/svg11.dtd">
<svg version="1.1" id="Layer_3" xmlns="http://www.w3.org/2000/svg" xmlns:xlink="http://www.w3.org/1999/xlink" x="0px" y="0px"
	 width="16px" height="16px" viewBox="0 0 16 16" enable-background="new 0 0 16 16" xml:space="preserve">
<linearGradient id="SVGID_1_" gradientUnits="userSpaceOnUse" x1="7.9995" y1="4.125" x2="7.9995" y2="15.0156">
	<stop  offset="0" style="stop-color:#808080"/>
	<stop  offset="1" style="stop-color:#4D4D4D"/>
</linearGradient>
<path fill="url(#SVGID_1_)" d="M15,14.5c0,0.276-0.224,0.5-0.5,0.5h-13C1.224,15,1,14.776,1,14.5v-10C1,4.224,1.224,4,1.5,4H7l2,2
	h5.5C14.776,6,15,6.224,15,6.5V14.5z"/>
<linearGradient id="SVGID_2_" gradientUnits="userSpaceOnUse" x1="7.9995" y1="1.0454" x2="7.9995" y2="5.0055">
	<stop  offset="0" style="stop-color:#808080"/>
	<stop  offset="1" style="stop-color:#4D4D4D"/>
</linearGradient>
<polygon fill="url(#SVGID_2_)" points="7,3 7.414,3 7.707,3.293 9.414,5 14,5 14,1 2,1 2,3 "/>
</svg>
