<?xml version="1.0" encoding="utf-8"?>
<!-- Generator: Adobe Illustrator 21.0.0, SVG Export Plug-In . SVG Version: 6.00 Build 0)  -->
<svg version="1.1" id="Layer_1" xmlns="http://www.w3.org/2000/svg" xmlns:xlink="http://www.w3.org/1999/xlink" x="0px" y="0px"
	 viewBox="0 0 160 160" style="enable-background:new 0 0 160 160;" xml:space="preserve">
<style type="text/css">
	.st0{fill:none;stroke:#231F20;stroke-width:10;stroke-linecap:round;stroke-linejoin:round;stroke-miterlimit:10;}
</style>
<path class="st0" d="M45,70V25c0-5.5,4.5-10,10-10h0c5.5,0,10,4.5,10,10v50V15c0-5.5,4.5-10,10-10h0c5.5,0,10,4.5,10,10v60V25
	c0-5.5,4.5-10,10-10h0c5.5,0,10,4.5,10,10v60V45c0-5.5,4.5-10,10-10h0c5.5,0,10,4.5,10,10v54.6c0,18.3-6.7,33.2-15,42.9
	S76.7,155,61.3,155C36,155,25,115,25,105s0-30,0-30c0-15.1,14.5-20,20-20l0,50V70z"/>
</svg>
