<?xml version="1.0" encoding="utf-8"?>
<!-- Generator: Adobe Illustrator 16.0.3, SVG Export Plug-In . SVG Version: 6.00 Build 0)  -->
<!DOCTYPE svg PUBLIC "-//W3C//DTD SVG 1.1//EN" "http://www.w3.org/Graphics/SVG/1.1/DTD/svg11.dtd">
<svg version="1.1" id="Layer_3" xmlns="http://www.w3.org/2000/svg" xmlns:xlink="http://www.w3.org/1999/xlink" x="0px" y="0px"
	 width="16px" height="16px" viewBox="0 0 16 16" enable-background="new 0 0 16 16" xml:space="preserve">
<linearGradient id="SVGID_1_" gradientUnits="userSpaceOnUse" x1="7.9995" y1="2.2813" x2="7.9995" y2="15.2388">
	<stop  offset="0" style="stop-color:#808080"/>
	<stop  offset="1" style="stop-color:#4D4D4D"/>
</linearGradient>
<path fill="url(#SVGID_1_)" d="M13,5v2l-1-0.5V4l-1-1h-1v2.5L9,5V2H8H7v3L6,5.5V3H5L4,4v2.5L3,7l0,0H2L1,8l0,0c0,0,0,1.906,0,3
	c0,2.75,3,3.406,3,4.5c0,0,2.432,0,4,0c1.276,0,4,0,4,0c0-1.25,3-1.313,3-6.5c0-1.281,0-3,0-3l-1-1H13z"/>
</svg>
