<?xml version="1.0" encoding="utf-8"?>
<!-- Generator: Adobe Illustrator 21.0.0, SVG Export Plug-In . SVG Version: 6.00 Build 0)  -->
<svg version="1.1" id="Layer_1" xmlns="http://www.w3.org/2000/svg" xmlns:xlink="http://www.w3.org/1999/xlink" x="0px" y="0px"
	 viewBox="0 0 160 160" style="enable-background:new 0 0 160 160;" xml:space="preserve">
<style type="text/css">
	.st0{fill:#231F20;}
</style>
<path class="st0" d="M130,40V7.3c0-4-3.3-7.3-7.3-7.3H17.3c-4,0-7.3,3.3-7.3,7.3v145.4c0,4,3.3,7.3,7.3,7.3h105.4
	c4,0,7.3-3.3,7.3-7.3V140h-10v10H20V10h100v30H130z"/>
<path class="st0" d="M144,40H76c-3.3,0-6,2.7-6,6v88c0,3.4,2.7,6,6,6h68c3.3,0,6-2.6,6-6V46C150,42.7,147.3,40,144,40z M140,130H80
	V50h60V130z"/>
<g>
	<polygon class="st0" points="100,0 40,0 40,20 100,20 100,0 	"/>
</g>
</svg>
