<?xml version="1.0" encoding="utf-8"?>
<!-- Generator: Adobe Illustrator 21.0.0, SVG Export Plug-In . SVG Version: 6.00 Build 0)  -->
<svg version="1.1" id="Layer_1" xmlns="http://www.w3.org/2000/svg" xmlns:xlink="http://www.w3.org/1999/xlink" x="0px" y="0px"
	 viewBox="0 0 160 160" style="enable-background:new 0 0 160 160;" xml:space="preserve">
<style type="text/css">
	.st0{fill:#231F20;}
</style>
<g>
	<path class="st0" d="M59.4,20c0.3,0,0.6,0.3,0.6,0.6v118.9c0,0.3-0.3,0.6-0.6,0.6H20.6c-0.3,0-0.6-0.3-0.6-0.6V20.6
		c0-0.3,0.3-0.6,0.6-0.6H59.4 M59.4,10H20.6C14.7,10,10,14.7,10,20.6v118.9c0,5.8,4.7,10.6,10.6,10.6h38.9c5.8,0,10.6-4.7,10.6-10.6
		V20.6C70,14.7,65.3,10,59.4,10L59.4,10z"/>
</g>
<g>
	<path class="st0" d="M139.4,20c0.3,0,0.6,0.3,0.6,0.6v118.9c0,0.3-0.3,0.6-0.6,0.6h-38.9c-0.3,0-0.6-0.3-0.6-0.6V20.6
		c0-0.3,0.3-0.6,0.6-0.6H139.4 M139.4,10h-38.9C94.7,10,90,14.7,90,20.6v118.9c0,5.8,4.7,10.6,10.6,10.6h38.9
		c5.8,0,10.6-4.7,10.6-10.6V20.6C150,14.7,145.3,10,139.4,10L139.4,10z"/>
</g>
</svg>
