<?xml version="1.0" encoding="utf-8"?>
<!-- Generator: Adobe Illustrator 16.0.3, SVG Export Plug-In . SVG Version: 6.00 Build 0)  -->
<!DOCTYPE svg PUBLIC "-//W3C//DTD SVG 1.1//EN" "http://www.w3.org/Graphics/SVG/1.1/DTD/svg11.dtd">
<svg version="1.1" id="Layer_3" xmlns="http://www.w3.org/2000/svg" xmlns:xlink="http://www.w3.org/1999/xlink" x="0px" y="0px"
	 width="16px" height="16px" viewBox="0 0 16 16" enable-background="new 0 0 16 16" xml:space="preserve">
<g>
	<g>
		<linearGradient id="SVGID_1_" gradientUnits="userSpaceOnUse" x1="12.4121" y1="1.0894" x2="14.7817" y2="3.4589">
			<stop  offset="0" style="stop-color:#000000;stop-opacity:0.5"/>
			<stop  offset="1" style="stop-color:#000000;stop-opacity:0.7"/>
		</linearGradient>
		<path fill="url(#SVGID_1_)" d="M15.429,0.571c-0.779-0.782-2.07-0.756-2.879,0.052c-0.811,0.811-0.615,1.6-1.248,2.232
			c-0.105,0.104-0.227,0.208-0.352,0.307l1.893,1.892c0.096-0.125,0.195-0.241,0.299-0.343c0.631-0.634,1.256-0.279,2.234-1.257
			C16.187,2.644,16.21,1.353,15.429,0.571z"/>
	</g>
	<linearGradient id="SVGID_2_" gradientUnits="userSpaceOnUse" x1="8.542" y1="3.584" x2="12.2096" y2="7.2516">
		<stop  offset="0" style="stop-color:#000000;stop-opacity:0.5"/>
		<stop  offset="1" style="stop-color:#000000;stop-opacity:0.7"/>
	</linearGradient>
	<path fill="url(#SVGID_2_)" d="M7.776,4.228C7.708,4.16,7.732,4.027,7.83,3.929l1.06-1.06c0.098-0.098,0.23-0.122,0.297-0.055
		l3.998,4c0.066,0.066,0.043,0.201-0.055,0.299l-1.059,1.06c-0.098,0.098-0.23,0.121-0.299,0.055L7.776,4.228z"/>
</g>
<g opacity="0.7">
	<path d="M7.652,6.936l0.707,0.707L9.065,8.35l-6.285,6.285c-0.118-0.051-0.37-0.197-0.793-0.621
		c-0.423-0.422-0.571-0.676-0.622-0.793L7.652,6.936 M7.652,5.809C7.473,5.81,7.295,5.878,7.16,6.013l-6.58,6.579
		c-0.612,0.613,0.063,1.492,0.7,2.129c0.46,0.461,1.048,0.941,1.569,0.941c0.2,0,0.39-0.07,0.56-0.24l6.578-6.581
		c0.137-0.135,0.203-0.313,0.205-0.492c0-0.177-0.068-0.354-0.205-0.49L9.065,6.936L8.143,6.012C8.007,5.876,7.829,5.81,7.652,5.809
		L7.652,5.809z"/>
</g>
<linearGradient id="SVGID_3_" gradientUnits="userSpaceOnUse" x1="1.1479" y1="13.708" x2="1.1479" y2="15.875">
	<stop  offset="0" style="stop-color:#000000;stop-opacity:0.5"/>
	<stop  offset="1" style="stop-color:#000000;stop-opacity:0.7"/>
</linearGradient>
<path fill="url(#SVGID_3_)" d="M0,13.499c0.005,0.52,0.482,1.103,0.94,1.56c0.398,0.398,0.891,0.812,1.354,0.916L0,16V13.499z"/>
</svg>
