<?xml version="1.0" encoding="utf-8"?>
<!-- Generator: Adobe Illustrator 21.0.0, SVG Export Plug-In . SVG Version: 6.00 Build 0)  -->
<svg version="1.1" id="Layer_1" xmlns="http://www.w3.org/2000/svg" xmlns:xlink="http://www.w3.org/1999/xlink" x="0px" y="0px"
	 viewBox="0 0 160 160" style="enable-background:new 0 0 160 160;" xml:space="preserve">
<style type="text/css">
	.st0{fill:#231F20;}
</style>
<g>
	<path class="st0" d="M91.8,11.6c-9.9,9.9-13.4,20.2-11.3,33.5c0.8,4.8-1.7,7.9-4.2,9.2c-1.6,0.9-4.1,1.3-5.7-0.3L60,43.4
		c-2-2-5.1-2-7.1,0L35.3,61.1c-2,2-2,5.1,0,7.1l10.6,10.6l-36,36c-7.4,7.4-9.1,18-5.5,27c-0.5,0.4-1.1,0.8-1.6,1.3
		c-3.9,3.9-4,10.2,0,14.1s10.3,3.9,14.1,0c0.5-0.5,0.9-1.1,1.3-1.6c9,3.6,19.7,1.8,27-5.5l36-36l10.6,10.6c2,2,5.1,2,7.1,0
		l17.7-17.7c2-2,2-5.1,0-7.1L106,89.4c-1.6-1.6-1.2-4-0.3-5.7c1.3-2.5,4.4-5.1,9.2-4.2c13.3,2.1,23.6-1.4,33.5-11.3
		c15.6-15.6,15.6-40.9,0-56.6C132.8-4,107.5-4,91.8,11.6z M74.1,107.1l-36,36c-5.9,5.9-15.3,5.9-21.2,0s-5.9-15.3,0-21.2l36-36
		L74.1,107.1z M141.3,61.1c-7.7,7.7-14.6,10.1-24.8,8.4c-8.3-1.3-16.1,2.5-19.8,9.6c-3.1,6.1-2.2,12.9,2.2,17.3l7.1,7.1l-10.6,10.6
		L45.9,64.6L56.5,54l7.1,7.1c4.4,4.4,11.2,5.3,17.3,2.2c7.1-3.7,10.9-11.5,9.6-19.8c-1.7-10.2,0.7-17.1,8.4-24.8
		c11.7-11.7,30.7-11.7,42.4,0C153.1,30.4,153,49.4,141.3,61.1z"/>
</g>
</svg>
