<?xml version="1.0" encoding="utf-8"?>
<!-- Generator: Adobe Illustrator 16.0.3, SVG Export Plug-In . SVG Version: 6.00 Build 0)  -->
<!DOCTYPE svg PUBLIC "-//W3C//DTD SVG 1.1//EN" "http://www.w3.org/Graphics/SVG/1.1/DTD/svg11.dtd">
<svg version="1.1" id="schrift-schwarz" xmlns="http://www.w3.org/2000/svg" xmlns:xlink="http://www.w3.org/1999/xlink" x="0px"
	 y="0px" width="333px" height="175px" viewBox="72.509 39.183 333 175" enable-background="new 72.509 39.183 333 175"
	 xml:space="preserve">
<image display="none" overflow="visible" enable-background="new    " width="600" height="389" xlink:href="D6332F6A.jpeg"  transform="matrix(1 0 0 1 -11.667 36.3672)">
</image>
<g>
	<g>
		<g>
			<g>
				<g opacity="0.25">
					<path d="M111.48,93.521v-19.77c0-4.997-0.22-8.337-0.652-9.928c-0.405-1.477-1.073-2.559-2.043-3.307
						c-0.969-0.747-2.151-1.11-3.613-1.11c-1.931,0-3.54,0.626-4.919,1.915c-1.403,1.312-2.396,3.175-2.952,5.538
						c-0.294,1.255-0.443,4.104-0.443,8.466V93.52H84.104V48.661h12.754v3.309c1.886-1.431,3.646-2.482,5.252-3.132
						c2.088-0.85,4.26-1.28,6.453-1.28c4.502,0,8.38,1.597,11.525,4.746c2.675,2.708,4.03,6.708,4.03,11.893v29.324H111.48z"/>
				</g>
				<path fill="#636363" d="M108.563,48.558c4.247,0,7.854,1.484,10.817,4.452c2.49,2.521,3.737,6.25,3.737,11.188v28.324H112.48
					v-18.77c0-5.114-0.23-8.511-0.688-10.19c-0.46-1.679-1.258-2.957-2.397-3.836c-1.141-0.879-2.548-1.318-4.224-1.318
					c-2.176,0-4.043,0.728-5.602,2.184c-1.559,1.457-2.639,3.47-3.243,6.04c-0.313,1.338-0.47,4.236-0.47,8.695v17.195H85.104
					v-42.86h10.754v4.392c2.438-2.055,4.646-3.485,6.628-4.288C104.464,48.96,106.49,48.558,108.563,48.558 M108.563,46.558
					c-2.323,0-4.621,0.456-6.831,1.354c-1.235,0.5-2.519,1.198-3.875,2.108v-0.359v-2h-2H85.104h-2v2V92.52v2h2h10.754h2v-2V75.325
					c0-5.339,0.227-7.427,0.417-8.239c0.509-2.166,1.405-3.86,2.662-5.035c1.185-1.106,2.57-1.645,4.236-1.645
					c1.232,0,2.215,0.295,3.003,0.903c0.791,0.61,1.344,1.52,1.689,2.78c0.28,1.032,0.616,3.549,0.616,9.662v18.77v2h2h10.637h2v-2
					V64.196c0-5.458-1.452-9.694-4.314-12.592C117.456,48.253,113.34,46.558,108.563,46.558L108.563,46.558z"/>
			</g>
			<g>
				<g opacity="0.25">
					<path d="M153.686,94.623c-6.393,0-11.926-2.306-16.447-6.854c-4.52-4.548-6.812-10.146-6.812-16.64
						c0-6.958,2.589-12.84,7.695-17.482c4.48-4.042,9.702-6.09,15.523-6.09c4.198,0,8.202,1.064,11.899,3.164
						c3.7,2.103,6.628,4.998,8.704,8.605c2.076,3.604,3.128,7.549,3.128,11.725c0,4.199-1.059,8.183-3.148,11.842
						c-2.089,3.66-4.978,6.562-8.585,8.624C162.043,93.578,158.02,94.623,153.686,94.623z M153.822,59.682
						c-3.086,0-5.579,1.039-7.622,3.177c-2.059,2.152-3.059,4.845-3.059,8.232c0,3.494,0.988,6.232,3.021,8.371
						c2.018,2.124,4.51,3.156,7.62,3.156c3.113,0,5.626-1.046,7.684-3.197c2.071-2.163,3.077-4.888,3.077-8.33
						c0-3.44-0.987-6.146-3.018-8.271C159.505,60.708,156.985,59.682,153.822,59.682z"/>
				</g>
				<path fill="#636363" d="M153.646,48.558c4.042,0,7.845,1.012,11.405,3.033c3.559,2.022,6.336,4.768,8.331,8.234
					c1.996,3.466,2.995,7.208,2.995,11.226c0,4.045-1.007,7.826-3.017,11.346c-2.009,3.52-4.745,6.27-8.213,8.252
					c-3.465,1.983-7.288,2.975-11.462,2.975c-6.146,0-11.392-2.187-15.738-6.559c-4.346-4.373-6.521-9.684-6.521-15.935
					c0-6.696,2.456-12.276,7.368-16.742C143.102,50.502,148.052,48.558,153.646,48.558 M153.782,83.617
					c3.368,0,6.17-1.167,8.406-3.506c2.237-2.337,3.354-5.344,3.354-9.021c0-3.677-1.1-6.664-3.295-8.962
					c-2.197-2.297-5.007-3.447-8.426-3.447c-3.342,0-6.124,1.162-8.345,3.486c-2.224,2.325-3.336,5.299-3.336,8.923
					c0,3.729,1.1,6.749,3.296,9.06C147.634,82.462,150.417,83.617,153.782,83.617 M153.646,46.558
					c-6.077,0-11.524,2.135-16.19,6.345c-5.329,4.845-8.028,10.976-8.028,18.227c0,6.767,2.39,12.602,7.102,17.344
					c4.716,4.744,10.488,7.149,17.157,7.149c4.51,0,8.701-1.09,12.456-3.239c3.764-2.152,6.777-5.179,8.956-8.997
					c2.176-3.811,3.28-7.961,3.28-12.337c0-4.353-1.098-8.465-3.262-12.224c-2.166-3.764-5.219-6.783-9.076-8.975
					C162.188,47.666,158.019,46.558,153.646,46.558L153.646,46.558z M153.782,81.617c-2.821,0-5.076-0.93-6.895-2.844
					c-1.848-1.944-2.746-4.457-2.746-7.682c0-3.117,0.91-5.583,2.781-7.541c1.845-1.931,4.101-2.869,6.899-2.869
					c2.875,0,5.159,0.926,6.98,2.83c1.844,1.93,2.74,4.409,2.74,7.58c0,3.172-0.916,5.67-2.799,7.637
					C158.885,80.672,156.608,81.617,153.782,81.617L153.782,81.617z"/>
			</g>
			<g>
				<g opacity="0.25">
					<path d="M238.914,93.521V70.775c0-5.76-0.888-8.233-1.631-9.294c-1.018-1.449-2.529-2.153-4.617-2.153
						c-1.638,0-3.064,0.454-4.359,1.387c-1.292,0.929-2.268,2.241-2.902,3.899c-0.663,1.735-0.999,4.616-0.999,8.563V93.52h-12.832
						V71.76c0-3.713-0.269-6.411-0.797-8.019c-0.499-1.512-1.237-2.64-2.194-3.351c-0.963-0.715-2.111-1.063-3.511-1.063
						c-1.588,0-2.99,0.459-4.288,1.403c-1.292,0.94-2.277,2.292-2.931,4.017c-0.675,1.793-1.018,4.723-1.018,8.706v20.066H184.08
						V48.661h12.754v3.535c1.463-1.287,3.044-2.311,4.723-3.056c2.366-1.05,4.976-1.583,7.756-1.583
						c2.853,0,5.468,0.712,7.773,2.116c1.896,1.156,3.5,2.759,4.784,4.778c1.615-2.038,3.533-3.651,5.719-4.808
						c2.618-1.384,5.514-2.086,8.608-2.086c3.221,0,6.104,0.766,8.565,2.275c2.475,1.518,4.284,3.537,5.378,6
						c1.079,2.438,1.604,6.217,1.604,11.554v26.133h-12.83V93.521z"/>
				</g>
				<path fill="#636363" d="M236.198,48.558c3.049,0,5.729,0.709,8.043,2.128c2.313,1.418,3.973,3.27,4.985,5.554
					c1.012,2.285,1.519,6.002,1.519,11.148v25.133h-10.832V70.775c0-4.858-0.605-8.147-1.813-9.868
					c-1.209-1.72-3.02-2.579-5.436-2.579c-1.842,0-3.486,0.525-4.943,1.575c-1.459,1.05-2.543,2.501-3.252,4.354
					c-0.707,1.852-1.064,4.824-1.064,8.922v19.342h-10.832V71.76c0-3.834-0.281-6.61-0.848-8.331c-0.567-1.72-1.416-3-2.547-3.841
					c-1.133-0.841-2.503-1.26-4.107-1.26c-1.79,0-3.415,0.531-4.876,1.595c-1.461,1.064-2.552,2.555-3.277,4.472
					c-0.722,1.916-1.083,4.937-1.083,9.06v19.066h-10.754v-42.86h10.754v4.924c1.837-2.022,3.881-3.532,6.129-4.53
					c2.246-0.997,4.696-1.497,7.351-1.497c2.681,0,5.098,0.657,7.253,1.97c2.154,1.313,3.891,3.23,5.203,5.752
					c1.707-2.521,3.805-4.438,6.287-5.752C230.54,49.215,233.257,48.558,236.198,48.558 M236.198,46.558
					c-3.259,0-6.313,0.741-9.075,2.202c-1.931,1.021-3.662,2.377-5.171,4.049c-1.223-1.636-2.676-2.972-4.343-3.988
					c-2.465-1.501-5.255-2.262-8.294-2.262c-2.921,0-5.667,0.562-8.162,1.669c-1.152,0.512-2.26,1.146-3.317,1.9v-0.466v-2h-2
					h-10.754h-2v2v42.859v2h2h10.754h2v-2V73.454c0-3.862,0.321-6.673,0.955-8.354c0.59-1.559,1.436-2.725,2.583-3.56
					c1.12-0.815,2.33-1.212,3.699-1.212c1.177,0,2.13,0.283,2.916,0.866c0.787,0.585,1.406,1.548,1.839,2.861
					c0.341,1.035,0.747,3.212,0.747,7.705v20.761v2h2h10.832h2v-2V73.179c0-4.765,0.507-7.094,0.933-8.208
					c0.571-1.492,1.406-2.619,2.551-3.443c1.12-0.807,2.354-1.199,3.775-1.199c1.763,0,2.97,0.549,3.799,1.729
					c0.541,0.77,1.449,2.929,1.449,8.718v21.745v2h2h10.832h2v-2V67.388c0-5.48-0.552-9.392-1.688-11.958
					c-1.179-2.654-3.119-4.824-5.771-6.449C242.664,47.373,239.606,46.558,236.198,46.558L236.198,46.558z"/>
			</g>
			<g>
				<g opacity="0.25">
					<path d="M279.438,94.623c-5.795,0-10.873-2.273-15.09-6.755c-4.202-4.467-6.332-10.085-6.332-16.698
						c0-6.844,2.062-12.546,6.129-16.948c4.087-4.422,9.126-6.664,14.978-6.664c2.696,0,5.266,0.518,7.635,1.54
						c1.707,0.735,3.336,1.746,4.863,3.014v-3.45h12.754v44.859h-12.754v-3.319c-1.636,1.326-3.289,2.34-4.933,3.024
						C284.468,94.153,282.029,94.623,279.438,94.623z M281.313,59.484c-3.062,0-5.533,1.05-7.554,3.21
						c-2.038,2.178-3.028,4.911-3.028,8.356c0,3.472,1.011,6.238,3.087,8.456c2.059,2.199,4.523,3.268,7.536,3.268
						c3.119,0,5.629-1.051,7.674-3.212c2.033-2.148,3.063-5.024,3.063-8.55c0-3.491-1-6.228-3.059-8.367
						C286.986,60.518,284.46,59.484,281.313,59.484z"/>
				</g>
				<path fill="#636363" d="M279.123,48.558c2.571,0,4.985,0.486,7.239,1.458c2.257,0.972,4.343,2.43,6.259,4.372v-4.727h10.754
					V92.52h-10.754v-4.53c-2.101,1.995-4.205,3.434-6.316,4.313c-2.109,0.881-4.398,1.32-6.865,1.32
					c-5.535,0-10.322-2.147-14.361-6.44c-4.039-4.294-6.061-9.632-6.061-16.013c0-6.618,1.957-12.041,5.863-16.27
					C268.789,50.672,273.537,48.558,279.123,48.558 M281.354,83.774c3.377,0,6.176-1.174,8.399-3.525
					c2.226-2.35,3.338-5.429,3.338-9.237c0-3.729-1.112-6.748-3.338-9.061c-2.225-2.31-5.037-3.467-8.44-3.467
					c-3.321,0-6.084,1.176-8.283,3.527c-2.198,2.35-3.299,5.363-3.299,9.039c0,3.703,1.119,6.75,3.356,9.14
					C275.328,82.581,278.083,83.774,281.354,83.774 M279.123,46.558c-6.142,0-11.428,2.35-15.711,6.985
					c-4.244,4.593-6.396,10.523-6.396,17.627c0,6.876,2.222,12.725,6.604,17.383c4.414,4.691,9.735,7.07,15.817,7.07
					c2.724,0,5.292-0.496,7.636-1.475c1.184-0.493,2.368-1.145,3.547-1.952v0.324v2h2h10.754h2v-2V49.661v-2h-2h-10.754h-2v2V50.1
					c-1.113-0.764-2.271-1.407-3.468-1.922C284.66,47.103,281.957,46.558,279.123,46.558L279.123,46.558z M281.354,81.774
					c-2.72,0-4.946-0.965-6.806-2.951c-1.896-2.024-2.817-4.567-2.817-7.773c0-3.179,0.901-5.689,2.759-7.672
					c1.822-1.948,4.053-2.894,6.823-2.894c2.86,0,5.151,0.934,7.001,2.854c1.869,1.943,2.777,4.453,2.777,7.673
					c0,3.308-0.912,5.879-2.789,7.862C286.457,80.826,284.184,81.774,281.354,81.774L281.354,81.774z"/>
			</g>
			<g>
				<g opacity="0.25">
					<path d="M336.267,94.623c-7.784,0-13.984-2.357-18.43-7.005c-4.432-4.633-6.678-10.141-6.678-16.37
						c0-4.312,1.092-8.34,3.248-11.973c2.162-3.635,5.215-6.53,9.074-8.604c3.848-2.066,8.201-3.113,12.941-3.113
						c4.388,0,8.395,0.89,11.91,2.646c3.527,1.765,6.451,4.307,8.688,7.557l0.628,0.911l-10.596,5.827l-0.531-0.554
						c-1.582-1.652-3.146-2.807-4.65-3.433c-1.515-0.629-3.328-0.948-5.395-0.948c-3.789,0-6.755,1.085-9.066,3.319
						c-2.303,2.222-3.422,5.003-3.422,8.503c0,3.396,1.074,6.079,3.283,8.208c2.221,2.141,5.076,3.181,8.732,3.181
						c4.537,0,7.961-1.49,10.465-4.557l0.582-0.711l10.109,6.923l-0.644,0.838C351.746,91.475,344.931,94.623,336.267,94.623z"/>
				</g>
				<path fill="#636363" d="M336.425,48.558c4.252,0,8.072,0.848,11.463,2.541c3.387,1.694,6.16,4.104,8.313,7.229l-8.953,4.924
					c-1.686-1.76-3.346-2.98-4.99-3.664c-1.643-0.683-3.567-1.024-5.776-1.024c-4.022,0-7.276,1.2-9.763,3.6
					c-2.485,2.399-3.727,5.474-3.727,9.223c0,3.645,1.195,6.621,3.59,8.928c2.394,2.308,5.533,3.461,9.426,3.461
					c4.81,0,8.56-1.641,11.24-4.924l8.48,5.807c-4.598,5.978-11.086,8.966-19.461,8.966c-7.537,0-13.438-2.231-17.707-6.696
					c-4.27-4.465-6.4-9.691-6.4-15.679c0-4.149,1.037-7.971,3.109-11.463c2.076-3.492,4.973-6.237,8.688-8.233
					C327.673,49.556,331.828,48.558,336.425,48.558 M336.425,46.558c-4.908,0-9.422,1.087-13.416,3.232
					c-4.021,2.162-7.204,5.181-9.459,8.974c-2.25,3.792-3.391,7.992-3.391,12.485c0,6.495,2.34,12.235,6.954,17.061
					c4.642,4.853,11.085,7.314,19.152,7.314c8.991,0,16.071-3.279,21.046-9.747l1.289-1.675l-1.744-1.194l-8.48-5.807l-1.517-1.038
					l-1.161,1.423c-2.304,2.819-5.474,4.189-9.691,4.189c-3.385,0-6.014-0.949-8.037-2.9c-2.006-1.931-2.979-4.38-2.979-7.488
					c0-3.214,1.02-5.76,3.114-7.784c2.117-2.045,4.856-3.039,8.373-3.039c1.933,0,3.618,0.293,5.01,0.871
					c1.376,0.572,2.827,1.649,4.313,3.201l1.063,1.109l1.346-0.74l8.953-4.924l1.938-1.065l-1.254-1.821
					c-2.335-3.39-5.386-6.043-9.065-7.884C345.125,47.483,340.968,46.558,336.425,46.558L336.425,46.558z"/>
			</g>
			<g>
				<g opacity="0.25">
					<path d="M377.472,94.623c-6.555,0-11.855-2.598-15.762-7.721l-0.508-0.666l7.943-8.657l0.732,0.857
						c1.172,1.368,2.565,2.489,4.146,3.334c1.538,0.823,2.896,1.24,4.038,1.24c1.183,0,2.127-0.272,2.81-0.809
						c0.82-0.647,0.916-1.21,0.916-1.578c0-1.221-1.432-2.587-4.139-3.953l-3.617-1.812c-7.271-3.66-10.955-8.374-10.955-14.011
						c0-3.664,1.428-6.834,4.244-9.423c2.79-2.566,6.391-3.868,10.7-3.868c2.927,0,5.72,0.651,8.306,1.937
						c2.584,1.286,4.803,3.155,6.598,5.556l0.519,0.693l-7.973,7.975l-0.707-0.701c-2.496-2.474-4.737-3.729-6.663-3.729
						c-0.979,0-1.732,0.191-2.236,0.569c-0.554,0.416-0.625,0.812-0.625,1.11c0,0.33,0.127,0.625,0.398,0.93
						c0.156,0.176,0.75,0.697,2.904,1.758l3.947,1.972c4.331,2.139,7.247,4.289,8.907,6.57c1.671,2.293,2.519,5.009,2.519,8.072
						c0,4.085-1.522,7.541-4.524,10.273C386.417,93.25,382.408,94.623,377.472,94.623z"/>
				</g>
				<path fill="#636363" d="M378.022,48.558c2.783,0,5.401,0.61,7.858,1.832c2.455,1.222,4.535,2.975,6.242,5.259l-6.656,6.658
					c-2.702-2.68-5.159-4.019-7.366-4.019c-1.207,0-2.151,0.257-2.836,0.768c-0.683,0.513-1.024,1.149-1.024,1.911
					c0,0.578,0.219,1.11,0.651,1.596c0.433,0.485,1.502,1.148,3.209,1.989l3.94,1.97c4.148,2.048,6.998,4.136,8.547,6.264
					c1.55,2.126,2.326,4.622,2.326,7.483c0,3.809-1.397,6.986-4.197,9.533c-2.797,2.548-6.545,3.821-11.245,3.821
					c-6.252,0-11.242-2.441-14.968-7.327l6.615-7.209c1.26,1.472,2.738,2.659,4.435,3.565c1.692,0.906,3.194,1.358,4.51,1.358
					c1.418,0,2.562-0.341,3.429-1.023c0.864-0.683,1.297-1.471,1.297-2.363c0-1.654-1.563-3.27-4.688-4.846l-3.621-1.813
					c-6.937-3.492-10.401-7.864-10.401-13.117c0-3.388,1.307-6.283,3.922-8.687C370.61,49.76,373.951,48.558,378.022,48.558
					 M378.022,46.558c-4.567,0-8.396,1.391-11.378,4.133c-3.029,2.785-4.566,6.203-4.566,10.158c0,6.046,3.869,11.06,11.502,14.903
					l3.625,1.815c2.645,1.333,3.584,2.48,3.584,3.057c0,0.102,0,0.371-0.535,0.793c-0.5,0.394-1.237,0.594-2.189,0.594
					c-0.977,0-2.175-0.377-3.566-1.122c-1.471-0.787-2.769-1.83-3.856-3.103l-1.468-1.714l-1.525,1.663l-6.615,7.209l-1.132,1.233
					l1.015,1.331c4.105,5.385,9.677,8.115,16.559,8.115c5.191,0,9.43-1.461,12.593-4.343c3.22-2.929,4.851-6.634,4.851-11.012
					c0-3.279-0.912-6.193-2.709-8.661c-1.758-2.415-4.793-4.665-9.277-6.879l-3.934-1.965c-2.121-1.045-2.566-1.485-2.61-1.532
					c-0.146-0.162-0.146-0.236-0.146-0.264c0-0.066,0-0.142,0.229-0.313c0.318-0.238,0.886-0.366,1.634-0.366
					c1.629,0,3.688,1.189,5.959,3.439l1.414,1.402l1.408-1.408l6.655-6.658l1.226-1.225l-1.036-1.387
					c-1.889-2.527-4.229-4.496-6.954-5.852C384.048,47.244,381.104,46.558,378.022,46.558L378.022,46.558z"/>
			</g>
		</g>
		<g>
			<path d="M83.104,108.089h3.209v32.107h-3.209V108.089z"/>
			<path d="M93.144,116.449H96.2v4.103c1.063-1.515,2.155-2.618,3.277-3.317c1.545-0.931,3.169-1.396,4.874-1.396
				c1.15,0,2.242,0.226,3.276,0.677c1.035,0.451,1.88,1.051,2.535,1.8c0.655,0.75,1.224,1.821,1.705,3.22
				c1.016-1.862,2.285-3.278,3.81-4.245c1.524-0.968,3.165-1.451,4.922-1.451c1.64,0,3.088,0.414,4.344,1.244
				c1.256,0.828,2.188,1.986,2.798,3.47c0.609,1.484,0.915,3.711,0.915,6.68v12.965h-3.122v-12.965c0-2.547-0.181-4.297-0.544-5.25
				c-0.361-0.953-0.982-1.721-1.859-2.304c-0.878-0.58-1.925-0.873-3.144-0.873c-1.479,0-2.832,0.438-4.057,1.312
				c-1.227,0.873-2.122,2.037-2.688,3.49c-0.565,1.457-0.848,3.887-0.848,7.291v9.299h-3.056v-12.158
				c0-2.865-0.179-4.813-0.535-5.838c-0.356-1.027-0.979-1.848-1.866-2.466c-0.888-0.619-1.942-0.93-3.164-0.93
				c-1.412,0-2.732,0.426-3.962,1.278c-1.229,0.852-2.14,1.996-2.729,3.438s-0.884,3.645-0.884,6.613v10.063h-3.056v-23.75H93.144z"
				/>
			<path d="M158.753,116.449v23.747h-3.012v-4.081c-1.28,1.557-2.717,2.729-4.311,3.514c-1.594,0.785-3.336,1.18-5.228,1.18
				c-3.361,0-6.231-1.221-8.61-3.658c-2.379-2.436-3.568-5.4-3.568-8.893c0-3.42,1.2-6.344,3.601-8.774s5.29-3.645,8.665-3.645
				c1.95,0,3.714,0.414,5.293,1.244c1.579,0.828,2.965,2.074,4.158,3.731v-4.364H158.753L158.753,116.449z M146.541,118.783
				c-1.7,0-3.27,0.418-4.708,1.255c-1.439,0.836-2.585,2.008-3.435,3.521c-0.85,1.51-1.275,3.109-1.275,4.795
				c0,1.672,0.429,3.271,1.286,4.797s2.01,2.713,3.456,3.563c1.445,0.851,2.997,1.275,4.654,1.275c1.672,0,3.256-0.422,4.753-1.264
				c1.497-0.844,2.648-1.984,3.455-3.424c0.807-1.438,1.21-3.061,1.21-4.863c0-2.746-0.904-5.041-2.715-6.889
				C151.414,119.707,149.187,118.783,146.541,118.783z"/>
			<path d="M186.102,116.449h3.056v18.923c0,3.332-0.291,5.77-0.873,7.313c-0.801,2.182-2.19,3.861-4.169,5.041
				s-4.358,1.768-7.137,1.768c-2.038,0-3.867-0.289-5.49-0.863c-1.622-0.578-2.943-1.352-3.961-2.319
				c-1.019-0.974-1.958-2.392-2.815-4.259h3.317c0.903,1.57,2.068,2.734,3.496,3.492c1.428,0.756,3.198,1.136,5.311,1.136
				c2.083,0,3.843-0.39,5.277-1.164c1.435-0.776,2.458-1.752,3.07-2.927c0.612-1.176,0.918-3.071,0.918-5.688v-1.224
				c-1.151,1.457-2.557,2.572-4.217,3.353c-1.661,0.779-3.424,1.169-5.287,1.169c-2.186,0-4.239-0.544-6.162-1.628
				s-3.408-2.543-4.456-4.375c-1.05-1.834-1.573-3.85-1.573-6.047c0-2.197,0.546-4.246,1.639-6.145
				c1.092-1.898,2.604-3.401,4.533-4.507c1.929-1.106,3.966-1.658,6.106-1.658c1.776,0,3.434,0.367,4.971,1.103
				c1.536,0.734,3.019,1.946,4.446,3.633V116.449L186.102,116.449z M177.087,118.783c-1.731,0-3.339,0.42-4.823,1.255
				c-1.484,0.838-2.648,1.994-3.492,3.471c-0.844,1.477-1.266,3.074-1.266,4.791c0,2.605,0.873,4.758,2.619,6.461
				c1.745,1.703,4.008,2.553,6.788,2.553c2.808,0,5.066-0.842,6.776-2.531c1.71-1.688,2.565-3.906,2.565-6.656
				c0-1.791-0.394-3.387-1.18-4.791c-0.785-1.404-1.898-2.514-3.339-3.33C180.296,119.191,178.746,118.783,177.087,118.783z"/>
			<path d="M215.698,132.315l2.576,1.354c-0.846,1.658-1.822,2.996-2.93,4.015c-1.105,1.021-2.352,1.795-3.734,2.325
				c-1.385,0.529-2.949,0.798-4.697,0.798c-3.874,0-6.904-1.271-9.088-3.81c-2.185-2.541-3.277-5.41-3.277-8.61
				c0-3.014,0.924-5.697,2.773-8.055c2.346-2.997,5.484-4.495,9.416-4.495c4.051,0,7.283,1.535,9.699,4.604
				c1.721,2.168,2.594,4.875,2.623,8.121h-21.368c0.058,2.756,0.939,5.018,2.644,6.783c1.705,1.764,3.81,2.645,6.316,2.645
				c1.207,0,2.385-0.211,3.527-0.631c1.145-0.42,2.117-0.979,2.918-1.674C213.899,134.992,214.767,133.869,215.698,132.315z
				 M215.698,125.921c-0.408-1.629-1.002-2.932-1.781-3.906s-1.811-1.762-3.092-2.356c-1.283-0.598-2.631-0.896-4.043-0.896
				c-2.332,0-4.336,0.75-6.01,2.249c-1.225,1.092-2.15,2.727-2.776,4.91L215.698,125.921L215.698,125.921z"/>
			<path d="M237.634,108.089h3.208v29.008h12.354v3.1h-15.563L237.634,108.089L237.634,108.089z"/>
			<path d="M269.019,115.838c3.66,0,6.691,1.324,9.096,3.971c2.188,2.417,3.281,5.276,3.281,8.579c0,3.316-1.156,6.217-3.467,8.697
				c-2.311,2.481-5.279,3.723-8.91,3.723c-3.645,0-6.621-1.24-8.932-3.723c-2.312-2.48-3.465-5.381-3.465-8.697
				c0-3.287,1.094-6.141,3.278-8.557C262.306,117.169,265.347,115.838,269.019,115.838z M269.009,118.828
				c-2.541,0-4.725,0.938-6.549,2.815c-1.826,1.877-2.738,4.146-2.738,6.809c0,1.717,0.416,3.318,1.248,4.803
				c0.832,1.484,1.957,2.629,3.373,3.438s2.973,1.213,4.666,1.213s3.248-0.404,4.666-1.213c1.414-0.809,2.539-1.953,3.373-3.438
				c0.832-1.484,1.248-3.086,1.248-4.803c0-2.662-0.916-4.932-2.75-6.809C273.714,119.766,271.535,118.828,269.009,118.828z"/>
			<path d="M286.655,116.449h3.056v11.087c0,2.706,0.146,4.57,0.438,5.588c0.438,1.455,1.271,2.604,2.504,3.446
				c1.23,0.847,2.699,1.269,4.404,1.269c1.703,0,3.15-0.412,4.338-1.232c1.188-0.822,2.008-1.902,2.459-3.242
				c0.307-0.918,0.459-2.859,0.459-5.828V116.45h3.123v11.655c0,3.273-0.383,5.74-1.146,7.398c-0.763,1.658-1.914,2.957-3.449,3.896
				c-1.534,0.938-3.459,1.408-5.772,1.408s-4.243-0.472-5.795-1.408c-1.549-0.938-2.705-2.25-3.47-3.928
				c-0.764-1.683-1.145-4.212-1.145-7.586v-11.436H286.655z"/>
			<path d="M314.222,116.449h3.057v4.255c1.221-1.63,2.574-2.848,4.059-3.655c1.485-0.807,3.101-1.211,4.847-1.211
				c1.774,0,3.351,0.451,4.726,1.354c1.375,0.903,2.391,2.115,3.045,3.644c0.655,1.529,0.981,3.906,0.981,7.139v12.224h-3.056
				V128.87c0-2.734-0.114-4.563-0.34-5.479c-0.354-1.572-1.035-2.754-2.037-3.547c-1.006-0.794-2.313-1.19-3.93-1.19
				c-1.85,0-3.504,0.611-4.967,1.835c-1.463,1.221-2.428,2.734-2.893,4.539c-0.291,1.178-0.437,3.332-0.437,6.461v8.71h-3.057
				L314.222,116.449L314.222,116.449z"/>
			<path d="M361.957,116.449h3.055v18.923c0,3.332-0.291,5.77-0.873,7.313c-0.799,2.182-2.189,3.861-4.168,5.041
				s-4.357,1.768-7.137,1.768c-2.037,0-3.867-0.289-5.49-0.863c-1.621-0.578-2.941-1.352-3.961-2.319
				c-1.018-0.974-1.957-2.392-2.814-4.259h3.316c0.904,1.57,2.068,2.734,3.496,3.492c1.428,0.756,3.197,1.136,5.311,1.136
				c2.084,0,3.842-0.39,5.277-1.164c1.436-0.776,2.459-1.752,3.07-2.927c0.61-1.176,0.918-3.071,0.918-5.688v-1.224
				c-1.15,1.457-2.558,2.572-4.217,3.353c-1.66,0.78-3.423,1.169-5.287,1.169c-2.187,0-4.238-0.544-6.162-1.628
				c-1.922-1.084-3.408-2.543-4.457-4.375c-1.049-1.834-1.572-3.85-1.572-6.047c0-2.197,0.547-4.246,1.639-6.145
				s2.604-3.401,4.533-4.507s3.967-1.658,6.105-1.658c1.778,0,3.436,0.367,4.973,1.103c1.537,0.734,3.018,1.946,4.445,3.633V116.449
				L361.957,116.449z M352.942,118.783c-1.731,0-3.34,0.42-4.823,1.255c-1.484,0.838-2.648,1.994-3.492,3.471
				c-0.844,1.477-1.267,3.074-1.267,4.791c0,2.605,0.873,4.758,2.619,6.461s4.008,2.553,6.787,2.553c2.81,0,5.067-0.842,6.776-2.531
				c1.709-1.688,2.564-3.906,2.564-6.656c0-1.791-0.393-3.387-1.178-4.791s-1.898-2.514-3.34-3.33
				C356.149,119.191,354.601,118.783,352.942,118.783z"/>
			<path d="M391.554,132.315l2.574,1.354c-0.844,1.658-1.82,2.996-2.928,4.015c-1.107,1.021-2.353,1.795-3.736,2.325
				c-1.383,0.529-2.947,0.798-4.695,0.798c-3.875,0-6.904-1.271-9.088-3.81c-2.186-2.541-3.277-5.41-3.277-8.61
				c0-3.014,0.924-5.697,2.773-8.055c2.346-2.997,5.484-4.495,9.416-4.495c4.049,0,7.283,1.535,9.699,4.604
				c1.719,2.168,2.592,4.875,2.623,8.121h-21.369c0.059,2.756,0.938,5.018,2.645,6.783c1.705,1.764,3.809,2.645,6.316,2.645
				c1.207,0,2.385-0.211,3.527-0.631c1.145-0.42,2.116-0.979,2.918-1.674C389.755,134.992,390.621,133.869,391.554,132.315z
				 M391.554,125.921c-0.408-1.629-1.002-2.932-1.783-3.906c-0.777-0.975-1.809-1.762-3.09-2.356
				c-1.283-0.598-2.631-0.896-4.043-0.896c-2.332,0-4.336,0.75-6.01,2.249c-1.226,1.092-2.15,2.727-2.777,4.91L391.554,125.921
				L391.554,125.921z"/>
		</g>
	</g>
	<g opacity="0.25">
		<path d="M85.032,187.861h1.709v2.441c0.675-0.928,1.451-1.625,2.329-2.088c0.878-0.463,1.858-0.695,2.939-0.695
			c1.886,0,3.5,0.68,4.841,2.039c1.341,1.359,2.012,2.994,2.012,4.906c0,1.953-0.665,3.611-1.994,4.975
			c-1.329,1.363-2.933,2.045-4.811,2.045c-1.057,0-2.028-0.22-2.915-0.658c-0.887-0.439-1.687-1.095-2.402-1.966v7.142h-1.709
			L85.032,187.861L85.032,187.861z M91.868,189.167c-1.478,0-2.722,0.516-3.733,1.547c-1.011,1.033-1.516,2.318-1.516,3.854
			c0,1.009,0.225,1.914,0.676,2.72c0.451,0.805,1.096,1.442,1.937,1.914c0.84,0.471,1.728,0.707,2.661,0.707
			c0.917,0,1.78-0.238,2.588-0.713s1.451-1.14,1.931-1.994c0.479-0.853,0.718-1.748,0.718-2.682c0-0.943-0.238-1.837-0.712-2.684
			c-0.475-0.844-1.114-1.502-1.918-1.969C93.695,189.401,92.818,189.167,91.868,189.167z"/>
		<path d="M139.805,182.734h1.709v18.408h-1.709V182.734z"/>
		<path d="M182.846,187.861h1.709v6.201c0,1.514,0.082,2.557,0.245,3.125c0.245,0.814,0.711,1.457,1.4,1.93
			c0.688,0.471,1.509,0.707,2.463,0.707s1.763-0.23,2.427-0.689c0.665-0.459,1.123-1.063,1.375-1.813
			c0.171-0.513,0.257-1.599,0.257-3.259v-6.201h1.746v6.519c0,1.832-0.214,3.211-0.641,4.139c-0.428,0.928-1.07,1.654-1.929,2.18
			c-0.859,0.523-1.935,0.786-3.229,0.786s-2.375-0.263-3.241-0.786c-0.867-0.525-1.514-1.259-1.941-2.197
			c-0.427-0.94-0.641-2.354-0.641-4.242V187.861L182.846,187.861z"/>
		<path d="M247.714,187.861h1.709v10.583c0,1.864-0.164,3.228-0.488,4.089c-0.448,1.221-1.225,2.161-2.332,2.82
			s-2.438,0.988-3.992,0.988c-1.14,0-2.162-0.16-3.07-0.482c-0.906-0.322-1.646-0.755-2.214-1.298
			c-0.57-0.543-1.095-1.337-1.575-2.381h1.855c0.505,0.879,1.157,1.53,1.956,1.952c0.798,0.424,1.789,0.636,2.971,0.636
			c1.164,0,2.148-0.218,2.951-0.651s1.375-0.979,1.717-1.636s0.514-1.718,0.514-3.183v-0.684c-0.645,0.814-1.43,1.438-2.358,1.874
			s-1.915,0.653-2.957,0.653c-1.222,0-2.371-0.303-3.446-0.909c-1.076-0.606-1.906-1.422-2.493-2.448
			c-0.587-1.025-0.88-2.152-0.88-3.381s0.305-2.374,0.917-3.438c0.611-1.062,1.456-1.901,2.536-2.521
			c1.079-0.618,2.219-0.928,3.415-0.928c0.994,0,1.921,0.206,2.78,0.616s1.688,1.089,2.486,2.033V187.861L247.714,187.861z
			 M242.671,189.167c-0.969,0-1.867,0.233-2.697,0.701c-0.83,0.469-1.481,1.115-1.953,1.941s-0.708,1.719-0.708,2.68
			c0,1.456,0.488,2.66,1.465,3.612c0.978,0.952,2.242,1.428,3.796,1.428c1.57,0,2.834-0.472,3.791-1.415
			c0.956-0.945,1.434-2.186,1.434-3.724c0-1.001-0.219-1.894-0.658-2.679c-0.439-0.787-1.063-1.406-1.868-1.862
			C244.466,189.396,243.6,189.167,242.671,189.167z"/>
		<path d="M291.677,182.393c0.389,0,0.722,0.14,0.996,0.415c0.275,0.277,0.414,0.609,0.414,1.001c0,0.383-0.139,0.712-0.414,0.989
			c-0.274,0.277-0.607,0.414-0.996,0.414c-0.381,0-0.709-0.137-0.984-0.414c-0.275-0.276-0.413-0.606-0.413-0.989
			c0-0.392,0.138-0.724,0.413-1.001S291.296,182.393,291.677,182.393z M290.83,187.861h1.709v13.281h-1.709V187.861z"/>
		<path d="M334.089,187.861h1.709v2.381c0.685-0.912,1.441-1.594,2.271-2.045s1.733-0.678,2.71-0.678
			c0.993,0,1.874,0.252,2.644,0.757s1.336,1.185,1.703,2.039c0.365,0.854,0.549,2.185,0.549,3.992v6.836h-1.709v-6.335
			c0-1.53-0.063-2.551-0.189-3.064c-0.197-0.879-0.578-1.539-1.14-1.982c-0.562-0.444-1.294-0.666-2.197-0.666
			c-1.034,0-1.96,0.342-2.778,1.025c-0.816,0.684-1.355,1.529-1.617,2.539c-0.162,0.658-0.244,1.863-0.244,3.612v4.871h-1.709
			v-13.282H334.089z"/>
		<path d="M394.014,189.314l-1.101,1.135c-0.912-0.887-1.807-1.33-2.68-1.33c-0.555,0-1.029,0.182-1.426,0.549
			c-0.396,0.365-0.594,0.793-0.594,1.281c0,0.432,0.162,0.842,0.488,1.233c0.326,0.399,1.012,0.866,2.055,1.403
			c1.273,0.66,2.138,1.295,2.595,1.904c0.448,0.619,0.673,1.314,0.673,2.088c0,1.09-0.383,2.014-1.148,2.771
			c-0.767,0.757-1.725,1.135-2.873,1.135c-0.768,0-1.498-0.167-2.194-0.5s-1.272-0.793-1.729-1.379l1.073-1.222
			c0.873,0.986,1.8,1.478,2.778,1.478c0.686,0,1.268-0.22,1.749-0.659c0.481-0.438,0.723-0.955,0.723-1.55
			c0-0.487-0.159-0.923-0.478-1.306c-0.318-0.374-1.036-0.846-2.153-1.416c-1.198-0.618-2.015-1.229-2.446-1.831
			c-0.433-0.603-0.647-1.29-0.647-2.063c0-1.009,0.345-1.847,1.032-2.515c0.688-0.667,1.56-1.001,2.61-1.001
			C391.542,187.52,392.774,188.119,394.014,189.314z"/>
	</g>
</g>
</svg>
