<?xml version="1.0" encoding="utf-8"?>
<!-- Generator: Adobe Illustrator 16.0.3, SVG Export Plug-In . SVG Version: 6.00 Build 0)  -->
<!DOCTYPE svg PUBLIC "-//W3C//DTD SVG 1.1//EN" "http://www.w3.org/Graphics/SVG/1.1/DTD/svg11.dtd">
<svg version="1.1" id="Layer_3" xmlns="http://www.w3.org/2000/svg" xmlns:xlink="http://www.w3.org/1999/xlink" x="0px" y="0px"
	 width="16px" height="16px" viewBox="0 0 16 16" enable-background="new 0 0 16 16" xml:space="preserve">
<linearGradient id="SVGID_1_" gradientUnits="userSpaceOnUse" x1="7.9995" y1="0.0332" x2="7.9995" y2="15.8124">
	<stop  offset="0" style="stop-color:#808080"/>
	<stop  offset="1" style="stop-color:#4D4D4D"/>
</linearGradient>
<rect x="7" fill="url(#SVGID_1_)" width="2" height="7"/>
<linearGradient id="SVGID_2_" gradientUnits="userSpaceOnUse" x1="7.9995" y1="0.0332" x2="7.9995" y2="15.8124">
	<stop  offset="0" style="stop-color:#808080"/>
	<stop  offset="1" style="stop-color:#4D4D4D"/>
</linearGradient>
<path fill="url(#SVGID_2_)" d="M10,1.294v2.128C11.765,4.195,13,5.951,13,8c0,2.762-2.238,5-5,5s-5-2.237-5-5
	c0-2.049,1.235-3.806,3-4.578V1.294C3.109,2.155,1,4.83,1,8c0,3.867,3.134,7,7,7s7-3.133,7-7C15,4.83,12.891,2.155,10,1.294z"/>
</svg>
