<?xml version="1.0" encoding="utf-8"?>
<!-- Generator: Adobe Illustrator 21.0.0, SVG Export Plug-In . SVG Version: 6.00 Build 0)  -->
<svg version="1.1" id="Layer_1" xmlns="http://www.w3.org/2000/svg" xmlns:xlink="http://www.w3.org/1999/xlink" x="0px" y="0px"
	 viewBox="0 0 160 160" style="enable-background:new 0 0 160 160;" xml:space="preserve">
<style type="text/css">
	.st0{fill:#231F20;}
</style>
<g>
	<g>
		<path class="st0" d="M90,11.5v10.3c28.6,6.8,50,32.6,50,63.2c0,35.8-29.2,65-65,65s-65-29.2-65-65c0-30.6,21.4-56.4,50-63.2V11.5
			C25.8,18.5,0,48.7,0,85c0,41.4,33.6,75,75,75s75-33.6,75-75C150,48.7,124.2,18.5,90,11.5z"/>
	</g>
	<g>
		<path class="st0" d="M80,5v45c0,2.8-2.2,5-5,5s-5-2.2-5-5V5c0-2.8,2.2-5,5-5S80,2.2,80,5z"/>
	</g>
</g>
</svg>
