<?xml version="1.0" encoding="utf-8"?>
<!-- Generator: Adobe Illustrator 21.0.0, SVG Export Plug-In . SVG Version: 6.00 Build 0)  -->
<svg version="1.1" id="Layer_1" xmlns="http://www.w3.org/2000/svg" xmlns:xlink="http://www.w3.org/1999/xlink" x="0px" y="0px"
	 viewBox="0 0 160 160" style="enable-background:new 0 0 160 160;" xml:space="preserve">
<style type="text/css">
	.st0{fill:#231F20;}
	.st1{fill:none;stroke:#231F20;stroke-width:10;stroke-miterlimit:10;}
</style>
<path class="st0" d="M130,0H58c-4.4,0-8,3.6-8,8v34.4c2.7-1.9,4.7-4.6,6.5-7.3C57.3,35,58.2,35,59,35h1V10h65.9L150,34.1V150H59
	c-0.8,0-1.7,0-2.5-0.1c-1.8-2.7-3.8-5.4-6.5-7.3v9.4c0,4.2,3.3,7.7,7.4,7.9c0.5,0.1,1.1,0.1,1.6,0.1h93c4.4,0,8-3.6,8-8V30L130,0z"
	/>
<path class="st1" d="M125,5v24.8c0,2.9,2.3,5.2,5.2,5.2H155"/>
<g>
	<path class="st0" d="M118,79.4c-0.9-5.5-2.6-10.8-5-15.6h-0.1c-4.7-1.2-9.6-2.2-11.4-4.7c-1.8-2.5-1.3-7.4-0.9-12.2
		c-3.9-3.9-8.4-7.1-13.3-9.8c-3.7,1.5-7.4,3.2-10.3,3.2c-0.7,0-1.2-0.1-1.8-0.3c-2.9-1-5.2-5.2-7.7-9.3C65,30.3,62.6,30.1,60,30h-1
		c-2.9,0-5.7,0.2-8.5,0.7c-0.2,0.3-0.3,0.5-0.5,0.8c-2.3,3.8-4.5,7.6-7.2,8.5c-0.6,0.2-1.2,0.3-1.8,0.3c-2.9,0-6.6-1.7-10.3-3.2
		c-4.9,2.7-9.4,5.9-13.3,9.8c0.4,4.8,0.9,9.7-0.9,12.2c-1.8,2.5-6.7,3.5-11.4,4.7H5c-2.4,4.8-4.1,10.1-5,15.6
		C3.1,83,6.5,86.8,6.5,90S3.2,96.9,0,100.5c0.9,5.6,2.6,10.8,5,15.7h0.1c4.7,1.1,9.6,2.1,11.4,4.6c1.8,2.5,1.3,7.5,0.9,12.3
		c3.9,3.9,8.4,7.1,13.3,9.8c3.7-1.5,7.4-3.2,10.3-3.2c0.6,0,1.2,0,1.8,0.2c2.9,0.9,5.3,5.3,7.8,9.5c2.2,0.3,4.5,0.5,6.8,0.5
		c0.5,0.1,1.1,0.1,1.6,0.1c2.9,0,5.7-0.2,8.4-0.6c2.4-4.1,4.8-8.4,7.6-9.4c0.1-0.1,0.1-0.1,0.2-0.1c0.6-0.2,1.1-0.2,1.8-0.2
		s1.5,0.1,2.3,0.3c2.5,0.5,5.2,1.8,8,2.9c1.6-0.9,3.2-1.8,4.7-2.9c3.1-2,6-4.3,8.6-6.9c-0.4-4.8-0.9-9.8,0.9-12.3
		c1.8-2.5,6.7-3.5,11.4-4.6h0.1c2.4-4.9,4.1-10.1,5-15.7c-3.2-3.6-6.5-7.3-6.5-10.5S114.9,83,118,79.4z M107.1,103.2
		c-0.3,1.6-0.8,3.1-1.4,4.5c-4.7,1.3-9.3,3.1-12.3,7.2c-3,4.2-3.4,9.2-3.1,14c-1.2,1-2.5,2-3.9,2.8c-3.1-1.1-6.2-2-9.4-2
		c-1.7,0-3.4,0.2-4.9,0.7c-4.8,1.6-8,5.4-10.6,9.5c-0.5,0.1-1,0.1-1.5,0.1h-1c-0.8,0-1.7,0-2.5-0.1c-1.8-2.7-3.8-5.4-6.5-7.3
		c-1.3-1-2.6-1.7-4.2-2.2c-1.5-0.5-3.1-0.7-4.8-0.7c-3.2,0-6.3,0.9-9.4,2c-1.4-0.8-2.7-1.8-3.9-2.8c0.2-4.8-0.1-9.8-3.1-14
		c-3-4.1-7.6-5.9-12.3-7.2c-0.6-1.4-1.1-2.9-1.4-4.5c3-3.7,5.6-8,5.6-13.2c0-5.2-2.6-9.5-5.7-13.2c0.4-1.6,0.9-3.1,1.5-4.6
		c4.7-1.2,9.3-3,12.3-7.2c3-4.2,3.3-9.2,3.1-14c1.2-1,2.5-1.9,3.9-2.8c3.1,1.2,6.2,2.1,9.4,2.1c1.7,0,3.3-0.3,4.8-0.8
		c1.6-0.5,2.9-1.2,4.2-2.1c2.7-1.9,4.7-4.6,6.5-7.3C57.3,40,58.2,40,59,40h1c0.5,0,1,0,1.5,0.1c2.6,4,5.8,7.8,10.6,9.4
		c1.5,0.5,3.2,0.8,4.9,0.8c3.2,0,6.3-0.9,9.4-2.1c1.4,0.9,2.7,1.8,3.9,2.8c-0.3,4.8,0.1,9.8,3.1,14c3,4.2,7.6,6,12.3,7.2
		c0.6,1.5,1.1,3,1.5,4.6c-3.1,3.7-5.7,8-5.7,13.2C101.5,95.2,104.1,99.5,107.1,103.2z"/>
	<path class="st0" d="M60,63.7h-1c-3.2,0-6.2,0.6-9,1.7C39.9,69,32.7,78.7,32.7,90s7.2,20.9,17.3,24.6c2.8,1,5.8,1.6,9,1.6h1
		c14-0.5,25.2-12,25.2-26.2C85.2,75.8,74,64.2,60,63.7z M60,106.1c-0.3,0.1-0.7,0.1-1,0.1c-3.3,0-6.4-1-9-2.7
		c-4.4-2.9-7.3-7.9-7.3-13.5c0-5.7,2.9-10.7,7.3-13.6c2.6-1.7,5.7-2.7,9-2.7c0.3,0,0.7,0,1,0.1c8.5,0.5,15.2,7.5,15.2,16.2
		C75.2,98.6,68.5,105.6,60,106.1z"/>
</g>
</svg>
