<?xml version="1.0" encoding="utf-8"?>
<!-- Generator: Adobe Illustrator 16.0.3, SVG Export Plug-In . SVG Version: 6.00 Build 0)  -->
<!DOCTYPE svg PUBLIC "-//W3C//DTD SVG 1.1//EN" "http://www.w3.org/Graphics/SVG/1.1/DTD/svg11.dtd">
<svg version="1.1" id="Layer_3" xmlns="http://www.w3.org/2000/svg" xmlns:xlink="http://www.w3.org/1999/xlink" x="0px" y="0px"
	 width="16px" height="16px" viewBox="0 0 16 16" enable-background="new 0 0 16 16" xml:space="preserve">
<g>
	<linearGradient id="SVGID_1_" gradientUnits="userSpaceOnUse" x1="7.9995" y1="2.8311" x2="7.9995" y2="11.8765">
		<stop  offset="0" style="stop-color:#808080"/>
		<stop  offset="1" style="stop-color:#4D4D4D"/>
	</linearGradient>
	<polygon fill="url(#SVGID_1_)" points="13,9 13,15 3,15 3,9 2,9 2,16 14,16 14,9 	"/>
	<linearGradient id="SVGID_2_" gradientUnits="userSpaceOnUse" x1="7.9995" y1="2.8311" x2="7.9995" y2="11.8765">
		<stop  offset="0" style="stop-color:#808080"/>
		<stop  offset="1" style="stop-color:#4D4D4D"/>
	</linearGradient>
	<polygon fill="url(#SVGID_2_)" points="3,0 3,4 4,4 4,1 12,1 12,4 13,4 13,0 	"/>
	<linearGradient id="SVGID_3_" gradientUnits="userSpaceOnUse" x1="7.9995" y1="2.8311" x2="7.9995" y2="11.8765">
		<stop  offset="0" style="stop-color:#808080"/>
		<stop  offset="1" style="stop-color:#4D4D4D"/>
	</linearGradient>
	<path fill="url(#SVGID_3_)" d="M15.5,4H12v1H4V4H0.5C0.224,4,0,4.224,0,4.5V12c0,0.276,0.224,0.5,0.5,0.5H3V9h10v3.5h2.5
		c0.276,0,0.5-0.224,0.5-0.5V4.5C16,4.224,15.776,4,15.5,4z"/>
	<linearGradient id="SVGID_4_" gradientUnits="userSpaceOnUse" x1="7.9995" y1="2.8311" x2="7.9995" y2="11.8765">
		<stop  offset="0" style="stop-color:#808080"/>
		<stop  offset="1" style="stop-color:#4D4D4D"/>
	</linearGradient>
	<rect x="4" y="13" fill="url(#SVGID_4_)" width="8" height="1"/>
</g>
</svg>
