<?xml version="1.0" encoding="utf-8"?>
<!-- Generator: Adobe Illustrator 21.0.0, SVG Export Plug-In . SVG Version: 6.00 Build 0)  -->
<svg version="1.1" id="Layer_1" xmlns="http://www.w3.org/2000/svg" xmlns:xlink="http://www.w3.org/1999/xlink" x="0px" y="0px"
	 viewBox="0 0 160 160" style="enable-background:new 0 0 160 160;" xml:space="preserve">
<style type="text/css">
	.st0{fill:#231F20;}
</style>
<g>
	<path class="st0" d="M60,10v50H10V10H60 M62.9,0H7.1C3.2,0,0,3.2,0,7.1v55.8C0,66.8,3.2,70,7.1,70h55.8c3.9,0,7.1-3.2,7.1-7.1V7.1
		C70,3.2,66.8,0,62.9,0L62.9,0z"/>
</g>
<g>
	<path class="st0" d="M150,10v50h-50V10H150 M152.9,0H97.1C93.2,0,90,3.2,90,7.1v55.8c0,3.9,3.2,7.1,7.1,7.1h55.8
		c3.9,0,7.1-3.2,7.1-7.1V7.1C160,3.2,156.8,0,152.9,0L152.9,0z"/>
</g>
<g>
	<path class="st0" d="M150,100v50h-50v-50H150 M152.9,90H97.1c-3.9,0-7.1,3.2-7.1,7.1v55.8c0,3.9,3.2,7.1,7.1,7.1h55.8
		c3.9,0,7.1-3.2,7.1-7.1V97.1C160,93.2,156.8,90,152.9,90L152.9,90z"/>
</g>
<g>
	<path class="st0" d="M60,100v50H10v-50H60 M62.9,90H7.1C3.2,90,0,93.2,0,97.1v55.8c0,3.9,3.2,7.1,7.1,7.1h55.8
		c3.9,0,7.1-3.2,7.1-7.1V97.1C70,93.2,66.8,90,62.9,90L62.9,90z"/>
</g>
</svg>
