<?xml version="1.0" encoding="utf-8"?>
<!-- Generator: Adobe Illustrator 24.1.1, SVG Export Plug-In . SVG Version: 6.00 Build 0)  -->
<svg version="1.1" xmlns="http://www.w3.org/2000/svg" xmlns:xlink="http://www.w3.org/1999/xlink" x="0px" y="0px"
	 viewBox="0 0 160 160" style="enable-background:new 0 0 160 160;" xml:space="preserve">
<style type="text/css">
	.st0{display:none;}
	.st1{display:inline;}
	.st2{fill:#231F20;}
</style>
<g id="Layer_3" class="st0">
	<g class="st1">
		<path class="st2" d="M82,73v14h-9V73H82 M82.2,72h-9.4c-0.4,0-0.8,0.4-0.8,0.8v14.4c0,0.4,0.4,0.8,0.8,0.8h9.4
			c0.4,0,0.8-0.4,0.8-0.8V72.8C83,72.4,82.6,72,82.2,72L82.2,72z"/>
	</g>
	<g class="st1">
		<path class="st2" d="M87,78v9h-4v-9H87 M87.5,77h-5c-0.3,0-0.5,0.2-0.5,0.5v10c0,0.3,0.2,0.5,0.5,0.5h5c0.3,0,0.5-0.2,0.5-0.5v-10
			C88,77.2,87.8,77,87.5,77L87.5,77z"/>
	</g>
	<g class="st1">
		<polygon class="st2" points="75,77 74,77 74,78 75,78 75,77 		"/>
	</g>
	<g class="st1">
		<polygon class="st2" points="77,77 76,77 76,78 77,78 77,77 		"/>
	</g>
	<g class="st1">
		<polygon class="st2" points="79,77 78,77 78,78 79,78 79,77 		"/>
	</g>
	<g class="st1">
		<polygon class="st2" points="81,77 80,77 80,78 81,78 81,77 		"/>
	</g>
</g>
<g id="Layer_2">
	<g>
		<g>
			<path class="st2" d="M104.2,109.2h50.1c3.1,0,5.7-2.6,5.7-5.7V53.4c0-1.8-2.1-2.6-3.4-1.4l-23.4,23.4l-7.2,7.2l-23.3,23.3
				C101.6,107.1,102.4,109.2,104.2,109.2z"/>
		</g>
		<g>
			<path class="st2" d="M0,109.2h11.1c12.1-25.3,38.1-42.9,68.1-42.9c17.7,0,33.9,6.1,46.8,16.3l7.2-7.2c-14.7-12-33.6-19.2-54-19.2
				C43.5,56.2,12.8,78.1,0,109.2z"/>
		</g>
	</g>
</g>
</svg>
