<?xml version="1.0" encoding="utf-8"?>
<!-- Generator: Adobe Illustrator 21.0.0, SVG Export Plug-In . SVG Version: 6.00 Build 0)  -->
<svg version="1.1" id="Layer_1" xmlns="http://www.w3.org/2000/svg" xmlns:xlink="http://www.w3.org/1999/xlink" x="0px" y="0px"
	 viewBox="0 0 160 160" style="enable-background:new 0 0 160 160;" xml:space="preserve">
<style type="text/css">
	.st0{fill:#231F20;}
</style>
<g>
	<g>
		<path class="st0" d="M110,60v10h40v50h-40v10h42c4.4,0,8-3.6,8-8V68c0-4.4-3.6-8-8-8H110z M90,70V60H8.7C3.9,60,0,63.9,0,68.7
			v52.6c0,4.8,3.9,8.7,8.7,8.7H90v-10H10V70H90z"/>
	</g>
	<g>
		<path class="st0" d="M140,155c0,2.8-2.2,5-5,5H75c-2.8,0-5-2.2-5-5c0-2.8,2.2-5,5-5h25V30H75c-2.8,0-5-2.2-5-5c0-2.8,2.2-5,5-5h60
			c2.8,0,5,2.2,5,5c0,2.8-2.2,5-5,5h-25v120h25C137.8,150,140,152.2,140,155z"/>
	</g>
</g>
</svg>
