<?xml version="1.0" encoding="utf-8"?>
<!-- Generator: Adobe Illustrator 16.0.3, SVG Export Plug-In . SVG Version: 6.00 Build 0)  -->
<!DOCTYPE svg PUBLIC "-//W3C//DTD SVG 1.1//EN" "http://www.w3.org/Graphics/SVG/1.1/DTD/svg11.dtd">
<svg version="1.1" id="Layer_3" xmlns="http://www.w3.org/2000/svg" xmlns:xlink="http://www.w3.org/1999/xlink" x="0px" y="0px"
	 width="16px" height="16px" viewBox="0 0 16 16" enable-background="new 0 0 16 16" xml:space="preserve">
<path fill="#FFFFFF" d="M5,11"/>
<g>
	<linearGradient id="SVGID_1_" gradientUnits="userSpaceOnUse" x1="7.4995" y1="5.146" x2="7.4995" y2="11.865">
		<stop  offset="0" style="stop-color:#808080"/>
		<stop  offset="1" style="stop-color:#4D4D4D"/>
	</linearGradient>
	<path fill="url(#SVGID_1_)" d="M4,12l3.536-0.707L11,7.829V5.5C11,5.224,10.775,5,10.5,5H8.17L4.707,8.464L4,12z"/>
	<linearGradient id="SVGID_2_" gradientUnits="userSpaceOnUse" x1="5.4995" y1="5.229" x2="5.4995" y2="15.7871">
		<stop  offset="0" style="stop-color:#808080"/>
		<stop  offset="1" style="stop-color:#4D4D4D"/>
	</linearGradient>
	<path fill="url(#SVGID_2_)" d="M8.596,12.354l-0.321,0.321L7.83,12.764l-3.536,0.707l-2.206,0.441l0.441-2.206L3.236,8.17
		l0.089-0.445l0.321-0.321L6.05,5H0.5C0.224,5,0,5.224,0,5.5v10C0,15.775,0.224,16,0.5,16h10c0.275,0,0.5-0.225,0.5-0.5V9.949
		L8.596,12.354z"/>
</g>
<linearGradient id="SVGID_3_" gradientUnits="userSpaceOnUse" x1="9.1992" y1="-3.3081" x2="9.1992" y2="12.2016" gradientTransform="matrix(0.7071 0.7071 -0.7071 0.7071 6.2935 -3.3033)">
	<stop  offset="0" style="stop-color:#808080"/>
	<stop  offset="1" style="stop-color:#4D4D4D"/>
</linearGradient>
<polygon fill="url(#SVGID_3_)" points="7.536,11.293 4,12 4.707,8.464 13.898,-0.729 16.729,2.1 "/>
</svg>
