<?xml version="1.0" encoding="utf-8"?>
<!-- Generator: Adobe Illustrator 21.0.0, SVG Export Plug-In . SVG Version: 6.00 Build 0)  -->
<svg version="1.1" id="Layer_3" xmlns="http://www.w3.org/2000/svg" xmlns:xlink="http://www.w3.org/1999/xlink" x="0px" y="0px"
	 viewBox="0 0 160 160" style="enable-background:new 0 0 160 160;" xml:space="preserve">
<style type="text/css">
	.st0{fill:#231F20;}
</style>
<g>
	<path class="st0" d="M125.9,10L150,34.1l0,115.8c0,0,0,0-0.1,0L10,150c0,0,0,0,0-0.1L10,10c0,0,0,0,0.1,0H125.9 M130,0H10.1
		C4.5,0,0,4.5,0,10.1v139.9c0,5.6,4.5,10.1,10.1,10.1h139.9c5.6,0,10.1-4.5,10.1-10.1V30L130,0L130,0z"/>
</g>
<g>
	<path class="st0" d="M120,90v60H40V90H120 M121.9,80H38.1c-4.5,0-8.1,3.6-8.1,8.1V160h100V88.1C130,83.6,126.4,80,121.9,80
		L121.9,80z"/>
</g>
<g>
	<path class="st0" d="M120,10v40H40V10H120 M130,0H30v53c0,3.9,3.2,7,7,7H123c3.9,0,7-3.2,7-7V0L130,0z"/>
</g>
<path class="st0" d="M105,0L105,0c-2.8,0-5,2.2-5,5v30c0,2.8,2.2,5,5,5h0c2.8,0,5-2.2,5-5V5C110,2.2,107.8,0,105,0z"/>
</svg>
