<?xml version="1.0" encoding="utf-8"?>
<!-- Generator: Adobe Illustrator 16.0.3, SVG Export Plug-In . SVG Version: 6.00 Build 0)  -->
<!DOCTYPE svg PUBLIC "-//W3C//DTD SVG 1.1//EN" "http://www.w3.org/Graphics/SVG/1.1/DTD/svg11.dtd">
<svg version="1.1" id="Layer_3" xmlns="http://www.w3.org/2000/svg" xmlns:xlink="http://www.w3.org/1999/xlink" x="0px" y="0px"
	 width="16px" height="16px" viewBox="0 0 16 16" enable-background="new 0 0 16 16" xml:space="preserve">
<g>
	<g>
		<linearGradient id="SVGID_1_" gradientUnits="userSpaceOnUse" x1="7.9995" y1="0.0415" x2="7.9995" y2="16.0035">
			<stop  offset="0" style="stop-color:#808080"/>
			<stop  offset="1" style="stop-color:#4D4D4D"/>
		</linearGradient>
		<path fill="url(#SVGID_1_)" d="M14.552,7.972c-0.002-0.707-0.116-1.385-0.328-2.021l1.377-0.452
			c-0.261-0.798-0.647-1.547-1.146-2.226l-1.167,0.856c-0.407-0.554-0.897-1.042-1.454-1.444l0.849-1.174
			C12,1.018,11.249,0.638,10.448,0.382l-0.443,1.376C9.373,1.555,8.7,1.445,8,1.445c-0.007,0-0.013,0.001-0.02,0.001L7.976,0
			c-0.844,0.002-1.674,0.135-2.47,0.396l0.451,1.375c-0.66,0.215-1.274,0.533-1.822,0.937L3.279,1.541
			C2.602,2.036,2.009,2.632,1.517,3.312L2.689,4.16C2.29,4.71,1.975,5.326,1.762,5.987L0.384,5.544C0.129,6.335,0,7.161,0,8v0.012
			l1.446-0.006c0.001,0.708,0.116,1.391,0.324,2.029l-1.376,0.449c0.262,0.797,0.645,1.549,1.142,2.229l1.168-0.854
			c0.406,0.553,0.896,1.043,1.452,1.445l-0.85,1.172c0.682,0.496,1.433,0.877,2.231,1.137l0.445-1.379
			C6.617,14.439,7.296,14.553,8,14.553c0.003,0,0.005,0,0.007,0L8.008,16c0.844-0.002,1.675-0.135,2.47-0.393L10.03,14.23
			c0.66-0.215,1.275-0.531,1.824-0.932l0.852,1.17c0.68-0.496,1.273-1.09,1.766-1.77l-1.169-0.85
			c0.399-0.551,0.716-1.164,0.931-1.828l1.377,0.447C15.869,9.674,16,8.842,16,8V7.972H14.552z M8,12.16
			C5.702,12.16,3.84,10.297,3.84,8C3.84,5.702,5.702,3.838,8,3.838c2.298,0,4.16,1.863,4.16,4.161
			C12.159,10.297,10.298,12.16,8,12.16z"/>
	</g>
</g>
</svg>
