<?xml version="1.0" encoding="utf-8"?>
<!-- Generator: Adobe Illustrator 21.0.0, SVG Export Plug-In . SVG Version: 6.00 Build 0)  -->
<svg version="1.1" id="Layer_1" xmlns="http://www.w3.org/2000/svg" xmlns:xlink="http://www.w3.org/1999/xlink" x="0px" y="0px"
	 viewBox="0 0 160 160" style="enable-background:new 0 0 160 160;" xml:space="preserve">
<style type="text/css">
	.st0{fill:#231F20;}
</style>
<g>
	<g>
		<path class="st0" d="M79.7,54.1c13.8,0,25,11.2,25,25s-11.2,25-25,25s-25-11.2-25-25S65.9,54.1,79.7,54.1 M79.7,44.1
			c-19.3,0-35,15.7-35,35s15.7,35,35,35s35-15.7,35-35S99,44.1,79.7,44.1L79.7,44.1z"/>
	</g>
	<path class="st0" d="M147.1,80c0-3,0.8-6.2,2.2-9.6c1.9-4.8,4.7-9.8,7-14.7c-1.3-4.3-3.1-8.7-5.3-12.7c-1.1-2.2-2.4-4.2-3.7-6.3
		c-2.5-3.9-5.3-7.5-8.3-11h-0.1c-5.5-0.3-11.2-0.3-16.1-1.1c-3.6-0.4-6.8-1.2-9.3-2.7c-2.5-1.4-4.7-3.8-6.9-6.7
		c-2.9-3.8-5.7-8.7-8.7-13.1c-4.4-1.1-9.1-1.8-13.7-2C82.8,0,81.3,0,80,0s-2.7,0-4,0.1h-0.1c-4.8,0.2-9.3,0.9-13.7,2
		c-2.9,4.4-5.7,9.3-8.7,13.1c-2.2,2.9-4.4,5.3-6.9,6.7c-2.5,1.4-5.7,2.3-9.2,2.7c-5,0.8-10.6,0.8-16.1,1.1h-0.1c-3,3.4-5.9,7-8.4,11
		c-1.3,2.1-2.6,4.2-3.7,6.4c-2.1,4-3.8,8.3-5.3,12.6c2.5,4.9,5.2,9.8,7.1,14.5C12.1,73.7,13,77,13,80c0,3-0.9,6.3-2.2,9.8
		c-2,4.7-4.7,9.6-7.1,14.4c1.4,4.4,3.2,8.6,5.3,12.6c1.1,2.2,2.4,4.3,3.7,6.4c2.5,3.9,5.4,7.5,8.4,11h0.1c5.4,0.2,11.1,0.3,15.9,1
		c3.6,0.5,6.9,1.3,9.4,2.8c2.5,1.4,4.8,3.8,6.9,6.7c3,3.9,5.8,8.7,8.8,13.2v0.1c4.4,0.9,9,1.7,13.6,1.9H76c1.3,0.1,2.7,0.1,4,0.1
		s2.8,0,4.1-0.1c4.7-0.2,9.2-0.8,13.6-1.9c3-4.5,5.9-9.4,8.8-13.3c2.3-2.9,4.4-5.3,6.9-6.7c2.6-1.4,5.9-2.3,9.5-2.8
		c4.9-0.7,10.5-0.8,15.9-1h0.1c3-3.4,5.9-7,8.3-11c1.4-2.1,2.6-4.1,3.7-6.3c2.2-4,3.9-8.3,5.3-12.7c-2.4-4.9-5.2-9.8-7-14.6
		C147.9,86.2,147.1,83,147.1,80z M145.4,104.9c-2.7,7.1-6.5,13.6-11.3,19.4c-9,0.4-18.4,0.8-25.6,5.1c-7,4-12,11.9-16.6,19.4
		C88.1,149.7,84,150,80,150c-4,0-8-0.3-11.8-1.1c-4.8-7.5-9.6-15.4-16.6-19.4c-7.2-4.2-16.5-4.7-25.6-5.1
		c-4.8-5.8-8.6-12.4-11.3-19.5C18.8,96.7,23,88.6,23,80c0-8.6-4.2-16.8-8.4-24.9c2.7-7.1,6.5-13.7,11.3-19.5
		c9.1-0.3,18.4-0.7,25.6-5c7-4.1,11.9-11.9,16.6-19.4c0,0,0-0.1,0.1-0.1C72.1,10.2,76,9.9,80,9.9c4,0,8,0.3,11.8,1.1
		c0.1,0,0.1,0.1,0.1,0.1c4.7,7.5,9.6,15.3,16.6,19.4c7.2,4.2,16.6,4.7,25.6,5c4.8,5.8,8.6,12.3,11.3,19.4c-4.1,8.1-8.4,16.4-8.4,25
		C137.1,88.6,141.3,96.8,145.4,104.9z"/>
</g>
</svg>
