<?xml version="1.0" encoding="utf-8"?>
<!-- Generator: Adobe Illustrator 21.0.0, SVG Export Plug-In . SVG Version: 6.00 Build 0)  -->
<svg version="1.1" id="Layer_1" xmlns="http://www.w3.org/2000/svg" xmlns:xlink="http://www.w3.org/1999/xlink" x="0px" y="0px"
	 viewBox="0 0 160 160" style="enable-background:new 0 0 160 160;" xml:space="preserve">
<style type="text/css">
	.st0{fill:#231F20;}
</style>
<g>
	<rect x="0.1" y="20.1" class="st0" width="100" height="10"/>
</g>
<g>
	<rect x="20.1" y="50.1" class="st0" width="80" height="10"/>
</g>
<g>
	<rect x="40.1" y="80.1" class="st0" width="60" height="10"/>
</g>
<g>
	<rect x="60.1" y="110.1" class="st0" width="40" height="10"/>
</g>
<g>
	<g>
		<path class="st0" d="M134.8,144c-2.8,0-5-2.2-5-5V20.2c0-2.8,2.2-5,5-5s5,2.2,5,5V139C139.8,141.8,137.5,144,134.8,144z"/>
	</g>
	<g>
		<g>
			<path class="st0" d="M117.8,119.1l12.7,12.7c2.4,2.4,6.2,2.4,8.6,0l12.7-12.7V131c0,1.6-0.6,3.1-1.8,4.3L139,146.2
				c-2.4,2.4-6.2,2.4-8.6,0l-10.9-10.9c-1.1-1.1-1.8-2.7-1.8-4.3V119.1z"/>
		</g>
	</g>
</g>
</svg>
