<?xml version="1.0" encoding="utf-8"?>
<!-- Generator: Adobe Illustrator 21.0.0, SVG Export Plug-In . SVG Version: 6.00 Build 0)  -->
<svg version="1.1" id="Layer_3" xmlns="http://www.w3.org/2000/svg" xmlns:xlink="http://www.w3.org/1999/xlink" x="0px" y="0px"
	 viewBox="0 0 16 16" style="enable-background:new 0 0 16 16;" xml:space="preserve">
<style type="text/css">
	.st0{fill:#4D4D4D;}
</style>
<g>
	<path class="st0" d="M8,3.6l0.9,2.9l0.2,0.7h0.7h3L10.5,9L9.9,9.4l0.2,0.7L11,13l-2.5-1.8L8,10.8l-0.6,0.4L5,13l0.9-2.9l0.2-0.7
		L5.5,9L3.1,7.2h3h0.7l0.2-0.7L8,3.6 M8,0.4L6.1,6.2H0l4.9,3.6l-1.9,5.8L8,12l4.9,3.6l-1.9-5.8L16,6.2H9.9L8,0.4L8,0.4z"/>
</g>
</svg>
