<?xml version="1.0" encoding="utf-8"?>
<!-- Generator: Adobe Illustrator 21.0.0, SVG Export Plug-In . SVG Version: 6.00 Build 0)  -->
<svg version="1.1" id="Layer_1" xmlns="http://www.w3.org/2000/svg" xmlns:xlink="http://www.w3.org/1999/xlink" x="0px" y="0px"
	 viewBox="0 0 160 160" style="enable-background:new 0 0 160 160;" xml:space="preserve">
<style type="text/css">
	.st0{fill:#231F20;}
</style>
<g>
	<path class="st0" d="M150,10v140H10V10H150 M154,0H6C2.7,0,0,2.7,0,6v148c0,3.3,2.7,6,6,6h148c3.3,0,6-2.7,6-6V6
		C160,2.7,157.3,0,154,0L154,0z"/>
</g>
<g>
	<path class="st0" d="M154,160H86c-3.3,0-6-2.7-6-6V6c0-3.3,2.7-6,6-6h68c3.3,0,6,2.7,6,6v148C160,157.3,157.3,160,154,160z"/>
</g>
</svg>
