<?xml version="1.0" encoding="utf-8"?>
<!-- Generator: Adobe Illustrator 21.0.0, SVG Export Plug-In . SVG Version: 6.00 Build 0)  -->
<svg version="1.1" id="Layer_1" xmlns="http://www.w3.org/2000/svg" xmlns:xlink="http://www.w3.org/1999/xlink" x="0px" y="0px"
	 viewBox="0 0 160 160" style="enable-background:new 0 0 160 160;" xml:space="preserve">
<style type="text/css">
	.st0{fill:#231F20;}
</style>
<g>
	<g>
		<path class="st0" d="M140.7,28.5l-3.5,3.1l-0.7-0.8l-0.9,0.8c-0.4,0-0.8,0.1-1.1,0.4c-0.4,0.3-0.5,0.6-0.6,1
			c-0.1,0-0.2,0.1-0.2,0.2c-8.2,7-15.8,12.2-22.7,15.8l-0.5-0.6l-1.5,1.5c-3,1.5-5.9,2.7-8.7,3.5l-1-1.1L97,54.4
			c-3,0.7-5.7,1.1-8.3,1.1c-1.6,0-3.1-0.1-4.6-0.4c-1.1-0.1-2.3-0.3-3.4-0.6l0.8,0.9c0.7,0.4,1.4,0.7,2.1,1.1c3,1.4,5.8,3.4,8.3,5.6
			c0.6-0.1,1.2-0.2,1.8-0.2c2.1,0,4.2,0.8,5.6,2.5c1.8,2.2,2.2,5.2,1.1,7.9c1.8,3.1,3.2,6.3,4,9.9v0.1l1.7,2c0-0.4-0.1-0.9,0-1.2
			c-0.4-4.7,0.5-9.7,2.8-15.1l2.2-1.9l-0.9-1.1c1.3-2.7,3.1-5.6,5.1-8.4l1.4-1.1l-0.4-0.4c4.6-6.2,10.9-12.9,19.2-19.9
			c0-0.1,0.1-0.1,0.1-0.1c0.4,0,0.9-0.1,1.1-0.4c0.4-0.3,0.6-0.7,0.6-1.1l0.9-0.8l-0.7-0.8l3.5-3.1L140.7,28.5L140.7,28.5z
			 M107.5,61.9l-4.5-5.4c1.5-0.7,3.3-1.4,5-2.3l2.6,3.2C109.5,58.9,108.5,60.4,107.5,61.9L107.5,61.9z"/>
	</g>
	<g>
		<path class="st0" d="M66.1,61.9c2.4,0,4.6,0.2,6.5,0.7l0.1,0l0.1,0c1.1,0.2,2.3,0.6,3.8,1.2l0.8,0.3l0.3,0.1
			c0.3,0.2,0.6,0.3,0.8,0.4c0.1,0.1,0.3,0.1,0.4,0.2l0.3,0.1l0.3,0.1c2.2,1.1,4.3,2.5,6.2,4.1l0.1,0l0.1,0c2.6,2.2,4.7,4.8,6.3,7.7
			L92,77l0.1,0.1c1.2,2,2.1,4,2.7,6.2v0.1l0.3,1.2c0.2,0.6,0.3,1.3,0.4,1.5l0,0.5l0.1,0.5c0.3,1.6,0.4,3.1,0.4,4.7v0.4
			c0,1.7-0.1,2.7-0.2,3.1l-0.1,0.4L95.7,96l-0.1,0.9c-0.3,2.1-0.8,3.9-1.4,5.5l-0.1,0.3l-0.1,0.4c-0.3,0.8-0.7,1.7-1.3,2.8
			c-5.2,9.8-15.4,16-26.5,16c-7.6,0-14.9-2.9-20.4-8.1l-0.2-0.1l-0.2-0.1c-0.9-0.8-1.8-1.8-2.8-2.9c-0.7-1-1.3-1.8-1.8-2.6l-0.1-0.2
			l-0.1-0.2c-1.1-1.8-1.9-3.4-2.5-5c0.3-2.8-0.7-4.9-1.4-6.2c-0.1-0.1-0.2-0.3-0.3-0.4c-0.2-1.3-0.3-2.7-0.3-4.1
			c0-14.1,10-26.4,23.8-29.4C62,62,64.1,61.9,66.1,61.9 M66.1,52.3c-2.8,0-5.5,0.3-8,0.8c-18,3.8-31.5,19.7-31.5,38.8
			c0,3.3,0.4,6.4,1.1,9.5c0.1,0,0.1,0,0.1,0c0.2-0.1,0.3-0.1,0.4-0.1c0.6,0,0.4,0.7,0,1.5c0.9,3.5,2.4,6.8,4.3,9.9
			c0.8,1.3,1.6,2.6,2.6,3.8c1.2,1.5,2.6,3,4,4.2c7.1,6.7,16.6,10.7,27,10.7c15.2,0,28.4-8.6,35-21.2c0.7-1.3,1.3-2.7,1.8-4.1
			c1.1-2.5,1.7-5.2,2.1-7.9c0.1-0.3,0.2-0.7,0.2-1.1c0.3-1.5,0.4-3.3,0.4-4.9v-0.4c0-2.2-0.2-4.3-0.6-6.4c-0.1-1.1-0.4-2.2-0.7-3.3
			v-0.1c-0.9-3.5-2.2-6.8-4-9.9c-2.2-3.9-5.1-7.4-8.4-10.2c-2.5-2.2-5.4-4.1-8.3-5.6c-0.7-0.4-1.4-0.7-2.1-1.1
			c-0.5-0.2-1-0.4-1.4-0.5c-1.7-0.7-3.4-1.2-5.3-1.6C72,52.6,69,52.3,66.1,52.3L66.1,52.3z"/>
	</g>
	<g>
		<path class="st0" d="M28.2,101.2c-0.1,0-0.3,0-0.4,0.1c0,0.5,0.1,1,0.4,1.4C28.5,101.9,28.7,101.2,28.2,101.2L28.2,101.2z"/>
	</g>
	<g>
		<path class="st0" d="M106.5-1.1l-7.4,15.5c-0.1,0-0.3,0-0.4,0c-0.4,0-0.6,0.1-0.8,0.3l-1.3,3.1c-1.2,0.1-2.4,0.9-3,2
			c-0.6,1.4-0.1,3.1,1.1,4L80,54.9c0.5,0.1,1,0.3,1.4,0.5c0.7,0.4,1.4,0.7,2.1,1.1l0.5-1.3l12.4-30.4c0.1,0,0.2,0,0.2,0
			c1.4,0,2.7-0.8,3.2-2.1c0.6-1.1,0.3-2.6-0.6-3.4l1.4-3.2c0.1-0.2-0.1-0.6-0.5-0.9l6.5-15.9L106.5-1.1L106.5-1.1z"/>
	</g>
	<g>
		<g>
			<path class="st0" d="M61.8,2.2c-0.6,0-1.1,4.6-1.1,4.9c0,2.9,1.7,6.7,2,9.4c0.3,3.7,0.1,7.4,0.5,11.3c0.5,5.2,0.3,5.1-2,8.6
				c-2.6,4.1-1.6,5.4-2.1,10.7C59,48.9,58.6,51.1,58,53c2.6-0.5,5.3-0.8,8-0.8c3,0,5.9,0.3,8.7,1c-0.5-2.1-0.8-4.5-0.9-5.8
				c-0.4-5.1,0.2-5.1-1.2-9c-1.6-4.7-2.6-8.5-2.6-14.2c0.3,0.1,0.5,0.1,0.7,0.1c2.5,0,1.3-5.1,0.9-6.5c0,0.1,0,0.1-0.1,0.1
				c-0.5,0-2.5-1.8-2.8-2.2c-1.3-2.1,0.3-3.4,0.3-4c-0.1,0-0.5,0-0.8,0c-0.3,0-0.6,0-0.7-0.2c-0.2-0.3,0.9-0.5,0.8-0.8
				c-0.3,0-0.6,0.1-0.7,0.1c-0.9,0,0.1-0.6-0.5-0.9c-0.3,0.4-0.5,0.5-0.7,0.5c-0.4,0-0.6-0.4-1-0.8c-0.9,0.4,0.6,0.9-0.7,0.9
				c-0.1,0-0.3,0-0.4,0c-0.8-1.1-2.1-3.3-2.5-4.1c-0.3-0.7,0.7-2.6,0.3-3.6C62,2.4,61.9,2.2,61.8,2.2L61.8,2.2z M64.7,13.7
				C64.7,13.7,64.6,13.7,64.7,13.7c-0.5-0.3-0.7-0.7-0.8-1.2C65.2,12.4,65,13.7,64.7,13.7L64.7,13.7z"/>
		</g>
	</g>
	<g>
		<g>
			<path class="st0" d="M128.7,73.1h-5.8v3.4c-2.8,0.4-5.4,1.4-7.7,3v-0.7h-5.8v5.9h0.7c-0.1,0.1-0.2,0.2-0.2,0.3l-0.5-0.3l-3.3-1.8
				c-0.1,0.4,0,0.9,0,1.2l-1.7-2c0.3,1.1,0.6,2.1,0.7,3.3l3.5,1.9c-0.8,1.5-1.2,3.2-1.4,4.9c-0.2,1-0.3,1.9-0.3,3s0.1,2,0.3,3
				c0.2,1.7,0.7,3.4,1.3,5l-2.1,1.1c0.2,0.9,0.6,1.7,1.1,2.5l2.4-1.3c0.1,0.1,0.2,0.3,0.3,0.5h-0.6v5.8h5.8v-0.7
				c2.2,1.5,4.8,2.5,7.6,3v3.2h5.8v-3.3c2.8-0.4,5.4-1.4,7.7-2.9v0.6h5.8v-5.9h-0.6c1.5-2.3,2.5-4.8,2.9-7.6h3.3v-5.9h-3.3
				c-0.4-2.8-1.4-5.4-2.9-7.6h0.6v-5.9h-5.8v0.7c-2.3-1.5-4.9-2.5-7.8-2.9V73.1L128.7,73.1z M124.4,92.9L114,87.2
				c2.5-3.8,6.9-6.3,11.8-6.3c7.9,0,14.4,6.4,14.4,14.3c0,7.9-6.4,14.3-14.4,14.3c-4.9,0-9.3-2.5-11.8-6.2l10.3-5.6
				c0.4,0.2,0.8,0.3,1.1,0.3c1.4,0,2.6-1.2,2.6-2.7c0-1.4-1.1-2.6-2.6-2.6C125.1,92.6,124.8,92.7,124.4,92.9L124.4,92.9z
				 M112.7,100.8c-0.8-1.7-1.1-3.6-1.1-5.6s0.4-3.9,1.1-5.6l10.2,5.6v0.1c0,0.1,0,0.1,0,0.1L112.7,100.8L112.7,100.8z"/>
		</g>
		<g>
			<path class="st0" d="M106.4,104.3l-3.4,1.8c-0.5,1.4-1.1,2.8-1.8,4.1l5.1-2.8l1.2-0.7C106.9,106,106.6,105.1,106.4,104.3
				L106.4,104.3z"/>
		</g>
		<g>
			<path class="st0" d="M104.4,82.1L104.4,82.1l1.7,2.1c0-0.4-0.1-0.9,0-1.2L104.4,82.1L104.4,82.1z"/>
		</g>
		<g>
			<path class="st0" d="M107.1,92.2h-1.5c0,1.6-0.1,3.4-0.4,4.9c0,0.4-0.1,0.8-0.2,1.1h2.1c-0.2-1-0.3-1.9-0.3-3
				C106.9,94.1,106.9,93.2,107.1,92.2L107.1,92.2z"/>
		</g>
	</g>
	<g>
		<path class="st0" d="M77.7,139.6l-0.1,0.5c-1.7,0.9-3.2,1.6-4.4,2.8l-0.4,0.3l-0.3,0.4c-2.1,2.3-3,4.7-3.7,6.5
			c0,0.1-0.1,0.2-0.1,0.3c-3.5-2.2-7.6-6-11.1-10.1c2.8,0.5,5.6,0.7,8.5,0.7C70,140.9,73.9,140.5,77.7,139.6 M105.2,97.1
			c0,0.4-0.1,0.8-0.2,1.1c-0.4,2.8-1.1,5.5-2.1,7.9c-0.5,1.4-1.1,2.8-1.8,4.1c-6.6,12.5-19.8,21.2-35,21.2c-10.4,0-19.9-4-27-10.7
			c0.5,3.8,1.2,7.8,2.3,11.6c3.4,9.2,14.5,21.9,23.4,26.9c2.3,1.3,3.8,1.9,5.2,1.9c1.8,0,3.3-1.2,5.7-3.6c2-2.2,2.2-5.5,4-7.5
			c1-0.9,6.1-3,6.3-3.7c0.3,0.1,0.7,0.2,1.1,0.2c2.6,0,7.5-1.6,6.8-1.9c-0.2-0.3,4.2-9.5,3.6-10.9c0.7,0.6,1.4,0.8,2.2,0.8
			c4.5,0,9.4-9,9-12.3c-0.4-3.4-2.8-6.3-3.4-9.9c-0.1-0.4,0.3-3.3,1-4.8c0.2-0.6,0.5-0.9,0.8-0.9c0.1,0,0.3,0.1,0.5,0.3
			c-0.5-0.8-0.9-1.6-1.1-2.5c-0.6-2-0.7-4.1-1-6.1C105.4,97.8,105.3,97.4,105.2,97.1L105.2,97.1z"/>
	</g>
	<g>
		<path class="st0" d="M21.7,110.4c-0.9,0-0.2,1.1,0.2,2.7c0.5,1.1,0.7,2.3,0.3,3.4c-0.4-0.4-1-3.1-2.2-3.6c-0.1,0-0.3-0.1-0.4-0.1
			c-0.3,0-0.5,0.1-0.8,0.2c-0.1,0-0.4,0.1-0.7,0.3c-1.2,0.6-5,3.2-0.9,4.2c-0.6,0.5-1.1,1-1.2,2.1c-0.1-0.2-0.3-0.3-0.4-0.3
			c-0.8,0-1.8,2-1.4,2.2c-4.7,2.9,0,9.7,2.7,11.4c0-0.8,0.3-1.1,0.7-1.1c1,0,2.7,1.5,3.3,1.6c-0.2-0.4-0.1-0.5,0-0.5
			c0.3,0,1.2,0.8,1.7,0.8c0.3,0,0.5-0.2,0.4-1c0.8,1.6,1.4,2.1,2.1,2.1c1,0,1.9-1.4,2.9-2.6c0,0,0.2-0.1,0.5-0.1
			c0.3,0,0.8,0.2,1.1,0.8c0.2-0.4,2-2,3-2c-0.1-0.1-0.2-0.2-0.2-0.3c0.6,0,1.7,0.1,1.8,0.5c0.2-0.2,0.5-0.3,0.7-0.3
			c0.1,0,0.2,0,0.3,0c0.2,0,0-0.2-1.2-2.3c0.2,0,1.7,1.1,2,1.1c0.1,0,0.1-0.2-0.3-0.6c0.9,0.1,1.2,0.2,1.2,0.2
			c0.1,0-0.7-0.3-0.3-1.2c0.1,0.2,0.3,0.3,0.4,0.3c0.9,0,0.7-6.4-1.6-6.4c-0.3,0-0.6,0.1-0.9,0.3c-1.9-0.8-0.5-2.9-2.8-3.3
			c-0.7-1.1,1.4-2.3,3.4-2.4c-1-1.2-1.8-2.5-2.6-3.8c-1.2,1.8-3,3.4-4.1,5.2c-0.3,0-0.4-1-0.6-1c-0.1,0-0.3,0.3-0.5,1
			c-0.1-0.2-0.2-0.3-0.3-0.5c0,0,0,0,0,0c0,0,0.9-1.1,0.5-1.7c0.4,0.1,0.6,0.1,0.8,0.1c1,0-1.8-1.3-2.3-1.3c-0.2,0-0.1,0.1,0.5,0.5
			c-0.6,0-1.2-1.1-1.7-2.1c-0.2-0.7-0.4-1.4-0.2-1.8c0,0-0.1,0-0.1,0c-0.4,0-0.7-0.4-0.8-0.4c0,0-0.1,0-0.1,0.2
			c-0.2-0.1-0.4-0.2-0.5-0.2c-0.3,0-0.3,0.3-0.4,0.7c-0.4-0.3-0.5-0.6,0-0.8C22.2,110.5,21.9,110.4,21.7,110.4L21.7,110.4z"/>
	</g>
	<g>
		<path class="st0" d="M22,97c-0.7,0,0.2,2.6-1,4.1C21,101,21.1,98,19.9,98c-0.1,0-0.1,0-0.2,0c0,0-0.1,0-0.2,0
			c-0.8,0-4.6,0.7-1.9,2.5c-0.5,0.2-1,0.4-1.3,1.1c0-0.2-0.1-0.3-0.3-0.3c-0.5,0-1.3,1.1-1.3,1.1c-3.8,0.7-2.4,6.1-1.1,7.9
			c0.1-0.4,0.3-0.6,0.5-0.6c0.6,0,1.5,1.7,1.9,1.9c0-0.2,0-0.3,0.1-0.3c0.2,0,0.6,0.9,1,0.9c0.1,0,0.3-0.2,0.4-0.6
			c0.1,1.1,0.4,1.6,0.7,1.8c0.1,0.1,0.2,0.1,0.4,0.1c0.4,0,1-0.3,1.5-0.6c0.3-0.1,0.5-0.3,0.8-0.4c0,0,0-0.1,0.1-0.1
			c0.2,0,0.6,0.2,0.7,0.8c0.1,0,0.2-0.1,0.4-0.2c0.4-0.2,1.2-0.4,1.7-0.4c0.1,0,0.2,0,0.3,0.1c0-0.1-0.1-0.1-0.1-0.2
			c0.2,0.1,0.6,0.2,0.8,0.4c0.2,0.1,0.3,0.3,0.3,0.4c0.1,0,0.2-0.1,0.3-0.1c0.2,0,0.4,0.1,0.5,0.1c0.1,0,0-0.3-0.3-1.8
			c0.2,0.1,1,1.2,1.1,1.2c0.1,0,0-0.1-0.1-0.5c0.5,0.3,0.7,0.4,0.7,0.4c0,0-0.3-0.4,0.2-0.9c0,0.2,0.1,0.3,0.2,0.3
			c0.6,0,2-4.5,0.1-4.5c-0.1,0-0.1,0-0.2,0c-1.1-1,0.3-1.8-0.9-2.7c0.3-0.2,1.1-1.2,1.6-2.2c0.4-0.8,0.6-1.5,0-1.5
			c-0.1,0-0.3,0-0.4,0.1c0,0,0,0-0.1,0c-0.6,0.3-1.5,1-3.1,2.1c-0.2-0.1,0-0.8-0.2-0.8c-0.1,0-0.3,0.1-0.6,0.6
			c0-0.2-0.1-0.3-0.1-0.5c0,0,0,0,0,0c0.1,0,0.8-0.4,0.7-1c0.3,0.2,0.5,0.3,0.6,0.3c0.3,0-0.8-1.2-1.1-1.2c0,0.1,0.1,0.2,0.2,0.4
			c-0.9-0.2-0.8-2.5-0.4-3.1c-0.3,0-0.4-0.2-0.6-0.4c-0.1-0.1-0.2-0.2-0.3-0.2c-0.1,0-0.3,0.1-0.4,0.4c-0.1-0.3-0.1-0.6,0.2-0.6
			C22.4,97.1,22.2,97,22,97L22,97z"/>
	</g>
</g>
</svg>
