<?xml version="1.0" encoding="utf-8"?>
<!-- Generator: Adobe Illustrator 20.1.0, SVG Export Plug-In . SVG Version: 6.00 Build 0)  -->
<svg version="1.1" id="Layer_3" xmlns="http://www.w3.org/2000/svg" xmlns:xlink="http://www.w3.org/1999/xlink" x="0px" y="0px"
	 viewBox="0 0 16 16" style="enable-background:new 0 0 16 16;" xml:space="preserve">
<style type="text/css">
	.st0{fill:#4C4C4C;}
	.st1{fill-rule:evenodd;clip-rule:evenodd;fill:#4C4C4C;}
</style>
<path class="st0" d="M11.9,6.2L12.1,6L12,5.9c0.1-0.2,0.3-0.5,0.5-0.8L12.6,5l0,0c0.4-0.6,1-1.2,1.7-1.8c0,0,0,0,0,0
	c0,0,0.1,0,0.1,0c0,0,0-0.1,0.1-0.1L14.6,3l-0.1-0.1l0.3-0.3l0,0l-0.3,0.3l-0.1-0.1l-0.1,0.1c0,0-0.1,0-0.1,0c0,0,0,0.1,0,0.1
	c0,0,0,0,0,0c-0.7,0.6-1.4,1.1-2,1.4l0-0.1l-0.1,0.1c-0.3,0.1-0.5,0.2-0.8,0.3l-0.1-0.1L10.9,5c-0.5,0.1-1,0.1-1.5,0l0.7,0.8
	c0.3-0.2,0.8-0.2,1,0.1c0.2,0.3,0.2,0.7-0.1,1l0.7,0.8C11.6,7.2,11.7,6.7,11.9,6.2z M11.4,5.1c0.1-0.1,0.3-0.1,0.4-0.2l0.2,0.3
	c-0.1,0.1-0.2,0.3-0.3,0.4L11.4,5.1z"/>
<circle class="st0" cx="8.1" cy="8.3" r="3.5"/>
<path class="st0" d="M11.1,2.1c0-0.1,0-0.2,0-0.3l0.1-0.3c0,0,0-0.1,0-0.1L11.7,0l0,0L11,1.4c0,0-0.1,0-0.1,0l-0.1,0.3
	c-0.1,0-0.2,0.1-0.3,0.2c-0.1,0.1,0,0.3,0.1,0.4L9.2,5.3l0.3,0.1l1.3-3.2C10.9,2.3,11.1,2.2,11.1,2.1z"/>
<g>
	<path class="st1" d="M6,5.7c0.3,0,0-0.2,0.2-0.3c0.1,0,0.3,0,0.4,0c0.2-0.1,0.5-0.1,0.6-0.3C7.4,5,7.4,4.5,7.5,4.3
		c0-0.2-0.1-0.4-0.1-0.6c0,0,0.2-0.3,0.2-0.3c0.2-0.3,0.3-0.3,0.2-0.8c0-0.3,0-0.7,0-1c0-0.1-0.3-1.5-0.1-1.4
		c0.1,0.1-0.1,0.8,0.3,0.8c0.1,0,0-0.1,0-0.1c0.2,0,0,0,0.1-0.1C8.1,1,8.1,1,8.2,1C8.3,1,8.1,1.1,8.3,1c0,0-0.1,0-0.1,0.1
		c0,0,0.1,0,0.1,0c0,0.1-0.1,0.2,0,0.4c0,0.1,0.3,0.3,0.3,0.2c0,0.1,0.2,0.7-0.1,0.6c0,0.5,0.1,0.9,0.2,1.3c0.2,0.3,0.1,0.4,0.1,0.8
		c0,0.2,0.1,0.7,0.2,0.9C8.9,5.1,9.5,5.5,9.3,5.4c0,0,0.2,0,0.3,0c0.2-0.1,0.3,0,0.3,0.1c-0.1,0.2,0,0.2,0.2,0.2
		C10.1,5.9,6,5.8,6,5.7C6.1,5.7,6,5.7,6,5.7z M7.9,1.2c0,0.1,0,0.1,0.1,0.1C8,1.3,8,1.2,7.9,1.2C7.9,1.2,7.9,1.2,7.9,1.2z M7.9,1.1
		C7.9,1.2,8.1,1.1,7.9,1.1C7.9,1.2,7.9,1.1,7.9,1.1z"/>
</g>
<g>
	<path class="st0" d="M15.2,8.6c0-0.9-0.8-1.7-1.7-1.7c-0.9,0-1.7,0.8-1.7,1.7c0,0.9,0.8,1.7,1.7,1.7C14.4,10.3,15.2,9.6,15.2,8.6z
		 M12.2,8.6c0-0.7,0.6-1.3,1.3-1.3c0.7,0,1.3,0.6,1.3,1.3c0,0.7-0.6,1.3-1.3,1.3C12.7,9.9,12.2,9.3,12.2,8.6z"/>
	<path class="st0" d="M11.1,10l2.2-1.2c0,0,0.1,0,0.1,0c0.1,0,0.2-0.1,0.2-0.2c0-0.1-0.1-0.2-0.2-0.2c0,0-0.1,0-0.1,0l-2.2-1.2
		L11,7.4l2.2,1.2c0,0,0,0,0,0c0,0,0,0,0,0L11,9.8L11.1,10z"/>
	<g>
		<path class="st0" d="M15,8.9C14.9,8.9,14.9,8.8,15,8.9l-0.1-0.5c0,0,0-0.1,0.1-0.1h0.4c0,0,0.1,0,0.1,0.1v0.4c0,0,0,0.1-0.1,0.1
			H15z"/>
	</g>
	<g>
		<path class="st0" d="M14.5,7.7C14.4,7.7,14.4,7.6,14.5,7.7l-0.1-0.5c0,0,0-0.1,0.1-0.1h0.4c0,0,0.1,0,0.1,0.1v0.4
			c0,0,0,0.1-0.1,0.1H14.5z"/>
	</g>
	<g>
		<path class="st0" d="M13.2,7.2C13.2,7.2,13.2,7.1,13.2,7.2l-0.1-0.5c0,0,0-0.1,0.1-0.1h0.4c0,0,0.1,0,0.1,0.1v0.4
			c0,0,0,0.1-0.1,0.1H13.2z"/>
	</g>
	<g>
		<path class="st0" d="M12,7.7C12,7.7,12,7.6,12,7.7L12,7.2c0,0,0-0.1,0.1-0.1h0.4c0,0,0.1,0,0.1,0.1v0.4c0,0,0,0.1-0.1,0.1H12z"/>
	</g>
	<g>
		<path class="st0" d="M11.5,8.9C11.5,8.9,11.5,8.8,11.5,8.9l-0.1-0.5c0,0,0-0.1,0.1-0.1h0.4c0,0,0.1,0,0.1,0.1v0.4
			c0,0,0,0.1-0.1,0.1H11.5z"/>
	</g>
	<g>
		<path class="st0" d="M12.1,10.1C12,10.1,12,10.1,12.1,10.1L12,9.6c0,0,0-0.1,0.1-0.1h0.4c0,0,0.1,0,0.1,0.1V10c0,0,0,0.1-0.1,0.1
			H12.1z"/>
	</g>
	<g>
		<path class="st0" d="M13.3,10.6C13.2,10.6,13.2,10.6,13.3,10.6l-0.1-0.5c0,0,0-0.1,0.1-0.1h0.4c0,0,0.1,0,0.1,0.1v0.4
			c0,0,0,0.1-0.1,0.1H13.3z"/>
	</g>
	<g>
		<path class="st0" d="M14.5,10.1C14.4,10.1,14.4,10.1,14.5,10.1l-0.1-0.5c0,0,0-0.1,0.1-0.1h0.4c0,0,0.1,0,0.1,0.1V10
			c0,0,0,0.1-0.1,0.1H14.5z"/>
	</g>
</g>
<path class="st0" d="M5.9,11.9C6,12.3,6,12.6,6.1,12.6c0.1,0.1,0.9,0.8,1.1,0.9c0.1,0.1,0.8,0.9,1,0.9c0.1,0,0.3,0.2,0.4,0.1
	c0,0,0.2-0.3,0.2-0.3c0.1,0,0.3-0.1,0.4-0.3c0-0.1,0.2-0.6,0.3-0.6c0.1,0,0.5-0.1,0.5-0.2c0.1,0.1,0.3-0.1,0.3-0.1
	c0.1,0,0.2,0.2,0.2,0.1c0-0.1,0.1-0.2,0.1-0.2c0,0,0.1-0.1,0.1-0.1c0-0.1,0.2-0.3,0.1-0.5c0-0.1,0.1-0.3,0.1-0.4
	c0.1,0.1,0.3,0.1,0.3-0.1c0-0.1,0.3,0,0.4-0.1c0-0.1,0.4-0.4,0.4-0.4c0-0.1,0.1-0.1,0-0.2c0,0-0.2-0.3-0.2-0.4c0,0-0.2-0.3-0.2-0.3
	c0-0.1,0-0.4,0-0.5c0-0.1,0.1-0.3,0-0.3c0,0,0.2,0.1,0.2,0c-0.1-0.1-0.2-0.2-0.2-0.3c0-0.1,0-0.7-0.1-0.8c-0.1-0.1-0.1-0.2-0.2-0.3
	c0,0-0.3,0.5-0.7,0.9C10.2,9.7,9.8,10,9.8,10c-0.8,0.7-1.8,1-2.9,0.8c-0.4-0.1-0.8-0.2-1.3-0.4C5.6,10.9,5.7,11.4,5.9,11.9z"/>
<path class="st1" d="M5,10.7c0,0,0.5,0.5,0.4,0.5c0,0-0.1,0-0.1,0.1c0.1,0.1,0.2,0,0.2,0c0.1,0-0.1,0.3-0.1,0.2c0,0,0.1,0.1,0.1,0.1
	c-0.1,0-0.1,0-0.2,0c0,0,0,0,0,0.1c0,0-0.2-0.1-0.2-0.1c0,0.1,0.2,0.2,0.1,0.3c0,0-0.2-0.1-0.2-0.1c0,0-0.1,0.1-0.1,0.1
	c0,0,0-0.1-0.1-0.1c0,0.1-0.2,0.2-0.2,0.2c0-0.1-0.1-0.1-0.1-0.1c0,0,0,0.1,0,0.1c0,0,0,0-0.1,0c0,0,0,0.1,0,0.1
	c0-0.1-0.2,0.1-0.2,0.1c0,0-0.1-0.3-0.1-0.3C4.2,12,4.2,12,4.1,12.1c0,0,0-0.1,0-0.1c0,0-0.1,0.1-0.1,0.1c-0.1,0-0.1-0.1-0.2-0.2
	c-0.1,0-0.1,0.2-0.2,0.1c0,0,0-0.1,0-0.1c0,0-0.1,0-0.2,0c0-0.1,0-0.1-0.1-0.1c0-0.1,0.1-0.1,0.1-0.1c-0.1,0,0,0-0.1,0
	c0-0.1,0-0.1-0.1-0.1c0,0,0.2-0.7,0.2-0.7c0,0,0,0.1,0.1,0c0,0,0-0.1,0-0.1c0,0,0.1,0,0.1,0c0-0.1,0-0.1,0.1-0.1c0,0,0-0.1,0-0.1
	c0,0-0.1-0.1-0.1-0.1c-0.1-0.1,0-0.1,0-0.2c-0.2,0,0.1-0.1,0.1-0.2c0.1-0.1,0.2,0.1,0.2,0c0,0-0.2-0.2,0.1-0.1
	c0.1,0,0.1,0.2,0.2,0.1c0,0.1,0,0.2,0,0.3c0.1-0.2-0.1-0.3-0.1-0.4c0,0,0.1,0,0.1,0c0,0,0-0.2,0-0.3c0.1,0,0.1,0.2,0.1,0.2
	C4.2,10,4.3,10,4.3,10c0,0.2,0.1,0.2,0.1,0.3c-0.1,0-0.1,0.1,0,0.1c0,0,0,0,0.1,0c0,0,0,0.1,0,0.1c0.1,0,0.1-0.1,0.1-0.2
	c0.2,0,0.1,0.2,0.1,0.3c0,0-0.2,0-0.1,0.1c0-0.1,0,0,0,0c0,0,0-0.1,0-0.1c0.1,0,0.1,0,0.1,0.1c0.1,0,0.1-0.1,0.1-0.1
	c0,0,0,0.1,0.1,0.1c0.4-0.2,0.2-0.6,0.3-0.6c0,0,0.4,0.4,0.4,0.6C5.6,10.6,4.8,10.4,5,10.7C5,10.7,5,10.7,5,10.7z M4,10.5
	c0,0,0-0.1,0-0.1C3.9,10.4,4,10.5,4,10.5C4,10.5,4,10.5,4,10.5z M5.3,11.5c0,0-0.1-0.1-0.1-0.1C5.2,11.5,5.1,11.5,5.3,11.5
	C5.2,11.5,5.2,11.5,5.3,11.5z M4.7,11.1C4.7,10.9,4.7,11.1,4.7,11.1C4.7,11,4.7,11.1,4.7,11.1z M4.2,10.2
	C4.3,10.1,4.2,10.1,4.2,10.2C4.3,10.2,4.2,10.2,4.2,10.2z M4.1,10.6C4.2,10.6,4,10.6,4.1,10.6C4.1,10.6,4.1,10.6,4.1,10.6z
	 M4.7,11.1C4.6,11.1,4.7,11.1,4.7,11.1C4.7,11.1,4.7,11.1,4.7,11.1z M5,10.8C5,10.7,4.9,10.9,5,10.8C5,10.8,5,10.8,5,10.8z
	 M4.2,10.5C4.2,10.5,4.2,10.5,4.2,10.5C4.2,10.5,4.2,10.5,4.2,10.5z M5.4,11.4C5.4,11.5,5.4,11.4,5.4,11.4
	C5.4,11.4,5.4,11.4,5.4,11.4z M4.7,11.3C4.9,11.2,4.6,11.2,4.7,11.3C4.7,11.3,4.7,11.3,4.7,11.3z M4.3,10.5
	C4.3,10.5,4.2,10.4,4.3,10.5C4.3,10.5,4.3,10.5,4.3,10.5z M5.4,11.4C5.4,11.4,5.4,11.4,5.4,11.4C5.4,11.3,5.4,11.4,5.4,11.4z
	 M4.1,10.5C4.1,10.5,4.1,10.5,4.1,10.5C4.1,10.5,4.1,10.5,4.1,10.5z M3.7,10.8C3.7,10.7,3.7,10.7,3.7,10.8
	C3.7,10.7,3.7,10.8,3.7,10.8z M4.2,10.6C4.2,10.6,4.1,10.6,4.2,10.6C4.2,10.6,4.2,10.6,4.2,10.6z M3.8,10.2
	C3.8,10.1,3.8,10.2,3.8,10.2C3.8,10.2,3.8,10.2,3.8,10.2z M4.2,10.7C4.3,10.6,4.2,10.6,4.2,10.7C4.2,10.7,4.2,10.6,4.2,10.7z
	 M5,11.7C4.9,11.8,5,11.8,5,11.7C5,11.7,5,11.8,5,11.7z M5.1,11.1C5.1,11.1,5.1,11.1,5.1,11.1C5.1,11.1,5.1,11.1,5.1,11.1z M4.2,10
	C4.2,10,4.2,10.1,4.2,10C4.2,10,4.2,10.1,4.2,10z M5.2,11.1C5.2,11.1,5.3,11.1,5.2,11.1C5.2,11.1,5.2,11.1,5.2,11.1z M4.6,11.6
	C4.7,11.6,4.6,11.5,4.6,11.6C4.6,11.6,4.6,11.6,4.6,11.6z M4.6,10.4C4.6,10.4,4.6,10.5,4.6,10.4C4.6,10.4,4.6,10.4,4.6,10.4z
	 M3.8,10.6C3.7,10.6,3.8,10.7,3.8,10.6C3.8,10.6,3.8,10.6,3.8,10.6z M4.2,10.6C4.2,10.6,4.3,10.6,4.2,10.6
	C4.2,10.6,4.2,10.6,4.2,10.6z"/>
<path class="st1" d="M4.5,9.5c0,0,0.2,0.4,0.2,0.4c0,0-0.1,0-0.1,0C4.7,10,4.7,10,4.7,10c0,0-0.1,0.2-0.1,0.1c0,0,0,0.1,0,0.1
	c0,0,0,0-0.1-0.1c0,0,0,0,0,0c0,0-0.1-0.1-0.1-0.1c0,0.1,0.1,0.2,0,0.2c0,0-0.1-0.1-0.1-0.1c0,0-0.1,0.1-0.1,0.1c0,0,0-0.1,0-0.1
	c0,0-0.2,0.1-0.2,0.1c0-0.1,0-0.1-0.1-0.1c0,0,0,0.1-0.1,0c0,0-0.1,0.1-0.2,0.1c0,0,0-0.2,0-0.2c0,0-0.1,0-0.1,0.1c0,0,0-0.1,0-0.1
	c-0.2,0,0,0-0.2-0.1c0,0-0.2,0-0.2,0c0,0,0,0,0-0.1c0,0-0.1,0-0.1,0c0-0.1,0-0.1,0-0.1c0,0,0.1,0,0.1-0.1c0,0,0,0,0,0
	c-0.1,0,0,0-0.1-0.1c0,0,0.4-0.4,0.3-0.4c0,0,0-0.1,0-0.1c0.1,0,0.1,0,0.2,0C3.5,8.9,3.9,8.9,3.9,8.9c0,0-0.1-0.1,0.1,0
	C4,8.9,4,9,4.1,9C4.1,9,4,9.1,4,9.1c0.1-0.1,0-0.2,0-0.3c0,0,0,0.1,0.1,0c-0.1-0.1,0-0.1,0-0.1c0,0,0,0.1,0,0.1c0,0,0.1,0,0.1,0
	c0,0,0,0.3,0,0.3c0,0,0,0,0.1,0c0,0,0,0.1-0.1,0.1c0.1,0,0.1,0,0.1-0.1c0,0,0.1,0.1,0.1,0.1c0,0-0.1,0-0.1,0.1c0,0-0.1,0-0.1,0
	c0,0,0,0,0,0c0,0,0-0.1,0-0.1c0,0,0.1,0,0,0.1c0,0,0.1,0,0.1,0c0,0,0.2,0,0.2,0c0.2,0,0.1-0.3,0.1-0.3c0,0,0.2,0.4,0.1,0.5
	C4.9,9.6,4.5,9.2,4.5,9.5z M3.9,9.1C4,9.1,4,9,3.9,9.1C3.9,9.1,3.9,9.1,3.9,9.1z M4.5,10.1C4.5,9.9,4.4,10,4.5,10.1
	C4.5,10,4.5,10.1,4.5,10.1z M4.3,9.6C4.3,9.5,4.2,9.6,4.3,9.6C4.3,9.6,4.3,9.6,4.3,9.6z M4.2,8.9C4.2,8.9,4.2,8.9,4.2,8.9
	C4.2,8.9,4.2,8.9,4.2,8.9z M4,9.2C4,9.2,4,9.1,4,9.2C4,9.2,4,9.2,4,9.2z M4.2,9.6C4.2,9.6,4.2,9.7,4.2,9.6C4.2,9.6,4.2,9.6,4.2,9.6z
	 M4.5,9.5C4.6,9.5,4.4,9.5,4.5,9.5C4.5,9.5,4.5,9.5,4.5,9.5z M4.1,9.2C4.1,9.2,4.1,9.1,4.1,9.2C4.1,9.1,4.1,9.2,4.1,9.2z M4.6,10
	C4.6,10.1,4.6,10,4.6,10C4.6,10,4.6,10,4.6,10z M4.2,9.8C4.3,9.8,4.1,9.7,4.2,9.8C4.2,9.8,4.2,9.8,4.2,9.8z M4.1,9.2
	C4.1,9.2,4.1,9.1,4.1,9.2C4.1,9.2,4.1,9.2,4.1,9.2z M4.6,10C4.6,10,4.7,10,4.6,10C4.6,10,4.6,10,4.6,10z M4,9.1C4,9.1,4,9.1,4,9.1
	C4,9.1,4,9.1,4,9.1z M3.7,9.2C3.7,9.1,3.7,9.2,3.7,9.2C3.7,9.2,3.7,9.2,3.7,9.2z M4,9.2C4.1,9.2,4,9.2,4,9.2C4,9.2,4,9.2,4,9.2z
	 M3.9,8.8C3.9,8.8,3.9,8.8,3.9,8.8C3.9,8.8,3.9,8.8,3.9,8.8z M4,9.2C4.1,9.2,4.1,9.2,4,9.2C4.1,9.2,4.1,9.2,4,9.2z M4.3,10.1
	C4.2,10.1,4.3,10.2,4.3,10.1C4.3,10.1,4.3,10.1,4.3,10.1z M4.5,9.7C4.5,9.7,4.5,9.8,4.5,9.7C4.5,9.7,4.5,9.7,4.5,9.7z M4.2,8.9
	C4.2,8.8,4.2,8.9,4.2,8.9C4.2,8.9,4.2,8.9,4.2,8.9z M4.6,9.8C4.6,9.8,4.6,9.8,4.6,9.8C4.6,9.8,4.6,9.8,4.6,9.8z M4.1,9.9
	C4.1,9.9,4.1,9.9,4.1,9.9C4.1,9.9,4.1,9.9,4.1,9.9z M4.4,9.2C4.4,9.2,4.3,9.2,4.4,9.2C4.4,9.2,4.4,9.2,4.4,9.2z M3.8,9.1
	C3.7,9.1,3.8,9.1,3.8,9.1C3.8,9.1,3.8,9.1,3.8,9.1z M4.1,9.2C4,9.2,4.1,9.2,4.1,9.2C4.1,9.2,4.1,9.2,4.1,9.2z"/>
</svg>
