<?xml version="1.0" encoding="utf-8"?>
<!-- Generator: Adobe Illustrator 21.0.0, SVG Export Plug-In . SVG Version: 6.00 Build 0)  -->
<svg version="1.1" id="Layer_3" xmlns="http://www.w3.org/2000/svg" xmlns:xlink="http://www.w3.org/1999/xlink" x="0px" y="0px"
	 viewBox="0 0 160 160" style="enable-background:new 0 0 160 160;" xml:space="preserve">
<style type="text/css">
	.st0{fill:#231F20;}
</style>
<g>
	<path class="st0" d="M130,30v120H40V30H130 M131.7,20H38.3c-4.6,0-8.3,3.7-8.3,8.3v123.4c0,4.6,3.7,8.3,8.3,8.3h93.4
		c4.6,0,8.3-3.7,8.3-8.3V28.3C140,23.7,136.3,20,131.7,20L131.7,20z"/>
</g>
<g>
	<path class="st0" d="M115,120L115,120c-2.8,0-5-2.2-5-5V45c0-2.8,2.2-5,5-5h0c2.8,0,5,2.2,5,5v70C120,117.8,117.8,120,115,120z"/>
</g>
<g>
	<path class="st0" d="M95,120L95,120c-2.8,0-5-2.2-5-5V45c0-2.8,2.2-5,5-5h0c2.8,0,5,2.2,5,5v70C100,117.8,97.8,120,95,120z"/>
</g>
<g>
	<path class="st0" d="M75,120L75,120c-2.8,0-5-2.2-5-5V45c0-2.8,2.2-5,5-5h0c2.8,0,5,2.2,5,5v70C80,117.8,77.8,120,75,120z"/>
</g>
<g>
	<path class="st0" d="M55,120L55,120c-2.8,0-5-2.2-5-5V45c0-2.8,2.2-5,5-5h0c2.8,0,5,2.2,5,5v70C60,117.8,57.8,120,55,120z"/>
</g>
<g>
	<path class="st0" d="M125,0H45c-2.8,0-5,2.2-5,5s2.2,5,5,5h80c2.8,0,5-2.2,5-5S127.8,0,125,0L125,0z"/>
</g>
</svg>
