<?xml version="1.0" encoding="utf-8"?>
<!-- Generator: Adobe Illustrator 21.0.0, SVG Export Plug-In . SVG Version: 6.00 Build 0)  -->
<svg version="1.1" id="Layer_1" xmlns="http://www.w3.org/2000/svg" xmlns:xlink="http://www.w3.org/1999/xlink" x="0px" y="0px"
	 viewBox="0 0 160 160" style="enable-background:new 0 0 160 160;" xml:space="preserve">
<style type="text/css">
	.st0{fill:#231F20;}
</style>
<g>
	<path class="st0" d="M120,30v120H30V30H120 M121.7,20H28.3c-4.6,0-8.3,3.7-8.3,8.3v123.4c0,4.6,3.7,8.3,8.3,8.3h93.4
		c4.6,0,8.3-3.7,8.3-8.3V28.3C130,23.7,126.3,20,121.7,20L121.7,20z"/>
</g>
<g>
	<path class="st0" d="M105,135L105,135c-2.8,0-5-2.2-5-5V45c0-2.8,2.2-5,5-5h0c2.8,0,5,2.2,5,5v85C110,132.8,107.8,135,105,135z"/>
</g>
<g>
	<path class="st0" d="M75,140L75,140c-2.8,0-5-2.2-5-5V45c0-2.8,2.2-5,5-5h0c2.8,0,5,2.2,5,5v90C80,137.8,77.8,140,75,140z"/>
</g>
<g>
	<path class="st0" d="M45,135L45,135c-2.8,0-5-2.2-5-5V45c0-2.8,2.2-5,5-5h0c2.8,0,5,2.2,5,5v85C50,132.8,47.8,135,45,135z"/>
</g>
<g>
	<path class="st0" d="M125,0H25c-2.8,0-5,2.2-5,5s2.2,5,5,5h100c2.8,0,5-2.2,5-5S127.8,0,125,0L125,0z"/>
</g>
</svg>
