<?xml version="1.0" encoding="utf-8"?>
<!-- Generator: Adobe Illustrator 24.1.1, SVG Export Plug-In . SVG Version: 6.00 Build 0)  -->
<svg version="1.1" xmlns="http://www.w3.org/2000/svg" xmlns:xlink="http://www.w3.org/1999/xlink" x="0px" y="0px"
	 viewBox="0 0 160 160" style="enable-background:new 0 0 160 160;" xml:space="preserve">
<style type="text/css">
	.st0{display:none;}
	.st1{display:inline;}
	.st2{fill:#231F20;}
</style>
<g id="Layer_3" class="st0">
	<g class="st1">
		<path class="st2" d="M82,73v14h-9V73H82 M82.2,72h-9.4c-0.4,0-0.8,0.4-0.8,0.8v14.4c0,0.4,0.4,0.8,0.8,0.8h9.4
			c0.4,0,0.8-0.4,0.8-0.8V72.8C83,72.4,82.6,72,82.2,72L82.2,72z"/>
	</g>
	<g class="st1">
		<path class="st2" d="M87,78v9h-4v-9H87 M87.5,77h-5c-0.3,0-0.5,0.2-0.5,0.5v10c0,0.3,0.2,0.5,0.5,0.5h5c0.3,0,0.5-0.2,0.5-0.5v-10
			C88,77.2,87.8,77,87.5,77L87.5,77z"/>
	</g>
	<g class="st1">
		<polygon class="st2" points="75,77 74,77 74,78 75,78 75,77 		"/>
	</g>
	<g class="st1">
		<polygon class="st2" points="77,77 76,77 76,78 77,78 77,77 		"/>
	</g>
	<g class="st1">
		<polygon class="st2" points="79,77 78,77 78,78 79,78 79,77 		"/>
	</g>
	<g class="st1">
		<polygon class="st2" points="81,77 80,77 80,78 81,78 81,77 		"/>
	</g>
</g>
<g id="Layer_2">
	<g>
		<g>
			<path class="st2" d="M55.8,109.2H5.7c-3.1,0-5.7-2.6-5.7-5.7V53.4c0-1.8,2.1-2.6,3.4-1.4l23.4,23.4l7.2,7.2l23.3,23.3
				C58.4,107.1,57.6,109.2,55.8,109.2z"/>
		</g>
		<g>
			<path class="st2" d="M80.8,56.2c-20.4,0-39.3,7.2-54,19.2l7.2,7.2c12.9-10.2,29.2-16.3,46.8-16.3c30.1,0,56,17.6,68.1,42.9H160
				C147.2,78.1,116.5,56.2,80.8,56.2z"/>
		</g>
	</g>
</g>
</svg>
