<?xml version="1.0" encoding="utf-8"?>
<!-- Generator: Adobe Illustrator 21.0.0, SVG Export Plug-In . SVG Version: 6.00 Build 0)  -->
<svg version="1.1" id="Layer_1" xmlns="http://www.w3.org/2000/svg" xmlns:xlink="http://www.w3.org/1999/xlink" x="0px" y="0px"
	 viewBox="0 0 160 160" style="enable-background:new 0 0 160 160;" xml:space="preserve">
<style type="text/css">
	.st0{fill:#231F20;}
	.st1{fill:none;stroke:#231F20;stroke-width:10;stroke-linecap:round;stroke-linejoin:round;stroke-miterlimit:10;}
</style>
<g>
	<path class="st0" d="M80,100v30V100 M84.1,90h-8.1c-3.3,0-5.9,2.7-5.9,5.9v38.1c0,3.3,2.7,5.9,5.9,5.9h8.1c3.3,0,5.9-2.7,5.9-5.9
		V95.9C90,92.7,87.3,90,84.1,90L84.1,90z"/>
</g>
<g>
	<path class="st0" d="M80,70L80,70C80,70,80,70,80,70 M80,60c-5.5,0-10,4.5-10,10s4.5,10,10,10s10-4.5,10-10S85.5,60,80,60L80,60z"
		/>
</g>
<polygon class="st1" points="80,6.5 5,155 155,155 "/>
</svg>
