<?xml version="1.0" encoding="utf-8"?>
<!-- Generator: Adobe Illustrator 16.0.3, SVG Export Plug-In . SVG Version: 6.00 Build 0)  -->
<!DOCTYPE svg PUBLIC "-//W3C//DTD SVG 1.1//EN" "http://www.w3.org/Graphics/SVG/1.1/DTD/svg11.dtd">
<svg version="1.1" id="Layer_3" xmlns="http://www.w3.org/2000/svg" xmlns:xlink="http://www.w3.org/1999/xlink" x="0px" y="0px"
	 width="16px" height="16px" viewBox="0 0 16 16" enable-background="new 0 0 16 16" xml:space="preserve">
<linearGradient id="SVGID_1_" gradientUnits="userSpaceOnUse" x1="6.9995" y1="1.0469" x2="6.9995" y2="18.2095">
	<stop  offset="0" style="stop-color:#808080"/>
	<stop  offset="1" style="stop-color:#4D4D4D"/>
</linearGradient>
<path fill="url(#SVGID_1_)" d="M7,1C3.686,1,1,3.687,1,7s2.686,6,6,6c3.313,0,6-2.687,6-6S10.313,1,7,1z M10,8H8v2H6V8H4V6h2V4h2v2
	h2V8z"/>
<linearGradient id="SVGID_2_" gradientUnits="userSpaceOnUse" x1="13.165" y1="3.2764" x2="13.165" y2="16.1572">
	<stop  offset="0" style="stop-color:#808080"/>
	<stop  offset="1" style="stop-color:#4D4D4D"/>
</linearGradient>
<path fill="url(#SVGID_2_)" d="M13.158,10.33c-0.647,1.195-1.633,2.181-2.828,2.828L13.172,16L16,13.172L13.158,10.33z"/>
</svg>
