<?xml version="1.0" encoding="utf-8"?>
<!-- Generator: Adobe Illustrator 21.0.0, SVG Export Plug-In . SVG Version: 6.00 Build 0)  -->
<svg version="1.1" id="Layer_1" xmlns="http://www.w3.org/2000/svg" xmlns:xlink="http://www.w3.org/1999/xlink" x="0px" y="0px"
	 viewBox="0 0 160 160" style="enable-background:new 0 0 160 160;" xml:space="preserve">
<style type="text/css">
	.st0{fill:#231F20;}
	.st1{fill:none;stroke:#231F20;stroke-width:10;stroke-linecap:round;stroke-miterlimit:10;}
</style>
<g>
	<g>
		<path class="st0" d="M65.5,15.5c27.6,0,50,22.4,50,50s-22.4,50-50,50s-50-22.4-50-50S37.9,15.5,65.5,15.5 M65.5,5.5
			c-33.1,0-60,26.9-60,60s26.9,60,60,60s60-26.9,60-60S98.6,5.5,65.5,5.5L65.5,5.5z"/>
	</g>
	<path class="st0" d="M110.5,117.6l41,41c2,2,5.1,2,7.1,0c2-2,2-5.1,0-7.1l-41-41L110.5,117.6z"/>
	<line class="st1" x1="65.5" y1="35.5" x2="65.5" y2="95.5"/>
	<line class="st1" x1="95.5" y1="65.5" x2="35.5" y2="65.5"/>
</g>
</svg>
