<?xml version="1.0" encoding="utf-8"?>
<!-- Generator: Adobe Illustrator 16.0.3, SVG Export Plug-In . SVG Version: 6.00 Build 0)  -->
<!DOCTYPE svg PUBLIC "-//W3C//DTD SVG 1.1//EN" "http://www.w3.org/Graphics/SVG/1.1/DTD/svg11.dtd">
<svg version="1.1" id="Layer_3" xmlns="http://www.w3.org/2000/svg" xmlns:xlink="http://www.w3.org/1999/xlink" x="0px" y="0px"
	 width="16px" height="16px" viewBox="0 0 16 16" enable-background="new 0 0 16 16" xml:space="preserve">
<linearGradient id="SVGID_1_" gradientUnits="userSpaceOnUse" x1="7.9995" y1="1.2915" x2="7.9995" y2="14.7289">
	<stop  offset="0" style="stop-color:#808080"/>
	<stop  offset="1" style="stop-color:#4D4D4D"/>
</linearGradient>
<path fill="url(#SVGID_1_)" d="M14.5,1h-13C1.224,1,1,1.224,1,1.5v13C1,14.776,1.224,15,1.5,15h13c0.276,0,0.5-0.224,0.5-0.5v-13
	C15,1.224,14.776,1,14.5,1z M6,6v1v5H5V6H3V5h3V6z M9,12H8v-1h1V12z M9,9H8V8h1V9z M13,6v1v5h-1V6h-2V5h3V6z"/>
</svg>
